999
"DXF R12 Output" (www.mydxf.blogspot.com)
 0 
SECTION
 2 
HEADER
 9 
$ACADVER
 1 
AC1009
 9 
$EXTMIN
 10 
 0 
 20 
 0 
 9 
$EXTMAX
 10 
 8.5 
 20 
 11 
 0 
ENDSEC
 0 
SECTION
 2 
ENTITIES
0
LINE
8
Layer 1
10
117.603041
20
3.755551
11
115.619940
21
4.193514
0
LINE
8
Layer 1
10
115.619940
20
4.193514
11
113.510819
21
5.031844
0
LINE
8
Layer 1
10
113.510819
20
5.031844
11
111.270291
21
5.917238
0
LINE
8
Layer 1
10
111.270291
20
5.917238
11
108.745124
21
6.128413
0
LINE
8
Layer 1
10
108.745124
20
6.128413
11
105.880307
21
6.389436
0
LINE
8
Layer 1
10
105.880307
20
6.389436
11
103.322225
21
7.035057
0
LINE
8
Layer 1
10
103.322225
20
7.035057
11
101.135364
21
8.042808
0
LINE
8
Layer 1
10
101.135364
20
8.042808
11
99.384208
21
9.390219
0
LINE
8
Layer 1
10
99.384208
20
9.390219
11
98.333165
21
10.842521
0
LINE
8
Layer 1
10
98.333165
20
10.842521
11
97.239887
21
13.120824
0
LINE
8
Layer 1
10
97.239887
20
13.120824
11
96.522023
21
14.800798
0
LINE
8
Layer 1
10
96.522023
20
14.800798
11
95.965593
21
15.571187
0
LINE
8
Layer 1
10
95.965593
20
15.571187
11
95.641930
21
15.685599
0
LINE
8
Layer 1
10
95.641930
20
15.685599
11
95.231443
21
15.656991
0
LINE
8
Layer 1
10
95.231443
20
15.656991
11
93.980418
21
15.283211
0
LINE
8
Layer 1
10
93.980418
20
15.283211
11
91.671204
21
14.600867
0
LINE
8
Layer 1
10
91.671204
20
14.600867
11
89.541045
21
14.216461
0
LINE
8
Layer 1
10
89.541045
20
14.216461
11
86.878906
21
14.047957
0
LINE
8
Layer 1
10
86.878906
20
14.047957
11
82.973751
21
14.013321
0
LINE
8
Layer 1
10
82.973751
20
14.013321
11
77.277783
21
14.122138
0
LINE
8
Layer 1
10
77.277783
20
14.122138
11
75.764942
21
14.317642
0
LINE
8
Layer 1
10
75.764942
20
14.317642
11
74.365973
21
14.666073
0
LINE
8
Layer 1
10
74.365973
20
14.666073
11
70.979307
21
15.586800
0
LINE
8
Layer 1
10
70.979307
20
15.586800
11
67.932983
21
16.586251
0
LINE
8
Layer 1
10
67.932983
20
16.586251
11
66.202014
21
17.112420
0
LINE
8
Layer 1
10
66.202014
20
17.112420
11
64.969650
21
17.107261
0
LINE
8
Layer 1
10
64.969650
20
17.107261
11
62.616567
21
16.926144
0
LINE
8
Layer 1
10
62.616567
20
16.926144
11
59.688812
21
17.042175
0
LINE
8
Layer 1
10
59.688812
20
17.042175
11
56.975943
21
17.390373
0
LINE
8
Layer 1
10
56.975943
20
17.390373
11
55.267519
21
17.905755
0
LINE
8
Layer 1
10
55.267519
20
17.905755
11
54.545718
21
18.665369
0
LINE
8
Layer 1
10
54.545718
20
18.665369
11
53.594544
21
20.034261
0
LINE
8
Layer 1
10
53.594544
20
20.034261
11
52.674873
21
21.602822
0
LINE
8
Layer 1
10
52.674873
20
21.602822
11
52.047583
21
22.961442
0
LINE
8
Layer 1
10
52.047583
20
22.961442
11
51.724992
21
24.230475
0
LINE
8
Layer 1
10
51.724992
20
24.230475
11
51.678033
21
25.460545
0
LINE
8
Layer 1
10
51.678033
20
25.460545
11
51.909752
21
26.692255
0
LINE
8
Layer 1
10
51.909752
20
26.692255
11
52.423195
21
27.966207
0
LINE
8
Layer 1
10
52.423195
20
27.966207
11
53.134948
21
29.177136
0
LINE
8
Layer 1
10
53.134948
20
29.177136
11
53.987409
21
30.252441
0
LINE
8
Layer 1
10
53.987409
20
30.252441
11
54.976115
21
31.189392
0
LINE
8
Layer 1
10
54.976115
20
31.189392
11
56.096603
21
31.985262
0
LINE
8
Layer 1
10
56.096603
20
31.985262
11
57.344408
21
32.637320
0
LINE
8
Layer 1
10
57.344408
20
32.637320
11
58.715066
21
33.142838
0
LINE
8
Layer 1
10
58.715066
20
33.142838
11
60.204112
21
33.499085
0
LINE
8
Layer 1
10
60.204112
20
33.499085
11
61.807084
21
33.703333
0
LINE
8
Layer 1
10
61.807084
20
33.703333
11
63.753284
21
34.017961
0
LINE
8
Layer 1
10
63.753284
20
34.017961
11
65.856414
21
34.576614
0
LINE
8
Layer 1
10
65.856414
20
34.576614
11
68.369622
21
35.202990
0
LINE
8
Layer 1
10
68.369622
20
35.202990
11
71.429862
21
35.619971
0
LINE
8
Layer 1
10
71.429862
20
35.619971
11
74.916198
21
35.816228
0
LINE
8
Layer 1
10
74.916198
20
35.816228
11
78.707688
21
35.780432
0
LINE
8
Layer 1
10
78.707688
20
35.780432
11
87.771529
21
35.454328
0
LINE
8
Layer 1
10
87.771529
20
35.454328
11
92.710418
21
35.292634
0
LINE
8
Layer 1
10
92.710418
20
35.292634
11
93.621561
21
36.570770
0
LINE
8
Layer 1
10
93.621561
20
36.570770
11
94.319726
21
37.702258
0
LINE
8
Layer 1
10
94.319726
20
37.702258
11
94.718810
21
38.627812
0
LINE
8
Layer 1
10
94.718810
20
38.627812
11
95.142880
21
39.711424
0
LINE
8
Layer 1
10
95.142880
20
39.711424
11
95.404850
21
40.736124
0
LINE
8
Layer 1
10
95.404850
20
40.736124
11
95.551850
21
42.584841
0
LINE
8
Layer 1
10
95.551850
20
42.584841
11
95.558396
21
44.614006
0
LINE
8
Layer 1
10
95.558396
20
44.614006
11
95.399008
21
46.180053
0
LINE
8
Layer 1
10
95.399008
20
46.180053
11
94.825044
21
48.776596
0
LINE
8
Layer 1
10
94.825044
20
48.776596
11
94.291774
21
50.469930
0
LINE
8
Layer 1
10
94.291774
20
50.469930
11
93.285285
21
52.548389
0
LINE
8
Layer 1
10
93.285285
20
52.548389
11
92.411371
21
53.979920
0
LINE
8
Layer 1
10
92.411371
20
53.979920
11
91.221182
21
55.103514
0
LINE
8
Layer 1
10
91.221182
20
55.103514
11
88.300489
21
57.255063
0
LINE
8
Layer 1
10
88.300489
20
57.255063
11
86.578795
21
58.747146
0
LINE
8
Layer 1
10
86.578795
20
58.747146
11
84.495862
21
60.843274
0
LINE
8
Layer 1
10
84.495862
20
60.843274
11
82.582002
21
62.981599
0
LINE
8
Layer 1
10
82.582002
20
62.981599
11
81.367528
21
64.600274
0
LINE
8
Layer 1
10
81.367528
20
64.600274
11
79.642204
21
67.814804
0
LINE
8
Layer 1
10
79.642204
20
67.814804
11
78.481671
21
70.674486
0
LINE
8
Layer 1
10
78.481671
20
70.674486
11
77.826292
21
73.361482
0
LINE
8
Layer 1
10
77.826292
20
73.361482
11
77.616428
21
76.057955
0
LINE
8
Layer 1
10
77.616428
20
76.057955
11
77.611529
21
77.995853
0
LINE
8
Layer 1
10
77.611529
20
77.995853
11
76.835418
21
77.807820
0
LINE
8
Layer 1
10
76.835418
20
77.807820
11
73.012419
21
77.455909
0
LINE
8
Layer 1
10
73.012419
20
77.455909
11
69.965530
21
77.292033
0
LINE
8
Layer 1
10
69.965530
20
77.292033
11
68.866190
21
78.175488
0
LINE
8
Layer 1
10
68.866190
20
78.175488
11
67.689237
21
78.896424
0
LINE
8
Layer 1
10
67.689237
20
78.896424
11
66.245607
21
79.058942
0
LINE
8
Layer 1
10
66.245607
20
79.058942
11
64.383227
21
79.237785
0
LINE
8
Layer 1
10
64.383227
20
79.237785
11
62.564008
21
79.737814
0
LINE
8
Layer 1
10
62.564008
20
79.737814
11
60.936924
21
80.504282
0
LINE
8
Layer 1
10
60.936924
20
80.504282
11
59.650955
21
81.482441
0
LINE
8
Layer 1
10
59.650955
20
81.482441
11
58.746187
21
82.570856
0
LINE
8
Layer 1
10
58.746187
20
82.570856
11
58.271732
21
83.486848
0
LINE
8
Layer 1
10
58.271732
20
83.486848
11
57.697621
21
85.206851
0
LINE
8
Layer 1
10
57.697621
20
85.206851
11
57.291529
21
86.632074
0
LINE
8
Layer 1
10
57.291529
20
86.632074
11
57.030267
21
87.398609
0
LINE
8
Layer 1
10
57.030267
20
87.398609
11
56.768266
21
88.134497
0
LINE
8
Layer 1
10
56.768266
20
88.134497
11
56.466393
21
89.661281
0
LINE
8
Layer 1
10
56.466393
20
89.661281
11
55.966264
21
93.754126
0
LINE
8
Layer 1
10
55.966264
20
93.754126
11
55.990443
21
95.684991
0
LINE
8
Layer 1
10
55.990443
20
95.684991
11
56.287689
21
97.843969
0
LINE
8
Layer 1
10
56.287689
20
97.843969
11
56.797118
21
99.912023
0
LINE
8
Layer 1
10
56.797118
20
99.912023
11
57.457845
21
101.570115
0
LINE
8
Layer 1
10
57.457845
20
101.570115
11
58.138195
21
103.119806
0
LINE
8
Layer 1
10
58.138195
20
103.119806
11
59.008577
21
104.488886
0
LINE
8
Layer 1
10
59.008577
20
104.488886
11
59.532369
21
105.105433
0
LINE
8
Layer 1
10
59.532369
20
105.105433
11
59.990204
21
105.433769
0
LINE
8
Layer 1
10
59.990204
20
105.433769
11
60.590797
21
105.564400
0
LINE
8
Layer 1
10
60.590797
20
105.564400
11
61.542865
21
105.587831
0
LINE
8
Layer 1
10
61.542865
20
105.587831
11
63.030563
21
105.470300
0
LINE
8
Layer 1
10
63.030563
20
105.470300
11
64.270817
21
105.187725
0
LINE
8
Layer 1
10
64.270817
20
105.187725
11
66.746199
21
104.622891
0
LINE
8
Layer 1
10
66.746199
20
104.622891
11
68.198855
21
104.331717
0
LINE
8
Layer 1
10
68.198855
20
104.331717
11
69.709532
21
103.862982
0
LINE
8
Layer 1
10
69.709532
20
103.862982
11
75.374389
21
101.845224
0
LINE
8
Layer 1
10
75.374389
20
101.845224
11
77.003102
21
101.462537
0
LINE
8
Layer 1
10
77.003102
20
101.462537
11
78.297989
21
101.360774
0
LINE
8
Layer 1
10
78.297989
20
101.360774
11
79.697324
21
101.432517
0
LINE
8
Layer 1
10
79.697324
20
101.432517
11
79.720582
21
101.578678
0
LINE
8
Layer 1
10
79.720582
20
101.578678
11
79.420898
21
101.854663
0
LINE
8
Layer 1
10
79.420898
20
101.854663
11
78.391173
21
102.996812
0
LINE
8
Layer 1
10
78.391173
20
102.996812
11
77.323263
21
104.704365
0
LINE
8
Layer 1
10
77.323263
20
104.704365
11
76.287443
21
106.848651
0
LINE
8
Layer 1
10
76.287443
20
106.848651
11
75.353988
21
109.301001
0
LINE
8
Layer 1
10
75.353988
20
109.301001
11
74.385864
21
112.012016
0
LINE
8
Layer 1
10
74.385864
20
112.012016
11
71.649804
21
110.868279
0
LINE
8
Layer 1
10
71.649804
20
110.868279
11
67.720078
21
109.241923
0
LINE
8
Layer 1
10
67.720078
20
109.241923
11
63.740253
21
107.993484
0
LINE
8
Layer 1
10
63.740253
20
107.993484
11
59.750591
21
107.125939
0
LINE
8
Layer 1
10
59.750591
20
107.125939
11
55.791348
21
106.642267
0
LINE
8
Layer 1
10
55.791348
20
106.642267
11
51.902785
21
106.545446
0
LINE
8
Layer 1
10
51.902785
20
106.545446
11
48.125158
21
106.838453
0
LINE
8
Layer 1
10
48.125158
20
106.838453
11
44.498727
21
107.524267
0
LINE
8
Layer 1
10
44.498727
20
107.524267
11
41.063751
21
108.605865
0
LINE
8
Layer 1
10
41.063751
20
108.605865
11
38.348945
21
109.869015
0
LINE
8
Layer 1
10
38.348945
20
109.869015
11
37.429221
21
110.422514
0
LINE
8
Layer 1
10
37.429221
20
110.422514
11
36.677540
21
110.722464
0
LINE
8
Layer 1
10
36.677540
20
110.722464
11
36.108631
21
110.765046
0
LINE
8
Layer 1
10
36.108631
20
110.765046
11
35.737224
21
110.546439
0
LINE
8
Layer 1
10
35.737224
20
110.546439
11
35.425095
21
110.341223
0
LINE
8
Layer 1
10
35.425095
20
110.341223
11
34.741019
21
110.253594
0
LINE
8
Layer 1
10
34.741019
20
110.253594
11
31.327084
21
110.400276
0
LINE
8
Layer 1
10
31.327084
20
110.400276
11
27.904054
21
110.727004
0
LINE
8
Layer 1
10
27.904054
20
110.727004
11
24.852215
21
111.225166
0
LINE
8
Layer 1
10
24.852215
20
111.225166
11
22.235302
21
111.881779
0
LINE
8
Layer 1
10
22.235302
20
111.881779
11
20.117051
21
112.683860
0
LINE
8
Layer 1
10
20.117051
20
112.683860
11
18.218486
21
113.830306
0
LINE
8
Layer 1
10
18.218486
20
113.830306
11
16.455021
21
115.387914
0
LINE
8
Layer 1
10
16.455021
20
115.387914
11
14.903578
21
117.276710
0
LINE
8
Layer 1
10
14.903578
20
117.276710
11
13.641081
21
119.416720
0
LINE
8
Layer 1
10
13.641081
20
119.416720
11
12.306601
21
122.404328
0
LINE
8
Layer 1
10
12.306601
20
122.404328
11
11.476797
21
125.045079
0
LINE
8
Layer 1
10
11.476797
20
125.045079
11
11.028434
21
127.865508
0
LINE
8
Layer 1
10
11.028434
20
127.865508
11
10.838278
21
131.392148
0
LINE
8
Layer 1
10
10.838278
20
131.392148
11
10.732143
21
135.606465
0
LINE
8
Layer 1
10
10.732143
20
135.606465
11
9.559586
21
136.754370
0
LINE
8
Layer 1
10
9.559586
20
136.754370
11
8.522183
21
138.017160
0
LINE
8
Layer 1
10
8.522183
20
138.017160
11
7.674564
21
139.441276
0
LINE
8
Layer 1
10
7.674564
20
139.441276
11
7.167889
21
140.805570
0
LINE
8
Layer 1
10
7.167889
20
140.805570
11
6.865667
21
142.154897
0
LINE
8
Layer 1
10
6.865667
20
142.154897
11
6.805150
21
143.239326
0
LINE
8
Layer 1
10
6.805150
20
143.239326
11
7.023588
21
143.808927
0
LINE
8
Layer 1
10
7.023588
20
143.808927
11
7.249517
21
144.252243
0
LINE
8
Layer 1
10
7.249517
20
144.252243
11
7.350923
21
145.045043
0
LINE
8
Layer 1
10
7.350923
20
145.045043
11
7.459803
21
145.993163
0
LINE
8
Layer 1
10
7.459803
20
145.993163
11
7.703701
21
146.809903
0
LINE
8
Layer 1
10
7.703701
20
146.809903
11
8.517983
21
147.866126
0
LINE
8
Layer 1
10
8.517983
20
147.866126
11
9.965174
21
149.286879
0
LINE
8
Layer 1
10
9.965174
20
149.286879
11
11.590078
21
150.658424
0
LINE
8
Layer 1
10
11.590078
20
150.658424
11
12.937498
21
151.567024
0
LINE
8
Layer 1
10
12.937498
20
151.567024
11
15.591064
21
152.681761
0
LINE
8
Layer 1
10
15.591064
20
152.681761
11
18.686702
21
153.595384
0
LINE
8
Layer 1
10
18.686702
20
153.595384
11
22.037505
21
154.289616
0
LINE
8
Layer 1
10
22.037505
20
154.289616
11
25.456563
21
154.746175
0
LINE
8
Layer 1
10
25.456563
20
154.746175
11
28.756968
21
154.946782
0
LINE
8
Layer 1
10
28.756968
20
154.946782
11
31.751813
21
154.873158
0
LINE
8
Layer 1
10
31.751813
20
154.873158
11
34.254190
21
154.507022
0
LINE
8
Layer 1
10
34.254190
20
154.507022
11
36.077189
21
153.830096
0
LINE
8
Layer 1
10
36.077189
20
153.830096
11
36.677697
21
153.525285
0
LINE
8
Layer 1
10
36.677697
20
153.525285
11
37.322063
21
153.394210
0
LINE
8
Layer 1
10
37.322063
20
153.394210
11
39.895258
21
153.576779
0
LINE
8
Layer 1
10
39.895258
20
153.576779
11
42.762884
21
154.072824
0
LINE
8
Layer 1
10
42.762884
20
154.072824
11
43.293780
21
154.375475
0
LINE
8
Layer 1
10
43.293780
20
154.375475
11
43.294063
21
154.738936
0
LINE
8
Layer 1
10
43.294063
20
154.738936
11
43.136660
21
160.757261
0
LINE
8
Layer 1
10
43.136660
20
160.757261
11
43.287600
21
166.775153
0
LINE
8
Layer 1
10
43.287600
20
166.775153
11
43.752533
21
169.677659
0
LINE
8
Layer 1
10
43.752533
20
169.677659
11
44.320564
21
173.180056
0
LINE
8
Layer 1
10
44.320564
20
173.180056
11
45.172853
21
176.143389
0
LINE
8
Layer 1
10
45.172853
20
176.143389
11
46.199716
21
179.247837
0
LINE
8
Layer 1
10
46.199716
20
179.247837
11
48.135328
21
183.249652
0
LINE
8
Layer 1
10
48.135328
20
183.249652
11
49.950757
21
186.303391
0
LINE
8
Layer 1
10
49.950757
20
186.303391
11
51.706382
21
189.107282
0
LINE
8
Layer 1
10
51.706382
20
189.107282
11
52.514291
21
190.241217
0
LINE
8
Layer 1
10
52.514291
20
190.241217
11
53.552084
21
191.207721
0
LINE
8
Layer 1
10
53.552084
20
191.207721
11
54.322198
21
191.909164
0
LINE
8
Layer 1
10
54.322198
20
191.909164
11
54.732191
21
192.633201
0
LINE
8
Layer 1
10
54.732191
20
192.633201
11
54.760660
21
193.311380
0
LINE
8
Layer 1
10
54.760660
20
193.311380
11
54.386201
21
193.875248
0
LINE
8
Layer 1
10
54.386201
20
193.875248
11
53.627971
21
195.179806
0
LINE
8
Layer 1
10
53.627971
20
195.179806
11
53.260026
21
195.887017
0
LINE
8
Layer 1
10
53.260026
20
195.887017
11
52.927129
21
196.181167
0
LINE
8
Layer 1
10
52.927129
20
196.181167
11
52.172930
21
195.649316
0
LINE
8
Layer 1
10
52.172930
20
195.649316
11
51.647084
21
194.886503
0
LINE
8
Layer 1
10
51.647084
20
194.886503
11
50.409560
21
193.118930
0
LINE
8
Layer 1
10
50.409560
20
193.118930
11
47.749293
21
189.101920
0
LINE
8
Layer 1
10
47.749293
20
189.101920
11
45.834780
21
186.327848
0
LINE
8
Layer 1
10
45.834780
20
186.327848
11
43.695176
21
184.017449
0
LINE
8
Layer 1
10
43.695176
20
184.017449
11
41.505346
21
182.332109
0
LINE
8
Layer 1
10
41.505346
20
182.332109
11
40.446242
21
181.774270
0
LINE
8
Layer 1
10
40.446242
20
181.774270
11
39.440155
21
181.433216
0
LINE
8
Layer 1
10
39.440155
20
181.433216
11
37.641039
21
181.128479
0
LINE
8
Layer 1
10
37.641039
20
181.128479
11
35.799609
21
181.011702
0
LINE
8
Layer 1
10
35.799609
20
181.011702
11
34.112629
21
181.085293
0
LINE
8
Layer 1
10
34.112629
20
181.085293
11
32.776860
21
181.351662
0
LINE
8
Layer 1
10
32.776860
20
181.351662
11
31.465935
21
181.954312
0
LINE
8
Layer 1
10
31.465935
20
181.954312
11
30.272971
21
182.805496
0
LINE
8
Layer 1
10
30.272971
20
182.805496
11
29.330764
21
183.790983
0
LINE
8
Layer 1
10
29.330764
20
183.790983
11
28.772112
21
184.796538
0
LINE
8
Layer 1
10
28.772112
20
184.796538
11
28.551573
21
186.091727
0
LINE
8
Layer 1
10
28.551573
20
186.091727
11
28.591645
21
187.627288
0
LINE
8
Layer 1
10
28.591645
20
187.627288
11
28.865988
21
189.147242
0
LINE
8
Layer 1
10
28.865988
20
189.147242
11
29.348263
21
190.395613
0
LINE
8
Layer 1
10
29.348263
20
190.395613
11
30.590749
21
192.460812
0
LINE
8
Layer 1
10
30.590749
20
192.460812
11
31.908129
21
194.338848
0
LINE
8
Layer 1
10
31.908129
20
194.338848
11
33.398629
21
196.159093
0
LINE
8
Layer 1
10
33.398629
20
196.159093
11
35.160475
21
198.050923
0
LINE
8
Layer 1
10
35.160475
20
198.050923
11
40.661604
21
203.695367
0
LINE
8
Layer 1
10
40.661604
20
203.695367
11
43.197790
21
206.277922
0
LINE
8
Layer 1
10
43.197790
20
206.277922
11
44.760869
21
207.557881
0
LINE
8
Layer 1
10
44.760869
20
207.557881
11
45.421578
21
207.851925
0
LINE
8
Layer 1
10
45.421578
20
207.851925
11
46.131912
21
207.991366
0
LINE
8
Layer 1
10
46.131912
20
207.991366
11
48.091987
21
208.034500
0
LINE
8
Layer 1
10
48.091987
20
208.034500
11
50.396427
21
207.940726
0
LINE
8
Layer 1
10
50.396427
20
207.940726
11
51.513732
21
207.648383
0
LINE
8
Layer 1
10
51.513732
20
207.648383
11
53.873032
21
206.310308
0
LINE
8
Layer 1
10
53.873032
20
206.310308
11
55.754696
21
205.494500
0
LINE
8
Layer 1
10
55.754696
20
205.494500
11
57.761082
21
204.669649
0
LINE
8
Layer 1
10
57.761082
20
204.669649
11
60.768864
21
203.247489
0
LINE
8
Layer 1
10
60.768864
20
203.247489
11
62.332647
21
202.672277
0
LINE
8
Layer 1
10
62.332647
20
202.672277
11
63.935779
21
202.102677
0
LINE
8
Layer 1
10
63.935779
20
202.102677
11
64.995131
21
201.752707
0
LINE
8
Layer 1
10
64.995131
20
201.752707
11
65.581953
21
201.787867
0
LINE
8
Layer 1
10
65.581953
20
201.787867
11
66.861566
21
202.248670
0
LINE
8
Layer 1
10
66.861566
20
202.248670
11
68.004625
21
202.693553
0
LINE
8
Layer 1
10
68.004625
20
202.693553
11
69.401566
21
203.473865
0
LINE
8
Layer 1
10
69.401566
20
203.473865
11
70.979307
21
204.493043
0
LINE
8
Layer 1
10
70.979307
20
204.493043
11
77.188195
21
204.679205
0
LINE
8
Layer 1
10
77.188195
20
204.679205
11
81.683336
21
204.755599
0
LINE
8
Layer 1
10
81.683336
20
204.755599
11
84.959501
21
204.626029
0
LINE
8
Layer 1
10
84.959501
20
204.626029
11
87.690492
21
204.231735
0
LINE
8
Layer 1
10
87.690492
20
204.231735
11
90.550111
21
203.513960
0
LINE
8
Layer 1
10
90.550111
20
203.513960
11
94.568730
21
202.245162
0
LINE
8
Layer 1
10
94.568730
20
202.245162
11
98.605509
21
200.472488
0
LINE
8
Layer 1
10
98.605509
20
200.472488
11
101.396157
21
199.163779
0
LINE
8
Layer 1
10
101.396157
20
199.163779
11
102.192145
21
200.117241
0
LINE
8
Layer 1
10
102.192145
20
200.117241
11
102.711402
21
200.860051
0
LINE
8
Layer 1
10
102.711402
20
200.860051
11
102.842063
21
201.307048
0
LINE
8
Layer 1
10
102.842063
20
201.307048
11
102.833075
21
201.473963
0
LINE
8
Layer 1
10
102.833075
20
201.473963
11
103.016583
21
201.543389
0
LINE
8
Layer 1
10
103.016583
20
201.543389
11
103.490827
21
201.790657
0
LINE
8
Layer 1
10
103.490827
20
201.790657
11
104.149703
21
202.363614
0
LINE
8
Layer 1
10
104.149703
20
202.363614
11
104.734645
21
203.008992
0
LINE
8
Layer 1
10
104.734645
20
203.008992
11
104.987084
21
203.473520
0
LINE
8
Layer 1
10
104.987084
20
203.473520
11
105.339421
21
203.942933
0
LINE
8
Layer 1
10
105.339421
20
203.942933
11
106.186529
21
204.678025
0
LINE
8
Layer 1
10
106.186529
20
204.678025
11
107.975894
21
206.301534
0
LINE
8
Layer 1
10
107.975894
20
206.301534
11
108.419954
21
206.698911
0
LINE
8
Layer 1
10
108.419954
20
206.698911
11
109.204429
21
206.960866
0
LINE
8
Layer 1
10
109.204429
20
206.960866
11
113.511804
21
207.427900
0
LINE
8
Layer 1
10
113.511804
20
207.427900
11
118.006635
21
207.710081
0
LINE
8
Layer 1
10
118.006635
20
207.710081
11
120.894661
21
207.475962
0
LINE
8
Layer 1
10
120.894661
20
207.475962
11
122.615700
21
207.134336
0
LINE
8
Layer 1
10
122.615700
20
207.134336
11
123.331529
21
206.845311
0
LINE
8
Layer 1
10
123.331529
20
206.845311
11
123.849671
21
206.683504
0
LINE
8
Layer 1
10
123.849671
20
206.683504
11
125.095418
21
206.647742
0
LINE
8
Layer 1
10
125.095418
20
206.647742
11
130.280542
21
206.405792
0
LINE
8
Layer 1
10
130.280542
20
206.405792
11
136.031529
21
205.793681
0
LINE
8
Layer 1
10
136.031529
20
205.793681
11
139.203156
21
205.342173
0
LINE
8
Layer 1
10
139.203156
20
205.342173
11
140.266966
21
205.107300
0
LINE
8
Layer 1
10
140.266966
20
205.107300
11
140.946886
21
204.772158
0
LINE
8
Layer 1
10
140.946886
20
204.772158
11
141.655814
21
204.365611
0
LINE
8
Layer 1
10
141.655814
20
204.365611
11
141.869371
21
204.282708
0
LINE
8
Layer 1
10
141.869371
20
204.282708
11
141.958195
21
204.083389
0
LINE
8
Layer 1
10
141.958195
20
204.083389
11
142.103275
21
203.883657
0
LINE
8
Layer 1
10
142.103275
20
203.883657
11
142.452084
21
203.799764
0
LINE
8
Layer 1
10
142.452084
20
203.799764
11
143.132555
21
203.593046
0
LINE
8
Layer 1
10
143.132555
20
203.593046
11
143.828061
21
203.060635
0
LINE
8
Layer 1
10
143.828061
20
203.060635
11
144.410947
21
202.328776
0
LINE
8
Layer 1
10
144.410947
20
202.328776
11
144.753556
21
201.523715
0
LINE
8
Layer 1
10
144.753556
20
201.523715
11
144.939762
21
199.469228
0
LINE
8
Layer 1
10
144.939762
20
199.469228
11
145.017617
21
196.230061
0
LINE
8
Layer 1
10
145.017617
20
196.230061
11
144.979611
21
193.021131
0
LINE
8
Layer 1
10
144.979611
20
193.021131
11
144.818235
21
191.057353
0
LINE
8
Layer 1
10
144.818235
20
191.057353
11
144.696815
21
190.458460
0
LINE
8
Layer 1
10
144.696815
20
190.458460
11
144.754280
21
190.093482
0
LINE
8
Layer 1
10
144.754280
20
190.093482
11
145.072511
21
189.824180
0
LINE
8
Layer 1
10
145.072511
20
189.824180
11
145.733392
21
189.512311
0
LINE
8
Layer 1
10
145.733392
20
189.512311
11
148.179476
21
188.265981
0
LINE
8
Layer 1
10
148.179476
20
188.265981
11
150.662484
21
186.692336
0
LINE
8
Layer 1
10
150.662484
20
186.692336
11
153.045635
21
184.886373
0
LINE
8
Layer 1
10
153.045635
20
184.886373
11
155.192143
21
182.943091
0
LINE
8
Layer 1
10
155.192143
20
182.943091
11
157.049101
21
180.908506
0
LINE
8
Layer 1
10
157.049101
20
180.908506
11
158.586316
21
178.886457
0
LINE
8
Layer 1
10
158.586316
20
178.886457
11
159.633513
21
177.126146
0
LINE
8
Layer 1
10
159.633513
20
177.126146
11
160.020418
21
175.876774
0
LINE
8
Layer 1
10
160.020418
20
175.876774
11
159.821095
21
175.377933
0
LINE
8
Layer 1
10
159.821095
20
175.377933
11
159.300742
21
174.748928
0
LINE
8
Layer 1
10
159.300742
20
174.748928
11
157.762640
21
173.575156
0
LINE
8
Layer 1
10
157.762640
20
173.575156
11
156.080236
21
172.919174
0
LINE
8
Layer 1
10
156.080236
20
172.919174
11
154.068274
21
172.568706
0
LINE
8
Layer 1
10
154.068274
20
172.568706
11
151.776352
21
172.528256
0
LINE
8
Layer 1
10
151.776352
20
172.528256
11
149.254069
21
172.802330
0
LINE
8
Layer 1
10
149.254069
20
172.802330
11
147.931956
21
172.981875
0
LINE
8
Layer 1
10
147.931956
20
172.981875
11
147.208153
21
172.870389
0
LINE
8
Layer 1
10
147.208153
20
172.870389
11
146.859456
21
172.332789
0
LINE
8
Layer 1
10
146.859456
20
172.332789
11
146.662665
21
171.233990
0
LINE
8
Layer 1
10
146.662665
20
171.233990
11
146.419069
21
170.032746
0
LINE
8
Layer 1
10
146.419069
20
170.032746
11
146.031985
21
168.921624
0
LINE
8
Layer 1
10
146.031985
20
168.921624
11
145.505084
21
167.904989
0
LINE
8
Layer 1
10
145.505084
20
167.904989
11
144.842040
21
166.987203
0
LINE
8
Layer 1
10
144.842040
20
166.987203
11
144.046526
21
166.172627
0
LINE
8
Layer 1
10
144.046526
20
166.172627
11
143.122216
21
165.465626
0
LINE
8
Layer 1
10
143.122216
20
165.465626
11
142.072782
21
164.870561
0
LINE
8
Layer 1
10
142.072782
20
164.870561
11
140.901897
21
164.391794
0
LINE
8
Layer 1
10
140.901897
20
164.391794
11
138.968868
21
163.920821
0
LINE
8
Layer 1
10
138.968868
20
163.920821
11
136.704919
21
163.677923
0
LINE
8
Layer 1
10
136.704919
20
163.677923
11
134.225303
21
163.650899
0
LINE
8
Layer 1
10
134.225303
20
163.650899
11
131.645268
21
163.827545
0
LINE
8
Layer 1
10
131.645268
20
163.827545
11
129.080068
21
164.195660
0
LINE
8
Layer 1
10
129.080068
20
164.195660
11
126.644951
21
164.743041
0
LINE
8
Layer 1
10
126.644951
20
164.743041
11
124.455169
21
165.457486
0
LINE
8
Layer 1
10
124.455169
20
165.457486
11
122.625973
21
166.326792
0
LINE
8
Layer 1
10
122.625973
20
166.326792
11
120.556961
21
167.841627
0
LINE
8
Layer 1
10
120.556961
20
167.841627
11
118.130500
21
170.014090
0
LINE
8
Layer 1
10
118.130500
20
170.014090
11
115.983567
21
172.232608
0
LINE
8
Layer 1
10
115.983567
20
172.232608
11
114.753139
21
173.885612
0
LINE
8
Layer 1
10
114.753139
20
173.885612
11
113.564501
21
175.720056
0
LINE
8
Layer 1
10
113.564501
20
175.720056
11
112.849985
21
176.566723
0
LINE
8
Layer 1
10
112.849985
20
176.566723
11
113.030601
21
175.155612
0
LINE
8
Layer 1
10
113.030601
20
175.155612
11
113.354337
21
171.794730
0
LINE
8
Layer 1
10
113.354337
20
171.794730
11
113.376505
21
168.885859
0
LINE
8
Layer 1
10
113.376505
20
168.885859
11
113.084505
21
166.166169
0
LINE
8
Layer 1
10
113.084505
20
166.166169
11
112.465739
21
163.372831
0
LINE
8
Layer 1
10
112.465739
20
163.372831
11
112.240362
21
162.258816
0
LINE
8
Layer 1
10
112.240362
20
162.258816
11
112.324848
21
162.075336
0
LINE
8
Layer 1
10
112.324848
20
162.075336
11
112.547400
21
162.032275
0
LINE
8
Layer 1
10
112.547400
20
162.032275
11
113.573093
21
161.851988
0
LINE
8
Layer 1
10
113.573093
20
161.851988
11
116.275973
21
161.050311
0
LINE
8
Layer 1
10
116.275973
20
161.050311
11
118.211164
21
160.351232
0
LINE
8
Layer 1
10
118.211164
20
160.351232
11
119.945649
21
159.507260
0
LINE
8
Layer 1
10
119.945649
20
159.507260
11
121.480161
21
158.517983
0
LINE
8
Layer 1
10
121.480161
20
158.517983
11
122.815435
21
157.382989
0
LINE
8
Layer 1
10
122.815435
20
157.382989
11
123.715935
21
156.467920
0
LINE
8
Layer 1
10
123.715935
20
156.467920
11
124.217344
21
155.785407
0
LINE
8
Layer 1
10
124.217344
20
155.785407
11
124.466116
21
155.060732
0
LINE
8
Layer 1
10
124.466116
20
155.060732
11
124.608706
21
154.019179
0
LINE
8
Layer 1
10
124.608706
20
154.019179
11
124.700706
21
152.821106
0
LINE
8
Layer 1
10
124.700706
20
152.821106
11
124.648922
21
151.879711
0
LINE
8
Layer 1
10
124.648922
20
151.879711
11
123.960165
21
149.755609
0
LINE
8
Layer 1
10
123.960165
20
149.755609
11
123.142366
21
148.228492
0
LINE
8
Layer 1
10
123.142366
20
148.228492
11
121.910747
21
146.360516
0
LINE
8
Layer 1
10
121.910747
20
146.360516
11
120.621049
21
144.655771
0
LINE
8
Layer 1
10
120.621049
20
144.655771
11
119.629016
21
143.618348
0
LINE
8
Layer 1
10
119.629016
20
143.618348
11
119.011803
21
143.048658
0
LINE
8
Layer 1
10
119.011803
20
143.048658
11
118.661612
21
142.517190
0
LINE
8
Layer 1
10
118.661612
20
142.517190
11
118.305064
21
142.049344
0
LINE
8
Layer 1
10
118.305064
20
142.049344
11
117.515347
21
141.429760
0
LINE
8
Layer 1
10
117.515347
20
141.429760
11
114.861098
21
139.855236
0
LINE
8
Layer 1
10
114.861098
20
139.855236
11
111.148245
21
138.033336
0
LINE
8
Layer 1
10
111.148245
20
138.033336
11
106.826169
21
136.203775
0
LINE
8
Layer 1
10
106.826169
20
136.203775
11
104.258725
21
135.075211
0
LINE
8
Layer 1
10
104.258725
20
135.075211
11
102.835162
21
134.222013
0
LINE
8
Layer 1
10
102.835162
20
134.222013
11
102.085176
21
133.699957
0
LINE
8
Layer 1
10
102.085176
20
133.699957
11
101.137187
21
133.367540
0
LINE
8
Layer 1
10
101.137187
20
133.367540
11
100.064532
21
133.100616
0
LINE
8
Layer 1
10
100.064532
20
133.100616
11
99.142277
21
132.661480
0
LINE
8
Layer 1
10
99.142277
20
132.661480
11
98.184353
21
131.934755
0
LINE
8
Layer 1
10
98.184353
20
131.934755
11
97.004691
21
130.805064
0
LINE
8
Layer 1
10
97.004691
20
130.805064
11
94.826802
21
128.213703
0
LINE
8
Layer 1
10
94.826802
20
128.213703
11
93.100489
21
125.279548
0
LINE
8
Layer 1
10
93.100489
20
125.279548
11
91.785818
21
121.919946
0
LINE
8
Layer 1
10
91.785818
20
121.919946
11
90.842854
21
118.052243
0
LINE
8
Layer 1
10
90.842854
20
118.052243
11
90.659611
21
116.042738
0
LINE
8
Layer 1
10
90.659611
20
116.042738
11
90.686447
21
113.528179
0
LINE
8
Layer 1
10
90.686447
20
113.528179
11
90.900109
21
110.996446
0
LINE
8
Layer 1
10
90.900109
20
110.996446
11
91.277347
21
108.935418
0
LINE
8
Layer 1
10
91.277347
20
108.935418
11
92.275315
21
105.935545
0
LINE
8
Layer 1
10
92.275315
20
105.935545
11
93.193297
21
103.965053
0
LINE
8
Layer 1
10
93.193297
20
103.965053
11
93.754228
21
103.629667
0
LINE
8
Layer 1
10
93.754228
20
103.629667
11
94.554335
21
103.683307
0
LINE
8
Layer 1
10
94.554335
20
103.683307
11
95.586135
21
104.123953
0
LINE
8
Layer 1
10
95.586135
20
104.123953
11
96.842148
21
104.949588
0
LINE
8
Layer 1
10
96.842148
20
104.949588
11
98.374190
21
105.909825
0
LINE
8
Layer 1
10
98.374190
20
105.909825
11
100.037730
21
106.525798
0
LINE
8
Layer 1
10
100.037730
20
106.525798
11
102.077926
21
106.860432
0
LINE
8
Layer 1
10
102.077926
20
106.860432
11
104.739934
21
106.976647
0
LINE
8
Layer 1
10
104.739934
20
106.976647
11
106.715297
21
106.893636
0
LINE
8
Layer 1
10
106.715297
20
106.893636
11
108.289243
21
106.575356
0
LINE
8
Layer 1
10
108.289243
20
106.575356
11
109.596711
21
105.978973
0
LINE
8
Layer 1
10
109.596711
20
105.978973
11
110.772640
21
105.061653
0
LINE
8
Layer 1
10
110.772640
20
105.061653
11
112.665767
21
103.522391
0
LINE
8
Layer 1
10
112.665767
20
103.522391
11
114.134471
21
103.094523
0
LINE
8
Layer 1
10
114.134471
20
103.094523
11
116.769664
21
102.717588
0
LINE
8
Layer 1
10
116.769664
20
102.717588
11
120.019348
21
102.451865
0
LINE
8
Layer 1
10
120.019348
20
102.451865
11
123.331529
21
102.357637
0
LINE
8
Layer 1
10
123.331529
20
102.357637
11
133.472303
21
102.738093
0
LINE
8
Layer 1
10
133.472303
20
102.738093
11
141.111529
21
103.320935
0
LINE
8
Layer 1
10
141.111529
20
103.320935
11
144.639307
21
103.767918
0
LINE
8
Layer 1
10
144.639307
20
103.767918
11
147.112997
21
104.084465
0
LINE
8
Layer 1
10
147.112997
20
104.084465
11
149.860518
21
104.664161
0
LINE
8
Layer 1
10
149.860518
20
104.664161
11
152.794627
21
105.485492
0
LINE
8
Layer 1
10
152.794627
20
105.485492
11
155.828083
21
106.526945
0
LINE
8
Layer 1
10
155.828083
20
106.526945
11
158.384098
21
107.649237
0
LINE
8
Layer 1
10
158.384098
20
107.649237
11
160.782054
21
109.049796
0
LINE
8
Layer 1
10
160.782054
20
109.049796
11
163.065354
21
110.757441
0
LINE
8
Layer 1
10
163.065354
20
110.757441
11
165.277402
21
112.800991
0
LINE
8
Layer 1
10
165.277402
20
112.800991
11
166.592858
21
114.166111
0
LINE
8
Layer 1
10
166.592858
20
114.166111
11
167.333938
21
115.111741
0
LINE
8
Layer 1
10
167.333938
20
115.111741
11
167.746982
21
116.037261
0
LINE
8
Layer 1
10
167.746982
20
116.037261
11
168.078328
21
117.342054
0
LINE
8
Layer 1
10
168.078328
20
117.342054
11
168.489237
21
120.694555
0
LINE
8
Layer 1
10
168.489237
20
120.694555
11
168.629370
21
125.210944
0
LINE
8
Layer 1
10
168.629370
20
125.210944
11
168.497651
21
129.733498
0
LINE
8
Layer 1
10
168.497651
20
129.733498
11
168.093001
21
133.104498
0
LINE
8
Layer 1
10
168.093001
20
133.104498
11
166.813319
21
138.532914
0
LINE
8
Layer 1
10
166.813319
20
138.532914
11
166.095372
21
140.770582
0
LINE
8
Layer 1
10
166.095372
20
140.770582
11
165.567724
21
142.276720
0
LINE
8
Layer 1
10
165.567724
20
142.276720
11
165.101969
21
143.860884
0
LINE
8
Layer 1
10
165.101969
20
143.860884
11
164.169078
21
146.235410
0
LINE
8
Layer 1
10
164.169078
20
146.235410
11
161.169991
21
152.718942
0
LINE
8
Layer 1
10
161.169991
20
152.718942
11
157.739951
21
159.318686
0
LINE
8
Layer 1
10
157.739951
20
159.318686
11
156.730862
21
160.861274
0
LINE
8
Layer 1
10
156.730862
20
160.861274
11
155.971881
21
161.609492
0
LINE
8
Layer 1
10
155.971881
20
161.609492
11
154.992802
21
162.508969
0
LINE
8
Layer 1
10
154.992802
20
162.508969
11
154.606248
21
163.480635
0
LINE
8
Layer 1
10
154.606248
20
163.480635
11
154.638659
21
163.954573
0
LINE
8
Layer 1
10
154.638659
20
163.954573
11
154.823391
21
164.399798
0
LINE
8
Layer 1
10
154.823391
20
164.399798
11
155.161840
21
164.800725
0
LINE
8
Layer 1
10
155.161840
20
164.800725
11
155.655402
21
165.141766
0
LINE
8
Layer 1
10
155.655402
20
165.141766
11
156.325525
21
165.353268
0
LINE
8
Layer 1
10
156.325525
20
165.353268
11
157.054834
21
165.271085
0
LINE
8
Layer 1
10
157.054834
20
165.271085
11
157.899044
21
164.878402
0
LINE
8
Layer 1
10
157.899044
20
164.878402
11
158.913870
21
164.158405
0
LINE
8
Layer 1
10
158.913870
20
164.158405
11
160.467350
21
163.163905
0
LINE
8
Layer 1
10
160.467350
20
163.163905
11
163.725403
21
160.832831
0
LINE
8
Layer 1
10
163.725403
20
160.832831
11
167.366771
21
157.863509
0
LINE
8
Layer 1
10
167.366771
20
157.863509
11
170.280119
21
155.160270
0
LINE
8
Layer 1
10
170.280119
20
155.160270
11
173.238373
21
151.943862
0
LINE
8
Layer 1
10
173.238373
20
151.943862
11
177.014460
21
147.435034
0
LINE
8
Layer 1
10
177.014460
20
147.435034
11
178.364862
21
145.953869
0
LINE
8
Layer 1
10
178.364862
20
145.953869
11
179.313786
21
147.225258
0
LINE
8
Layer 1
10
179.313786
20
147.225258
11
180.349724
21
148.474337
0
LINE
8
Layer 1
10
180.349724
20
148.474337
11
181.456503
21
149.174242
0
LINE
8
Layer 1
10
181.456503
20
149.174242
11
181.989986
21
149.300950
0
LINE
8
Layer 1
10
181.989986
20
149.300950
11
182.485413
21
149.269599
0
LINE
8
Layer 1
10
182.485413
20
149.269599
11
182.924197
21
149.073267
0
LINE
8
Layer 1
10
182.924197
20
149.073267
11
183.287749
21
148.705034
0
LINE
8
Layer 1
10
183.287749
20
148.705034
11
183.630966
21
147.895606
0
LINE
8
Layer 1
10
183.630966
20
147.895606
11
183.693127
21
146.867968
0
LINE
8
Layer 1
10
183.693127
20
146.867968
11
183.476054
21
145.648555
0
LINE
8
Layer 1
10
183.476054
20
145.648555
11
182.981569
21
144.263801
0
LINE
8
Layer 1
10
182.981569
20
144.263801
11
182.507781
21
142.997016
0
LINE
8
Layer 1
10
182.507781
20
142.997016
11
182.415567
21
142.365276
0
LINE
8
Layer 1
10
182.415567
20
142.365276
11
183.127757
21
142.343115
0
LINE
8
Layer 1
10
183.127757
20
142.343115
11
184.587967
21
142.541916
0
LINE
8
Layer 1
10
184.587967
20
142.541916
11
186.106121
21
142.728513
0
LINE
8
Layer 1
10
186.106121
20
142.728513
11
187.364135
21
142.717462
0
LINE
8
Layer 1
10
187.364135
20
142.717462
11
188.262806
21
142.518425
0
LINE
8
Layer 1
10
188.262806
20
142.518425
11
188.702930
21
142.141067
0
LINE
8
Layer 1
10
188.702930
20
142.141067
11
188.530369
21
141.461339
0
LINE
8
Layer 1
10
188.530369
20
141.461339
11
187.918727
21
140.325395
0
LINE
8
Layer 1
10
187.918727
20
140.325395
11
187.100541
21
139.114848
0
LINE
8
Layer 1
10
187.100541
20
139.114848
11
186.308345
21
138.211312
0
LINE
8
Layer 1
10
186.308345
20
138.211312
11
185.836171
21
137.680788
0
LINE
8
Layer 1
10
185.836171
20
137.680788
11
185.752723
21
137.266342
0
LINE
8
Layer 1
10
185.752723
20
137.266342
11
186.060244
21
136.960772
0
LINE
8
Layer 1
10
186.060244
20
136.960772
11
186.760973
21
136.756877
0
LINE
8
Layer 1
10
186.760973
20
136.756877
11
188.565812
21
136.341658
0
LINE
8
Layer 1
10
188.565812
20
136.341658
11
190.021370
21
135.807329
0
LINE
8
Layer 1
10
190.021370
20
135.807329
11
190.993257
21
135.216196
0
LINE
8
Layer 1
10
190.993257
20
135.216196
11
191.347084
21
134.630569
0
LINE
8
Layer 1
10
191.347084
20
134.630569
11
191.123008
21
133.887481
0
LINE
8
Layer 1
10
191.123008
20
133.887481
11
190.518086
21
133.050263
0
LINE
8
Layer 1
10
190.518086
20
133.050263
11
189.633277
21
132.231164
0
LINE
8
Layer 1
10
189.633277
20
132.231164
11
188.569541
21
131.542432
0
LINE
8
Layer 1
10
188.569541
20
131.542432
11
187.353962
21
130.813486
0
LINE
8
Layer 1
10
187.353962
20
130.813486
11
187.376982
21
130.620677
0
LINE
8
Layer 1
10
187.376982
20
130.620677
11
187.722874
21
130.411897
0
LINE
8
Layer 1
10
187.722874
20
130.411897
11
189.052295
21
129.482339
0
LINE
8
Layer 1
10
189.052295
20
129.482339
11
189.432857
21
128.982069
0
LINE
8
Layer 1
10
189.432857
20
128.982069
11
189.623974
21
128.458215
0
LINE
8
Layer 1
10
189.623974
20
128.458215
11
189.625634
21
127.910834
0
LINE
8
Layer 1
10
189.625634
20
127.910834
11
189.437829
21
127.339981
0
LINE
8
Layer 1
10
189.437829
20
127.339981
11
188.493778
21
126.128089
0
LINE
8
Layer 1
10
188.493778
20
126.128089
11
187.561978
21
125.391969
0
LINE
8
Layer 1
10
187.561978
20
125.391969
11
186.950593
21
125.171683
0
LINE
8
Layer 1
10
186.950593
20
125.171683
11
186.486669
21
125.230725
0
LINE
8
Layer 1
10
186.486669
20
125.230725
11
186.473473
21
124.920196
0
LINE
8
Layer 1
10
186.473473
20
124.920196
11
186.879206
21
124.314330
0
LINE
8
Layer 1
10
186.879206
20
124.314330
11
187.672071
21
123.487361
0
LINE
8
Layer 1
10
187.672071
20
123.487361
11
188.863405
21
122.174434
0
LINE
8
Layer 1
10
188.863405
20
122.174434
11
189.048882
21
121.625745
0
LINE
8
Layer 1
10
189.048882
20
121.625745
11
189.089307
21
120.915921
0
LINE
8
Layer 1
10
189.089307
20
120.915921
11
189.063962
21
120.223501
0
LINE
8
Layer 1
10
189.063962
20
120.223501
11
188.940161
21
119.797667
0
LINE
8
Layer 1
10
188.940161
20
119.797667
11
188.646255
21
119.517282
0
LINE
8
Layer 1
10
188.646255
20
119.517282
11
188.110594
21
119.261207
0
LINE
8
Layer 1
10
188.110594
20
119.261207
11
187.152495
21
118.972399
0
LINE
8
Layer 1
10
187.152495
20
118.972399
11
186.223348
21
118.852275
0
LINE
8
Layer 1
10
186.223348
20
118.852275
11
185.314816
21
118.852275
0
LINE
8
Layer 1
10
185.314816
20
118.852275
11
186.073172
21
118.060721
0
LINE
8
Layer 1
10
186.073172
20
118.060721
11
186.747938
21
117.067448
0
LINE
8
Layer 1
10
186.747938
20
117.067448
11
186.834982
21
116.628805
0
LINE
8
Layer 1
10
186.834982
20
116.628805
11
186.758669
21
116.237065
0
LINE
8
Layer 1
10
186.758669
20
116.237065
11
186.521649
21
115.898409
0
LINE
8
Layer 1
10
186.521649
20
115.898409
11
186.126575
21
115.619017
0
LINE
8
Layer 1
10
186.126575
20
115.619017
11
184.872870
21
115.262747
0
LINE
8
Layer 1
10
184.872870
20
115.262747
11
184.149144
21
115.109778
0
LINE
8
Layer 1
10
184.149144
20
115.109778
11
183.905917
21
114.922127
0
LINE
8
Layer 1
10
183.905917
20
114.922127
11
184.143465
21
114.718836
0
LINE
8
Layer 1
10
184.143465
20
114.718836
11
184.862064
21
114.518945
0
LINE
8
Layer 1
10
184.862064
20
114.518945
11
185.670684
21
114.163859
0
LINE
8
Layer 1
10
185.670684
20
114.163859
11
186.658615
21
113.425194
0
LINE
8
Layer 1
10
186.658615
20
113.425194
11
188.934061
21
111.078859
0
LINE
8
Layer 1
10
188.934061
20
111.078859
11
191.211707
21
108.043399
0
LINE
8
Layer 1
10
191.211707
20
108.043399
11
193.014854
21
104.882275
0
LINE
8
Layer 1
10
193.014854
20
104.882275
11
194.074548
21
102.341722
0
LINE
8
Layer 1
10
194.074548
20
102.341722
11
195.308488
21
98.646420
0
LINE
8
Layer 1
10
195.308488
20
98.646420
11
195.793309
21
95.744158
0
LINE
8
Layer 1
10
195.793309
20
95.744158
11
196.083591
21
91.447827
0
LINE
8
Layer 1
10
196.083591
20
91.447827
11
196.130605
21
87.018089
0
LINE
8
Layer 1
10
196.130605
20
87.018089
11
195.885621
21
83.715609
0
LINE
8
Layer 1
10
195.885621
20
83.715609
11
195.085442
21
80.893387
0
LINE
8
Layer 1
10
195.085442
20
80.893387
11
193.319174
21
77.153576
0
LINE
8
Layer 1
10
193.319174
20
77.153576
11
191.449960
21
73.820266
0
LINE
8
Layer 1
10
191.449960
20
73.820266
11
190.684345
21
72.567831
0
LINE
8
Layer 1
10
190.684345
20
72.567831
11
189.941858
21
71.297831
0
LINE
8
Layer 1
10
189.941858
20
71.297831
11
188.964748
21
69.517570
0
LINE
8
Layer 1
10
188.964748
20
69.517570
11
187.967978
21
67.780670
0
LINE
8
Layer 1
10
187.967978
20
67.780670
11
187.594025
21
67.074054
0
LINE
8
Layer 1
10
187.594025
20
67.074054
11
187.418234
21
66.352119
0
LINE
8
Layer 1
10
187.418234
20
66.352119
11
187.453425
21
65.736794
0
LINE
8
Layer 1
10
187.453425
20
65.736794
11
187.712418
21
65.350012
0
LINE
8
Layer 1
10
187.712418
20
65.350012
11
192.721862
21
64.806466
0
LINE
8
Layer 1
10
192.721862
20
64.806466
11
196.619820
21
64.403971
0
LINE
8
Layer 1
10
196.619820
20
64.403971
11
199.397663
21
63.807736
0
LINE
8
Layer 1
10
199.397663
20
63.807736
11
201.369066
21
62.919731
0
LINE
8
Layer 1
10
201.369066
20
62.919731
11
202.847702
21
61.641925
0
LINE
8
Layer 1
10
202.847702
20
61.641925
11
204.035737
21
59.913882
0
LINE
8
Layer 1
10
204.035737
20
59.913882
11
204.706890
21
57.989542
0
LINE
8
Layer 1
10
204.706890
20
57.989542
11
204.860350
21
55.872878
0
LINE
8
Layer 1
10
204.860350
20
55.872878
11
204.495307
21
53.567863
0
LINE
8
Layer 1
10
204.495307
20
53.567863
11
203.696555
21
51.406276
0
LINE
8
Layer 1
10
203.696555
20
51.406276
11
202.443414
21
48.883027
0
LINE
8
Layer 1
10
202.443414
20
48.883027
11
201.054284
21
46.579725
0
LINE
8
Layer 1
10
201.054284
20
46.579725
11
199.847561
21
45.077978
0
LINE
8
Layer 1
10
199.847561
20
45.077978
11
199.425044
21
44.602879
0
LINE
8
Layer 1
10
199.425044
20
44.602879
11
199.249307
21
44.215586
0
LINE
8
Layer 1
10
199.249307
20
44.215586
11
198.520899
21
42.918772
0
LINE
8
Layer 1
10
198.520899
20
42.918772
11
196.827168
21
40.047974
0
LINE
8
Layer 1
10
196.827168
20
40.047974
11
196.015638
21
38.058036
0
LINE
8
Layer 1
10
196.015638
20
38.058036
11
195.735756
21
35.752862
0
LINE
8
Layer 1
10
195.735756
20
35.752862
11
195.568738
21
33.912769
0
LINE
8
Layer 1
10
195.568738
20
33.912769
11
195.344243
21
32.853830
0
LINE
8
Layer 1
10
195.344243
20
32.853830
11
194.616203
21
30.489560
0
LINE
8
Layer 1
10
194.616203
20
30.489560
11
194.016949
21
27.271164
0
LINE
8
Layer 1
10
194.016949
20
27.271164
11
193.269342
21
23.037831
0
LINE
8
Layer 1
10
193.269342
20
23.037831
11
192.444706
21
19.140686
0
LINE
8
Layer 1
10
192.444706
20
19.140686
11
191.969602
21
17.720044
0
LINE
8
Layer 1
10
191.969602
20
17.720044
11
191.141236
21
15.868854
0
LINE
8
Layer 1
10
191.141236
20
15.868854
11
190.208888
21
14.099680
0
LINE
8
Layer 1
10
190.208888
20
14.099680
11
189.421838
21
12.925089
0
LINE
8
Layer 1
10
189.421838
20
12.925089
11
188.911154
21
12.497948
0
LINE
8
Layer 1
10
188.911154
20
12.497948
11
188.101129
21
12.057551
0
LINE
8
Layer 1
10
188.101129
20
12.057551
11
185.279307
21
10.995505
0
LINE
8
Layer 1
10
185.279307
20
10.995505
11
183.532331
21
10.583656
0
LINE
8
Layer 1
10
183.532331
20
10.583656
11
181.631409
21
10.603735
0
LINE
8
Layer 1
10
181.631409
20
10.603735
11
180.139649
21
10.816623
0
LINE
8
Layer 1
10
180.139649
20
10.816623
11
179.297784
21
11.088915
0
LINE
8
Layer 1
10
179.297784
20
11.088915
11
178.889160
21
11.233514
0
LINE
8
Layer 1
10
178.889160
20
11.233514
11
178.403944
21
10.937646
0
LINE
8
Layer 1
10
178.403944
20
10.937646
11
177.299325
21
10.246704
0
LINE
8
Layer 1
10
177.299325
20
10.246704
11
175.690973
21
9.637419
0
LINE
8
Layer 1
10
175.690973
20
9.637419
11
173.778891
21
9.170911
0
LINE
8
Layer 1
10
173.778891
20
9.170911
11
171.763083
21
8.908296
0
LINE
8
Layer 1
10
171.763083
20
8.908296
11
169.231837
21
8.877556
0
LINE
8
Layer 1
10
169.231837
20
8.877556
11
168.292699
21
9.122049
0
LINE
8
Layer 1
10
168.292699
20
9.122049
11
167.060152
21
9.616773
0
LINE
8
Layer 1
10
167.060152
20
9.616773
11
163.942065
21
11.208774
0
LINE
8
Layer 1
10
163.942065
20
11.208774
11
162.907311
21
11.738257
0
LINE
8
Layer 1
10
162.907311
20
11.738257
11
161.817979
21
11.732872
0
LINE
8
Layer 1
10
161.817979
20
11.732872
11
160.639929
21
11.688136
0
LINE
8
Layer 1
10
160.639929
20
11.688136
11
159.124241
21
11.859574
0
LINE
8
Layer 1
10
159.124241
20
11.859574
11
155.395064
21
12.798685
0
LINE
8
Layer 1
10
155.395064
20
12.798685
11
154.316113
21
13.186638
0
LINE
8
Layer 1
10
154.316113
20
13.186638
11
153.547127
21
13.602288
0
LINE
8
Layer 1
10
153.547127
20
13.602288
11
152.876338
21
14.193766
0
LINE
8
Layer 1
10
152.876338
20
14.193766
11
152.091980
21
15.109204
0
LINE
8
Layer 1
10
152.091980
20
15.109204
11
151.107747
21
16.458525
0
LINE
8
Layer 1
10
151.107747
20
16.458525
11
150.649556
21
17.344379
0
LINE
8
Layer 1
10
150.649556
20
17.344379
11
150.466171
21
17.797954
0
LINE
8
Layer 1
10
150.466171
20
17.797954
11
150.142640
21
18.107968
0
LINE
8
Layer 1
10
150.142640
20
18.107968
11
148.600754
21
18.752417
0
LINE
8
Layer 1
10
148.600754
20
18.752417
11
147.091550
21
19.098435
0
LINE
8
Layer 1
10
147.091550
20
19.098435
11
144.145260
21
19.961101
0
LINE
8
Layer 1
10
144.145260
20
19.961101
11
142.375565
21
20.638942
0
LINE
8
Layer 1
10
142.375565
20
20.638942
11
142.340725
21
17.040609
0
LINE
8
Layer 1
10
142.340725
20
17.040609
11
142.236748
21
13.887354
0
LINE
8
Layer 1
10
142.236748
20
13.887354
11
141.814578
21
12.031164
0
LINE
8
Layer 1
10
141.814578
20
12.031164
11
140.916924
21
10.118125
0
LINE
8
Layer 1
10
140.916924
20
10.118125
11
139.805878
21
8.726453
0
LINE
8
Layer 1
10
139.805878
20
8.726453
11
138.354296
21
7.738061
0
LINE
8
Layer 1
10
138.354296
20
7.738061
11
136.435033
21
7.034863
0
LINE
8
Layer 1
10
136.435033
20
7.034863
11
134.921696
21
6.745972
0
LINE
8
Layer 1
10
134.921696
20
6.745972
11
133.229827
21
6.604914
0
LINE
8
Layer 1
10
133.229827
20
6.604914
11
131.695001
21
6.624338
0
LINE
8
Layer 1
10
131.695001
20
6.624338
11
130.652791
21
6.816894
0
LINE
8
Layer 1
10
130.652791
20
6.816894
11
130.172270
21
6.973395
0
LINE
8
Layer 1
10
130.172270
20
6.973395
11
129.764023
21
6.930295
0
LINE
8
Layer 1
10
129.764023
20
6.930295
11
128.528530
21
6.001123
0
LINE
8
Layer 1
10
128.528530
20
6.001123
11
127.321128
21
5.132322
0
LINE
8
Layer 1
10
127.321128
20
5.132322
11
126.259711
21
4.668173
0
LINE
8
Layer 1
10
126.259711
20
4.668173
11
125.156279
21
4.254365
0
LINE
8
Layer 1
10
125.156279
20
4.254365
11
124.205547
21
3.922037
0
LINE
8
Layer 1
10
124.205547
20
3.922037
11
122.223125
21
3.701271
0
LINE
8
Layer 1
10
122.223125
20
3.701271
11
119.818971
21
3.632349
0
LINE
8
Layer 1
10
119.818971
20
3.632349
11
117.603041
21
3.755551
0
LINE
8
Layer 1
10
117.603041
20
3.755551
11
117.603041
21
3.755551
0
LINE
8
Layer 1
10
125.730418
20
7.654346
11
127.104905
21
8.432547
0
LINE
8
Layer 1
10
127.104905
20
8.432547
11
128.321579
21
9.359926
0
LINE
8
Layer 1
10
128.321579
20
9.359926
11
129.379773
21
10.435894
0
LINE
8
Layer 1
10
129.379773
20
10.435894
11
130.278818
21
11.659862
0
LINE
8
Layer 1
10
130.278818
20
11.659862
11
130.675924
21
12.377688
0
LINE
8
Layer 1
10
130.675924
20
12.377688
11
130.923785
21
13.125939
0
LINE
8
Layer 1
10
130.923785
20
13.125939
11
131.161578
21
15.550196
0
LINE
8
Layer 1
10
131.161578
20
15.550196
11
131.345634
21
17.678864
0
LINE
8
Layer 1
10
131.345634
20
17.678864
11
131.612713
21
19.019478
0
LINE
8
Layer 1
10
131.612713
20
19.019478
11
131.963941
21
19.589243
0
LINE
8
Layer 1
10
131.963941
20
19.589243
11
132.410768
21
19.922563
0
LINE
8
Layer 1
10
132.410768
20
19.922563
11
132.896380
21
19.994729
0
LINE
8
Layer 1
10
132.896380
20
19.994729
11
133.363962
21
19.781035
0
LINE
8
Layer 1
10
133.363962
20
19.781035
11
133.620774
21
19.213550
0
LINE
8
Layer 1
10
133.620774
20
19.213550
11
133.752422
21
18.154007
0
LINE
8
Layer 1
10
133.752422
20
18.154007
11
133.690488
21
15.193635
0
LINE
8
Layer 1
10
133.690488
20
15.193635
11
133.278680
21
12.169690
0
LINE
8
Layer 1
10
133.278680
20
12.169690
11
132.972986
21
11.030681
0
LINE
8
Layer 1
10
132.972986
20
11.030681
11
132.617518
21
10.351942
0
LINE
8
Layer 1
10
132.617518
20
10.351942
11
132.400141
21
10.043125
0
LINE
8
Layer 1
10
132.400141
20
10.043125
11
132.428217
21
9.808966
0
LINE
8
Layer 1
10
132.428217
20
9.808966
11
133.279862
21
9.487442
0
LINE
8
Layer 1
10
133.279862
20
9.487442
11
134.473804
21
9.563468
0
LINE
8
Layer 1
10
134.473804
20
9.563468
11
136.144828
21
9.978605
0
LINE
8
Layer 1
10
136.144828
20
9.978605
11
137.780857
21
10.576059
0
LINE
8
Layer 1
10
137.780857
20
10.576059
11
138.869818
21
11.199038
0
LINE
8
Layer 1
10
138.869818
20
11.199038
11
139.494035
21
12.083662
0
LINE
8
Layer 1
10
139.494035
20
12.083662
11
139.970010
21
13.415780
0
LINE
8
Layer 1
10
139.970010
20
13.415780
11
140.268528
21
15.082281
0
LINE
8
Layer 1
10
140.268528
20
15.082281
11
140.360375
21
16.970053
0
LINE
8
Layer 1
10
140.360375
20
16.970053
11
140.113089
21
19.505789
0
LINE
8
Layer 1
10
140.113089
20
19.505789
11
139.435082
21
21.629799
0
LINE
8
Layer 1
10
139.435082
20
21.629799
11
138.333243
21
23.327289
0
LINE
8
Layer 1
10
138.333243
20
23.327289
11
137.625539
21
24.011466
0
LINE
8
Layer 1
10
137.625539
20
24.011466
11
136.814461
21
24.583466
0
LINE
8
Layer 1
10
136.814461
20
24.583466
11
133.987400
21
26.439899
0
LINE
8
Layer 1
10
133.987400
20
26.439899
11
131.082734
21
28.896815
0
LINE
8
Layer 1
10
131.082734
20
28.896815
11
128.536692
21
31.391827
0
LINE
8
Layer 1
10
128.536692
20
31.391827
11
126.312512
21
33.998645
0
LINE
8
Layer 1
10
126.312512
20
33.998645
11
124.410660
21
36.716663
0
LINE
8
Layer 1
10
124.410660
20
36.716663
11
122.831606
21
39.545277
0
LINE
8
Layer 1
10
122.831606
20
39.545277
11
121.872181
21
41.643693
0
LINE
8
Layer 1
10
121.872181
20
41.643693
11
121.314769
21
43.447530
0
LINE
8
Layer 1
10
121.314769
20
43.447530
11
121.027321
21
45.570539
0
LINE
8
Layer 1
10
121.027321
20
45.570539
11
120.877790
21
48.626471
0
LINE
8
Layer 1
10
120.877790
20
48.626471
11
120.807826
21
52.160167
0
LINE
8
Layer 1
10
120.807826
20
52.160167
11
120.921159
21
54.415817
0
LINE
8
Layer 1
10
120.921159
20
54.415817
11
121.270311
21
55.807648
0
LINE
8
Layer 1
10
121.270311
20
55.807648
11
121.907805
21
56.749885
0
LINE
8
Layer 1
10
121.907805
20
56.749885
11
122.679672
21
57.374600
0
LINE
8
Layer 1
10
122.679672
20
57.374600
11
123.409323
21
57.618060
0
LINE
8
Layer 1
10
123.409323
20
57.618060
11
123.995726
21
57.472731
0
LINE
8
Layer 1
10
123.995726
20
57.472731
11
124.337854
21
56.931080
0
LINE
8
Layer 1
10
124.337854
20
56.931080
11
124.340905
21
56.256965
0
LINE
8
Layer 1
10
124.340905
20
56.256965
11
124.079593
21
55.590525
0
LINE
8
Layer 1
10
124.079593
20
55.590525
11
123.721067
21
54.621422
0
LINE
8
Layer 1
10
123.721067
20
54.621422
11
123.461043
21
53.220479
0
LINE
8
Layer 1
10
123.461043
20
53.220479
11
123.271164
21
51.512018
0
LINE
8
Layer 1
10
123.271164
20
51.512018
11
125.065234
21
51.144063
0
LINE
8
Layer 1
10
125.065234
20
51.144063
11
130.260011
21
50.276268
0
LINE
8
Layer 1
10
130.260011
20
50.276268
11
135.329710
21
49.807008
0
LINE
8
Layer 1
10
135.329710
20
49.807008
11
140.052291
21
49.748254
0
LINE
8
Layer 1
10
140.052291
20
49.748254
11
144.205712
21
50.111979
0
LINE
8
Layer 1
10
144.205712
20
50.111979
11
150.368874
21
51.284178
0
LINE
8
Layer 1
10
150.368874
20
51.284178
11
152.971905
21
51.996424
0
LINE
8
Layer 1
10
152.971905
20
51.996424
11
155.504862
21
52.853167
0
LINE
8
Layer 1
10
155.504862
20
52.853167
11
156.673882
21
53.449933
0
LINE
8
Layer 1
10
156.673882
20
53.449933
11
158.097412
21
54.373204
0
LINE
8
Layer 1
10
158.097412
20
54.373204
11
159.702181
21
55.528989
0
LINE
8
Layer 1
10
159.702181
20
55.528989
11
159.014634
21
56.739440
0
LINE
8
Layer 1
10
159.014634
20
56.739440
11
158.325346
21
58.273860
0
LINE
8
Layer 1
10
158.325346
20
58.273860
11
157.912565
21
59.385863
0
LINE
8
Layer 1
10
157.912565
20
59.385863
11
157.313060
21
61.220308
0
LINE
8
Layer 1
10
157.313060
20
61.220308
11
156.906968
21
62.548942
0
LINE
8
Layer 1
10
156.906968
20
62.548942
11
156.612711
21
63.641400
0
LINE
8
Layer 1
10
156.612711
20
63.641400
11
156.343545
21
65.825770
0
LINE
8
Layer 1
10
156.343545
20
65.825770
11
156.071401
21
71.438942
0
LINE
8
Layer 1
10
156.071401
20
71.438942
11
156.128264
21
73.732815
0
LINE
8
Layer 1
10
156.128264
20
73.732815
11
156.340044
21
76.255825
0
LINE
8
Layer 1
10
156.340044
20
76.255825
11
157.479563
21
84.280053
0
LINE
8
Layer 1
10
157.479563
20
84.280053
11
158.205317
21
88.286852
0
LINE
8
Layer 1
10
158.205317
20
88.286852
11
158.800427
21
90.488942
0
LINE
8
Layer 1
10
158.800427
20
90.488942
11
159.722817
21
92.374926
0
LINE
8
Layer 1
10
159.722817
20
92.374926
11
160.225575
21
93.262618
0
LINE
8
Layer 1
10
160.225575
20
93.262618
11
160.700129
21
93.769120
0
LINE
8
Layer 1
10
160.700129
20
93.769120
11
161.163399
21
93.906039
0
LINE
8
Layer 1
10
161.163399
20
93.906039
11
161.632302
21
93.684985
0
LINE
8
Layer 1
10
161.632302
20
93.684985
11
161.852980
21
93.153338
0
LINE
8
Layer 1
10
161.852980
20
93.153338
11
161.881943
21
92.258576
0
LINE
8
Layer 1
10
161.881943
20
92.258576
11
161.734688
21
91.249999
0
LINE
8
Layer 1
10
161.734688
20
91.249999
11
161.426706
21
90.376908
0
LINE
8
Layer 1
10
161.426706
20
90.376908
11
160.884949
21
88.721660
0
LINE
8
Layer 1
10
160.884949
20
88.721660
11
160.183721
21
85.839415
0
LINE
8
Layer 1
10
160.183721
20
85.839415
11
159.094269
21
79.936492
0
LINE
8
Layer 1
10
159.094269
20
79.936492
11
158.765494
21
75.073949
0
LINE
8
Layer 1
10
158.765494
20
75.073949
11
158.803968
21
70.047278
0
LINE
8
Layer 1
10
158.803968
20
70.047278
11
159.179554
21
65.549724
0
LINE
8
Layer 1
10
159.179554
20
65.549724
11
159.484346
21
63.716006
0
LINE
8
Layer 1
10
159.484346
20
63.716006
11
159.862114
21
62.274535
0
LINE
8
Layer 1
10
159.862114
20
62.274535
11
161.171945
21
59.129428
0
LINE
8
Layer 1
10
161.171945
20
59.129428
11
161.933149
21
57.820581
0
LINE
8
Layer 1
10
161.933149
20
57.820581
11
162.786706
21
56.661644
0
LINE
8
Layer 1
10
162.786706
20
56.661644
11
163.748735
21
55.633195
0
LINE
8
Layer 1
10
163.748735
20
55.633195
11
164.835358
21
54.715813
0
LINE
8
Layer 1
10
164.835358
20
54.715813
11
167.446861
21
53.136566
0
LINE
8
Layer 1
10
167.446861
20
53.136566
11
169.727683
21
52.124461
0
LINE
8
Layer 1
10
169.727683
20
52.124461
11
171.762407
21
51.490671
0
LINE
8
Layer 1
10
171.762407
20
51.490671
11
173.733858
21
51.192672
0
LINE
8
Layer 1
10
173.733858
20
51.192672
11
175.824862
21
51.187943
0
LINE
8
Layer 1
10
175.824862
20
51.187943
11
177.875607
21
51.450861
0
LINE
8
Layer 1
10
177.875607
20
51.450861
11
179.807337
21
52.056801
0
LINE
8
Layer 1
10
179.807337
20
52.056801
11
181.875674
21
53.111912
0
LINE
8
Layer 1
10
181.875674
20
53.111912
11
184.336241
21
54.722341
0
LINE
8
Layer 1
10
184.336241
20
54.722341
11
185.353240
21
55.615228
0
LINE
8
Layer 1
10
185.353240
20
55.615228
11
185.937054
21
56.465332
0
LINE
8
Layer 1
10
185.937054
20
56.465332
11
186.341138
21
57.177326
0
LINE
8
Layer 1
10
186.341138
20
57.177326
11
186.910907
21
57.736667
0
LINE
8
Layer 1
10
186.910907
20
57.736667
11
187.469492
21
57.980563
0
LINE
8
Layer 1
10
187.469492
20
57.980563
11
187.990244
21
58.008820
0
LINE
8
Layer 1
10
187.990244
20
58.008820
11
188.374817
21
57.837028
0
LINE
8
Layer 1
10
188.374817
20
57.837028
11
188.524862
21
57.480781
0
LINE
8
Layer 1
10
188.524862
20
57.480781
11
188.305146
21
56.762333
0
LINE
8
Layer 1
10
188.305146
20
56.762333
11
187.748086
21
55.715530
0
LINE
8
Layer 1
10
187.748086
20
55.715530
11
186.234465
21
53.658942
0
LINE
8
Layer 1
10
186.234465
20
53.658942
11
183.750139
21
51.517440
0
LINE
8
Layer 1
10
183.750139
20
51.517440
11
182.529289
21
50.633379
0
LINE
8
Layer 1
10
182.529289
20
50.633379
11
181.839757
21
50.272275
0
LINE
8
Layer 1
10
181.839757
20
50.272275
11
181.285951
21
50.044747
0
LINE
8
Layer 1
10
181.285951
20
50.044747
11
180.914731
21
49.230441
0
LINE
8
Layer 1
10
180.914731
20
49.230441
11
180.676168
21
47.631774
0
LINE
8
Layer 1
10
180.676168
20
47.631774
11
180.520329
21
45.051164
0
LINE
8
Layer 1
10
180.520329
20
45.051164
11
180.247554
21
41.282487
0
LINE
8
Layer 1
10
180.247554
20
41.282487
11
179.671613
21
38.983387
0
LINE
8
Layer 1
10
179.671613
20
38.983387
11
178.517341
21
36.083462
0
LINE
8
Layer 1
10
178.517341
20
36.083462
11
177.945630
21
35.270311
0
LINE
8
Layer 1
10
177.945630
20
35.270311
11
176.969248
21
34.151703
0
LINE
8
Layer 1
10
176.969248
20
34.151703
11
176.297492
21
33.462966
0
LINE
8
Layer 1
10
176.297492
20
33.462966
11
175.592926
21
32.935251
0
LINE
8
Layer 1
10
175.592926
20
32.935251
11
173.494367
21
31.996304
0
LINE
8
Layer 1
10
173.494367
20
31.996304
11
169.738513
21
30.898717
0
LINE
8
Layer 1
10
169.738513
20
30.898717
11
165.382640
21
30.085053
0
LINE
8
Layer 1
10
165.382640
20
30.085053
11
163.265973
21
29.663082
0
LINE
8
Layer 1
10
163.265973
20
29.663082
11
159.796660
21
28.591375
0
LINE
8
Layer 1
10
159.796660
20
28.591375
11
158.200084
21
27.945376
0
LINE
8
Layer 1
10
158.200084
20
27.945376
11
157.523595
21
27.694498
0
LINE
8
Layer 1
10
157.523595
20
27.694498
11
156.780715
21
27.373532
0
LINE
8
Layer 1
10
156.780715
20
27.373532
11
155.747020
21
26.543142
0
LINE
8
Layer 1
10
155.747020
20
26.543142
11
154.638487
21
25.402085
0
LINE
8
Layer 1
10
154.638487
20
25.402085
11
153.671092
21
24.149121
0
LINE
8
Layer 1
10
153.671092
20
24.149121
11
152.829527
21
22.640440
0
LINE
8
Layer 1
10
152.829527
20
22.640440
11
152.739184
21
22.077901
0
LINE
8
Layer 1
10
152.739184
20
22.077901
11
152.800236
21
21.427945
0
LINE
8
Layer 1
10
152.800236
20
21.427945
11
153.106630
21
20.466744
0
LINE
8
Layer 1
10
153.106630
20
20.466744
11
153.608343
21
19.778472
0
LINE
8
Layer 1
10
153.608343
20
19.778472
11
154.063271
21
19.250835
0
LINE
8
Layer 1
10
154.063271
20
19.250835
11
153.873276
21
18.671495
0
LINE
8
Layer 1
10
153.873276
20
18.671495
11
153.657380
21
18.082470
0
LINE
8
Layer 1
10
153.657380
20
18.082470
11
153.912186
21
17.506609
0
LINE
8
Layer 1
10
153.912186
20
17.506609
11
154.590135
21
16.781096
0
LINE
8
Layer 1
10
154.590135
20
16.781096
11
155.535695
21
16.062723
0
LINE
8
Layer 1
10
155.535695
20
16.062723
11
156.561557
21
15.475532
0
LINE
8
Layer 1
10
156.561557
20
15.475532
11
157.480418
21
15.143567
0
LINE
8
Layer 1
10
157.480418
20
15.143567
11
159.705254
21
14.536011
0
LINE
8
Layer 1
10
159.705254
20
14.536011
11
161.046315
21
14.232989
0
LINE
8
Layer 1
10
161.046315
20
14.232989
11
160.768386
21
15.606054
0
LINE
8
Layer 1
10
160.768386
20
15.606054
11
160.497835
21
16.823012
0
LINE
8
Layer 1
10
160.497835
20
16.823012
11
160.417064
21
18.038833
0
LINE
8
Layer 1
10
160.417064
20
18.038833
11
160.524544
21
19.248809
0
LINE
8
Layer 1
10
160.524544
20
19.248809
11
160.818748
21
20.448231
0
LINE
8
Layer 1
10
160.818748
20
20.448231
11
161.298148
21
21.632392
0
LINE
8
Layer 1
10
161.298148
20
21.632392
11
161.961215
21
22.796583
0
LINE
8
Layer 1
10
161.961215
20
22.796583
11
162.806422
21
23.936097
0
LINE
8
Layer 1
10
162.806422
20
23.936097
11
163.832241
21
25.046226
0
LINE
8
Layer 1
10
163.832241
20
25.046226
11
165.191860
21
26.248274
0
LINE
8
Layer 1
10
165.191860
20
26.248274
11
166.197696
21
26.816549
0
LINE
8
Layer 1
10
166.197696
20
26.816549
11
166.585078
21
26.868218
0
LINE
8
Layer 1
10
166.585078
20
26.868218
11
166.904574
21
26.767678
0
LINE
8
Layer 1
10
166.904574
20
26.767678
11
167.367317
21
26.118287
0
LINE
8
Layer 1
10
167.367317
20
26.118287
11
167.432218
21
25.428570
0
LINE
8
Layer 1
10
167.432218
20
25.428570
11
167.144316
21
24.681094
0
LINE
8
Layer 1
10
167.144316
20
24.681094
11
166.521856
21
23.906365
0
LINE
8
Layer 1
10
166.521856
20
23.906365
11
165.583083
21
23.134887
0
LINE
8
Layer 1
10
165.583083
20
23.134887
11
164.574971
21
22.355877
0
LINE
8
Layer 1
10
164.574971
20
22.355877
11
163.911303
21
21.623111
0
LINE
8
Layer 1
10
163.911303
20
21.623111
11
163.512351
21
20.821462
0
LINE
8
Layer 1
10
163.512351
20
20.821462
11
163.298386
21
19.835805
0
LINE
8
Layer 1
10
163.298386
20
19.835805
11
163.241894
21
18.320524
0
LINE
8
Layer 1
10
163.241894
20
18.320524
11
163.494218
21
16.941463
0
LINE
8
Layer 1
10
163.494218
20
16.941463
11
164.057156
21
15.692829
0
LINE
8
Layer 1
10
164.057156
20
15.692829
11
164.932507
21
14.568825
0
LINE
8
Layer 1
10
164.932507
20
14.568825
11
166.289136
21
13.452952
0
LINE
8
Layer 1
10
166.289136
20
13.452952
11
167.910978
21
12.667119
0
LINE
8
Layer 1
10
167.910978
20
12.667119
11
169.884730
21
12.180648
0
LINE
8
Layer 1
10
169.884730
20
12.180648
11
172.297084
21
11.962861
0
LINE
8
Layer 1
10
172.297084
20
11.962861
11
174.810535
21
11.978865
0
LINE
8
Layer 1
10
174.810535
20
11.978865
11
175.408823
21
12.163231
0
LINE
8
Layer 1
10
175.408823
20
12.163231
11
175.920437
21
12.519271
0
LINE
8
Layer 1
10
175.920437
20
12.519271
11
176.721567
21
13.175042
0
LINE
8
Layer 1
10
176.721567
20
13.175042
11
175.990992
21
14.772242
0
LINE
8
Layer 1
10
175.990992
20
14.772242
11
175.598539
21
15.854284
0
LINE
8
Layer 1
10
175.598539
20
15.854284
11
175.356264
21
17.039367
0
LINE
8
Layer 1
10
175.356264
20
17.039367
11
175.314538
21
19.635107
0
LINE
8
Layer 1
10
175.314538
20
19.635107
11
175.850389
21
22.392351
0
LINE
8
Layer 1
10
175.850389
20
22.392351
11
176.948392
21
25.143991
0
LINE
8
Layer 1
10
176.948392
20
25.143991
11
177.534692
21
25.974044
0
LINE
8
Layer 1
10
177.534692
20
25.974044
11
178.152125
21
26.312635
0
LINE
8
Layer 1
10
178.152125
20
26.312635
11
178.729642
21
26.149342
0
LINE
8
Layer 1
10
178.729642
20
26.149342
11
179.196193
21
25.473742
0
LINE
8
Layer 1
10
179.196193
20
25.473742
11
179.356067
21
24.480416
0
LINE
8
Layer 1
10
179.356067
20
24.480416
11
178.919863
21
22.863186
0
LINE
8
Layer 1
10
178.919863
20
22.863186
11
178.444858
21
21.006296
0
LINE
8
Layer 1
10
178.444858
20
21.006296
11
178.161798
21
19.070800
0
LINE
8
Layer 1
10
178.161798
20
19.070800
11
178.155047
21
17.230799
0
LINE
8
Layer 1
10
178.155047
20
17.230799
11
178.617273
21
15.899596
0
LINE
8
Layer 1
10
178.617273
20
15.899596
11
179.224648
21
15.008856
0
LINE
8
Layer 1
10
179.224648
20
15.008856
11
180.019097
21
14.332218
0
LINE
8
Layer 1
10
180.019097
20
14.332218
11
180.985338
21
13.871394
0
LINE
8
Layer 1
10
180.985338
20
13.871394
11
182.108090
21
13.628096
0
LINE
8
Layer 1
10
182.108090
20
13.628096
11
183.372071
21
13.604035
0
LINE
8
Layer 1
10
183.372071
20
13.604035
11
184.762000
21
13.800923
0
LINE
8
Layer 1
10
184.762000
20
13.800923
11
186.262595
21
14.220472
0
LINE
8
Layer 1
10
186.262595
20
14.220472
11
187.858575
21
14.864393
0
LINE
8
Layer 1
10
187.858575
20
14.864393
11
188.401459
21
15.273176
0
LINE
8
Layer 1
10
188.401459
20
15.273176
11
188.919693
21
15.995692
0
LINE
8
Layer 1
10
188.919693
20
15.995692
11
189.901127
21
18.444345
0
LINE
8
Layer 1
10
189.901127
20
18.444345
11
190.840709
21
22.335201
0
LINE
8
Layer 1
10
190.840709
20
22.335201
11
191.776268
21
27.793103
0
LINE
8
Layer 1
10
191.776268
20
27.793103
11
192.948365
21
33.437548
0
LINE
8
Layer 1
10
192.948365
20
33.437548
11
193.867919
21
37.431164
0
LINE
8
Layer 1
10
193.867919
20
37.431164
11
194.445083
21
39.688942
0
LINE
8
Layer 1
10
194.445083
20
39.688942
11
195.369423
21
41.805609
0
LINE
8
Layer 1
10
195.369423
20
41.805609
11
196.404088
21
43.655928
0
LINE
8
Layer 1
10
196.404088
20
43.655928
11
198.111308
21
46.321164
0
LINE
8
Layer 1
10
198.111308
20
46.321164
11
200.323752
21
49.807530
0
LINE
8
Layer 1
10
200.323752
20
49.807530
11
201.633046
21
52.483141
0
LINE
8
Layer 1
10
201.633046
20
52.483141
11
202.000020
21
53.651924
0
LINE
8
Layer 1
10
202.000020
20
53.651924
11
202.202416
21
54.780031
0
LINE
8
Layer 1
10
202.202416
20
54.780031
11
202.195089
21
57.130230
0
LINE
8
Layer 1
10
202.195089
20
57.130230
11
201.933328
21
58.631052
0
LINE
8
Layer 1
10
201.933328
20
58.631052
11
201.406653
21
59.735495
0
LINE
8
Layer 1
10
201.406653
20
59.735495
11
200.500006
21
60.601756
0
LINE
8
Layer 1
10
200.500006
20
60.601756
11
199.098326
21
61.388032
0
LINE
8
Layer 1
10
199.098326
20
61.388032
11
198.162760
21
61.777314
0
LINE
8
Layer 1
10
198.162760
20
61.777314
11
197.189031
21
62.026311
0
LINE
8
Layer 1
10
197.189031
20
62.026311
11
194.084372
21
62.291299
0
LINE
8
Layer 1
10
194.084372
20
62.291299
11
190.687600
21
62.587981
0
LINE
8
Layer 1
10
190.687600
20
62.587981
11
187.868273
21
63.103783
0
LINE
8
Layer 1
10
187.868273
20
63.103783
11
185.873069
21
63.777743
0
LINE
8
Layer 1
10
185.873069
20
63.777743
11
185.261600
21
64.154984
0
LINE
8
Layer 1
10
185.261600
20
64.154984
11
184.948666
21
64.548904
0
LINE
8
Layer 1
10
184.948666
20
64.548904
11
184.940918
21
65.400575
0
LINE
8
Layer 1
10
184.940918
20
65.400575
11
185.143779
21
66.782408
0
LINE
8
Layer 1
10
185.143779
20
66.782408
11
185.447073
21
68.105589
0
LINE
8
Layer 1
10
185.447073
20
68.105589
11
185.740624
21
68.781306
0
LINE
8
Layer 1
10
185.740624
20
68.781306
11
186.705689
21
70.259471
0
LINE
8
Layer 1
10
186.705689
20
70.259471
11
188.671378
21
73.273387
0
LINE
8
Layer 1
10
188.671378
20
73.273387
11
190.790680
21
76.466330
0
LINE
8
Layer 1
10
190.790680
20
76.466330
11
191.916018
21
78.752485
0
LINE
8
Layer 1
10
191.916018
20
78.752485
11
192.799708
21
81.254035
0
LINE
8
Layer 1
10
192.799708
20
81.254035
11
193.436891
21
83.918125
0
LINE
8
Layer 1
10
193.436891
20
83.918125
11
193.822705
21
86.691899
0
LINE
8
Layer 1
10
193.822705
20
86.691899
11
193.952289
21
89.522501
0
LINE
8
Layer 1
10
193.952289
20
89.522501
11
193.820783
21
92.357076
0
LINE
8
Layer 1
10
193.820783
20
92.357076
11
193.423326
21
95.142767
0
LINE
8
Layer 1
10
193.423326
20
95.142767
11
192.755057
21
97.826720
0
LINE
8
Layer 1
10
192.755057
20
97.826720
11
191.954957
21
100.507831
0
LINE
8
Layer 1
10
191.954957
20
100.507831
11
191.156116
21
102.680083
0
LINE
8
Layer 1
10
191.156116
20
102.680083
11
190.022554
21
105.151407
0
LINE
8
Layer 1
10
190.022554
20
105.151407
11
188.824421
21
107.377554
0
LINE
8
Layer 1
10
188.824421
20
107.377554
11
187.831868
21
108.814275
0
LINE
8
Layer 1
10
187.831868
20
108.814275
11
185.902930
21
110.908925
0
LINE
8
Layer 1
10
185.902930
20
110.908925
11
184.848292
21
111.849239
0
LINE
8
Layer 1
10
184.848292
20
111.849239
11
184.379973
21
112.029367
0
LINE
8
Layer 1
10
184.379973
20
112.029367
11
183.840272
21
112.078942
0
LINE
8
Layer 1
10
183.840272
20
112.078942
11
182.885825
21
112.306131
0
LINE
8
Layer 1
10
182.885825
20
112.306131
11
181.831907
21
112.898820
0
LINE
8
Layer 1
10
181.831907
20
112.898820
11
180.868268
21
113.723689
0
LINE
8
Layer 1
10
180.868268
20
113.723689
11
180.184654
21
114.647421
0
LINE
8
Layer 1
10
180.184654
20
114.647421
11
179.950193
21
115.358763
0
LINE
8
Layer 1
10
179.950193
20
115.358763
11
180.230949
21
115.989588
0
LINE
8
Layer 1
10
180.230949
20
115.989588
11
180.780607
21
116.547756
0
LINE
8
Layer 1
10
180.780607
20
116.547756
11
181.503975
21
117.035758
0
LINE
8
Layer 1
10
181.503975
20
117.035758
11
182.351045
21
117.473795
0
LINE
8
Layer 1
10
182.351045
20
117.473795
11
181.486844
21
118.357723
0
LINE
8
Layer 1
10
181.486844
20
118.357723
11
180.905148
21
119.141405
0
LINE
8
Layer 1
10
180.905148
20
119.141405
11
180.639082
21
119.916032
0
LINE
8
Layer 1
10
180.639082
20
119.916032
11
180.704318
21
120.570107
0
LINE
8
Layer 1
10
180.704318
20
120.570107
11
181.116529
21
120.992132
0
LINE
8
Layer 1
10
181.116529
20
120.992132
11
183.711929
21
121.375105
0
LINE
8
Layer 1
10
183.711929
20
121.375105
11
185.813443
21
121.533387
0
LINE
8
Layer 1
10
185.813443
20
121.533387
11
184.893994
21
122.578218
0
LINE
8
Layer 1
10
184.893994
20
122.578218
11
184.063207
21
123.371354
0
LINE
8
Layer 1
10
184.063207
20
123.371354
11
183.356925
21
123.811044
0
LINE
8
Layer 1
10
183.356925
20
123.811044
11
182.418373
21
124.284039
0
LINE
8
Layer 1
10
182.418373
20
124.284039
11
181.886812
21
124.965098
0
LINE
8
Layer 1
10
181.886812
20
124.965098
11
181.792893
21
125.780871
0
LINE
8
Layer 1
10
181.792893
20
125.780871
11
182.167268
21
126.658009
0
LINE
8
Layer 1
10
182.167268
20
126.658009
11
182.455838
21
126.952090
0
LINE
8
Layer 1
10
182.455838
20
126.952090
11
182.885889
21
127.167163
0
LINE
8
Layer 1
10
182.885889
20
127.167163
11
184.422076
21
127.448508
0
LINE
8
Layer 1
10
184.422076
20
127.448508
11
185.760665
21
127.651913
0
LINE
8
Layer 1
10
185.760665
20
127.651913
11
186.396452
21
127.864387
0
LINE
8
Layer 1
10
186.396452
20
127.864387
11
185.893546
21
128.250395
0
LINE
8
Layer 1
10
185.893546
20
128.250395
11
184.494421
21
128.871023
0
LINE
8
Layer 1
10
184.494421
20
128.871023
11
182.097934
21
129.939790
0
LINE
8
Layer 1
10
182.097934
20
129.939790
11
181.890828
21
130.248417
0
LINE
8
Layer 1
10
181.890828
20
130.248417
11
181.888713
21
130.646068
0
LINE
8
Layer 1
10
181.888713
20
130.646068
11
182.368355
21
131.549121
0
LINE
8
Layer 1
10
182.368355
20
131.549121
11
183.274660
21
132.330316
0
LINE
8
Layer 1
10
183.274660
20
132.330316
11
183.805874
21
132.575642
0
LINE
8
Layer 1
10
183.805874
20
132.575642
11
184.345428
21
132.671016
0
LINE
8
Layer 1
10
184.345428
20
132.671016
11
184.933030
21
132.761086
0
LINE
8
Layer 1
10
184.933030
20
132.761086
11
185.279307
21
132.963387
0
LINE
8
Layer 1
10
185.279307
20
132.963387
11
185.584132
21
133.166445
0
LINE
8
Layer 1
10
185.584132
20
133.166445
11
186.072074
21
133.258337
0
LINE
8
Layer 1
10
186.072074
20
133.258337
11
187.529081
21
133.628725
0
LINE
8
Layer 1
10
187.529081
20
133.628725
11
188.367743
21
133.986386
0
LINE
8
Layer 1
10
188.367743
20
133.986386
11
186.855628
21
134.480975
0
LINE
8
Layer 1
10
186.855628
20
134.480975
11
185.453291
21
134.804199
0
LINE
8
Layer 1
10
185.453291
20
134.804199
11
184.264977
21
134.793347
0
LINE
8
Layer 1
10
184.264977
20
134.793347
11
183.394953
21
134.712081
0
LINE
8
Layer 1
10
183.394953
20
134.712081
11
182.702505
21
134.787248
0
LINE
8
Layer 1
10
182.702505
20
134.787248
11
182.205428
21
135.014326
0
LINE
8
Layer 1
10
182.205428
20
135.014326
11
181.921517
21
135.388793
0
LINE
8
Layer 1
10
181.921517
20
135.388793
11
181.911986
21
136.032168
0
LINE
8
Layer 1
10
181.911986
20
136.032168
11
182.209947
21
136.850118
0
LINE
8
Layer 1
10
182.209947
20
136.850118
11
182.730413
21
137.672330
0
LINE
8
Layer 1
10
182.730413
20
137.672330
11
183.388401
21
138.328490
0
LINE
8
Layer 1
10
183.388401
20
138.328490
11
184.866082
21
139.810752
0
LINE
8
Layer 1
10
184.866082
20
139.810752
11
185.501667
21
140.670424
0
LINE
8
Layer 1
10
185.501667
20
140.670424
11
184.509715
21
140.509453
0
LINE
8
Layer 1
10
184.509715
20
140.509453
11
182.226797
21
139.760379
0
LINE
8
Layer 1
10
182.226797
20
139.760379
11
181.070577
21
139.353978
0
LINE
8
Layer 1
10
181.070577
20
139.353978
11
180.002174
21
139.186020
0
LINE
8
Layer 1
10
180.002174
20
139.186020
11
179.176731
21
139.263886
0
LINE
8
Layer 1
10
179.176731
20
139.263886
11
178.749393
21
139.594957
0
LINE
8
Layer 1
10
178.749393
20
139.594957
11
178.975248
21
140.590241
0
LINE
8
Layer 1
10
178.975248
20
140.590241
11
179.746029
21
142.389612
0
LINE
8
Layer 1
10
179.746029
20
142.389612
11
180.866133
21
145.083670
0
LINE
8
Layer 1
10
180.866133
20
145.083670
11
180.857467
21
145.223511
0
LINE
8
Layer 1
10
180.857467
20
145.223511
11
180.722333
21
145.094660
0
LINE
8
Layer 1
10
180.722333
20
145.094660
11
180.050686
21
143.920441
0
LINE
8
Layer 1
10
180.050686
20
143.920441
11
179.404406
21
142.861858
0
LINE
8
Layer 1
10
179.404406
20
142.861858
11
178.772022
21
142.246082
0
LINE
8
Layer 1
10
178.772022
20
142.246082
11
178.119606
21
142.051720
0
LINE
8
Layer 1
10
178.119606
20
142.051720
11
177.413229
21
142.257376
0
LINE
8
Layer 1
10
177.413229
20
142.257376
11
177.023909
21
142.523203
0
LINE
8
Layer 1
10
177.023909
20
142.523203
11
176.607174
21
143.004566
0
LINE
8
Layer 1
10
176.607174
20
143.004566
11
175.072892
21
145.460506
0
LINE
8
Layer 1
10
175.072892
20
145.460506
11
173.978864
21
146.985259
0
LINE
8
Layer 1
10
173.978864
20
146.985259
11
172.442276
21
148.881471
0
LINE
8
Layer 1
10
172.442276
20
148.881471
11
170.603964
21
151.043321
0
LINE
8
Layer 1
10
170.603964
20
151.043321
11
168.177159
21
153.525828
0
LINE
8
Layer 1
10
168.177159
20
153.525828
11
165.635773
21
155.868703
0
LINE
8
Layer 1
10
165.635773
20
155.868703
11
163.453716
21
157.611657
0
LINE
8
Layer 1
10
163.453716
20
157.611657
11
160.977453
21
159.132273
0
LINE
8
Layer 1
10
160.977453
20
159.132273
11
161.283596
21
158.651270
0
LINE
8
Layer 1
10
161.283596
20
158.651270
11
161.713751
21
158.026749
0
LINE
8
Layer 1
10
161.713751
20
158.026749
11
163.394142
21
154.717925
0
LINE
8
Layer 1
10
163.394142
20
154.717925
11
165.664286
21
150.151674
0
LINE
8
Layer 1
10
165.664286
20
150.151674
11
166.906059
21
147.215609
0
LINE
8
Layer 1
10
166.906059
20
147.215609
11
167.765981
21
144.677759
0
LINE
8
Layer 1
10
167.765981
20
144.677759
11
168.157644
21
143.266648
0
LINE
8
Layer 1
10
168.157644
20
143.266648
11
168.826294
21
141.574256
0
LINE
8
Layer 1
10
168.826294
20
141.574256
11
169.503925
21
138.748942
0
LINE
8
Layer 1
10
169.503925
20
138.748942
11
170.434031
21
133.829437
0
LINE
8
Layer 1
10
170.434031
20
133.829437
11
170.957069
21
130.380013
0
LINE
8
Layer 1
10
170.957069
20
130.380013
11
171.197847
21
127.340331
0
LINE
8
Layer 1
10
171.197847
20
127.340331
11
171.281177
21
123.650053
0
LINE
8
Layer 1
10
171.281177
20
123.650053
11
171.342366
21
117.864498
0
LINE
8
Layer 1
10
171.342366
20
117.864498
11
170.348893
21
115.888942
0
LINE
8
Layer 1
10
170.348893
20
115.888942
11
169.446238
21
114.332305
0
LINE
8
Layer 1
10
169.446238
20
114.332305
11
168.306746
21
112.725108
0
LINE
8
Layer 1
10
168.306746
20
112.725108
11
167.052599
21
111.225911
0
LINE
8
Layer 1
10
167.052599
20
111.225911
11
165.805973
21
109.993275
0
LINE
8
Layer 1
10
165.805973
20
109.993275
11
162.836673
21
107.629513
0
LINE
8
Layer 1
10
162.836673
20
107.629513
11
160.733305
21
106.152275
0
LINE
8
Layer 1
10
160.733305
20
106.152275
11
159.648810
21
105.486118
0
LINE
8
Layer 1
10
159.648810
20
105.486118
11
158.682710
21
104.924836
0
LINE
8
Layer 1
10
158.682710
20
104.924836
11
157.621529
21
104.510826
0
LINE
8
Layer 1
10
157.621529
20
104.510826
11
154.940418
21
103.755249
0
LINE
8
Layer 1
10
154.940418
20
103.755249
11
151.495891
21
102.882701
0
LINE
8
Layer 1
10
151.495891
20
102.882701
11
147.320418
21
102.005915
0
LINE
8
Layer 1
10
147.320418
20
102.005915
11
143.119066
21
101.243018
0
LINE
8
Layer 1
10
143.119066
20
101.243018
11
139.720877
21
100.754294
0
LINE
8
Layer 1
10
139.720877
20
100.754294
11
136.347736
21
100.448433
0
LINE
8
Layer 1
10
136.347736
20
100.448433
11
132.221529
21
100.234129
0
LINE
8
Layer 1
10
132.221529
20
100.234129
11
124.884263
21
100.062067
0
LINE
8
Layer 1
10
124.884263
20
100.062067
11
116.917828
21
100.376665
0
LINE
8
Layer 1
10
116.917828
20
100.376665
11
114.743084
21
100.419681
0
LINE
8
Layer 1
10
114.743084
20
100.419681
11
114.466694
21
100.287750
0
LINE
8
Layer 1
10
114.466694
20
100.287750
11
114.498354
21
100.019158
0
LINE
8
Layer 1
10
114.498354
20
100.019158
11
114.752222
21
99.548067
0
LINE
8
Layer 1
10
114.752222
20
99.548067
11
115.171513
21
99.270028
0
LINE
8
Layer 1
10
115.171513
20
99.270028
11
117.037544
21
99.101041
0
LINE
8
Layer 1
10
117.037544
20
99.101041
11
118.579563
21
98.973046
0
LINE
8
Layer 1
10
118.579563
20
98.973046
11
119.474765
21
98.459219
0
LINE
8
Layer 1
10
119.474765
20
98.459219
11
120.015856
21
97.842970
0
LINE
8
Layer 1
10
120.015856
20
97.842970
11
120.454300
21
97.105310
0
LINE
8
Layer 1
10
120.454300
20
97.105310
11
121.006961
21
95.358987
0
LINE
8
Layer 1
10
121.006961
20
95.358987
11
121.100186
21
93.406714
0
LINE
8
Layer 1
10
121.100186
20
93.406714
11
120.701412
21
91.434954
0
LINE
8
Layer 1
10
120.701412
20
91.434954
11
119.646536
21
88.972671
0
LINE
8
Layer 1
10
119.646536
20
88.972671
11
118.139930
21
86.273038
0
LINE
8
Layer 1
10
118.139930
20
86.273038
11
116.373788
21
83.648705
0
LINE
8
Layer 1
10
116.373788
20
83.648705
11
114.540301
21
81.412320
0
LINE
8
Layer 1
10
114.540301
20
81.412320
11
113.374286
21
80.009469
0
LINE
8
Layer 1
10
113.374286
20
80.009469
11
112.889307
21
79.128781
0
LINE
8
Layer 1
10
112.889307
20
79.128781
11
112.688026
21
78.634629
0
LINE
8
Layer 1
10
112.688026
20
78.634629
11
112.141769
21
78.030321
0
LINE
8
Layer 1
10
112.141769
20
78.030321
11
110.359846
21
76.707004
0
LINE
8
Layer 1
10
110.359846
20
76.707004
11
108.234572
21
75.590364
0
LINE
8
Layer 1
10
108.234572
20
75.590364
11
107.259127
21
75.244403
0
LINE
8
Layer 1
10
107.259127
20
75.244403
11
106.456982
21
75.111937
0
LINE
8
Layer 1
10
106.456982
20
75.111937
11
104.315582
21
74.277085
0
LINE
8
Layer 1
10
104.315582
20
74.277085
11
102.454270
21
73.602315
0
LINE
8
Layer 1
10
102.454270
20
73.602315
11
100.416188
21
73.254001
0
LINE
8
Layer 1
10
100.416188
20
73.254001
11
98.416624
21
73.205802
0
LINE
8
Layer 1
10
98.416624
20
73.205802
11
97.758812
21
73.411291
0
LINE
8
Layer 1
10
97.758812
20
73.411291
11
96.988015
21
73.826810
0
LINE
8
Layer 1
10
96.988015
20
73.826810
11
95.498403
21
74.915305
0
LINE
8
Layer 1
10
95.498403
20
74.915305
11
94.115642
21
76.421413
0
LINE
8
Layer 1
10
94.115642
20
76.421413
11
92.734938
21
78.480323
0
LINE
8
Layer 1
10
92.734938
20
78.480323
11
91.251495
21
81.227227
0
LINE
8
Layer 1
10
91.251495
20
81.227227
11
89.756523
21
84.029389
0
LINE
8
Layer 1
10
89.756523
20
84.029389
11
88.869272
21
85.358478
0
LINE
8
Layer 1
10
88.869272
20
85.358478
11
88.234140
21
85.440398
0
LINE
8
Layer 1
10
88.234140
20
85.440398
11
87.175938
21
85.058239
0
LINE
8
Layer 1
10
87.175938
20
85.058239
11
84.907382
21
84.301014
0
LINE
8
Layer 1
10
84.907382
20
84.301014
11
83.966193
21
84.016795
0
LINE
8
Layer 1
10
83.966193
20
84.016795
11
83.077560
21
83.458981
0
LINE
8
Layer 1
10
83.077560
20
83.458981
11
82.152518
21
82.555909
0
LINE
8
Layer 1
10
82.152518
20
82.555909
11
81.102098
21
81.235920
0
LINE
8
Layer 1
10
81.102098
20
81.235920
11
80.424695
21
80.270804
0
LINE
8
Layer 1
10
80.424695
20
80.270804
11
80.054787
21
79.544695
0
LINE
8
Layer 1
10
80.054787
20
79.544695
11
79.900337
21
78.799304
0
LINE
8
Layer 1
10
79.900337
20
78.799304
11
79.869307
21
77.776347
0
LINE
8
Layer 1
10
79.869307
20
77.776347
11
79.985666
21
76.054878
0
LINE
8
Layer 1
10
79.985666
20
76.054878
11
80.274516
21
74.124669
0
LINE
8
Layer 1
10
80.274516
20
74.124669
11
80.645513
21
72.475751
0
LINE
8
Layer 1
10
80.645513
20
72.475751
11
81.008316
21
71.598155
0
LINE
8
Layer 1
10
81.008316
20
71.598155
11
81.280418
21
70.943682
0
LINE
8
Layer 1
10
81.280418
20
70.943682
11
81.407512
21
70.307038
0
LINE
8
Layer 1
10
81.407512
20
70.307038
11
81.768158
21
69.448625
0
LINE
8
Layer 1
10
81.768158
20
69.448625
11
83.066296
21
67.251689
0
LINE
8
Layer 1
10
83.066296
20
67.251689
11
84.927208
21
64.723274
0
LINE
8
Layer 1
10
84.927208
20
64.723274
11
87.103269
21
62.233779
0
LINE
8
Layer 1
10
87.103269
20
62.233779
11
90.491004
21
59.151904
0
LINE
8
Layer 1
10
90.491004
20
59.151904
11
92.111860
21
57.858548
0
LINE
8
Layer 1
10
92.111860
20
57.858548
11
92.969486
21
57.327831
0
LINE
8
Layer 1
10
92.969486
20
57.327831
11
94.913831
21
56.115339
0
LINE
8
Layer 1
10
94.913831
20
56.115339
11
97.931529
21
54.236868
0
LINE
8
Layer 1
10
97.931529
20
54.236868
11
100.612640
21
52.832754
0
LINE
8
Layer 1
10
100.612640
20
52.832754
11
103.586297
21
50.963288
0
LINE
8
Layer 1
10
103.586297
20
50.963288
11
106.131619
21
48.705817
0
LINE
8
Layer 1
10
106.131619
20
48.705817
11
108.203469
21
46.107805
0
LINE
8
Layer 1
10
108.203469
20
46.107805
11
109.047737
21
44.695930
0
LINE
8
Layer 1
10
109.047737
20
44.695930
11
109.756710
21
43.216720
0
LINE
8
Layer 1
10
109.756710
20
43.216720
11
110.660132
21
41.180145
0
LINE
8
Layer 1
10
110.660132
20
41.180145
11
111.168458
21
39.633770
0
LINE
8
Layer 1
10
111.168458
20
39.633770
11
111.802209
21
36.881528
0
LINE
8
Layer 1
10
111.802209
20
36.881528
11
111.976924
21
34.964150
0
LINE
8
Layer 1
10
111.976924
20
34.964150
11
111.995001
21
32.315046
0
LINE
8
Layer 1
10
111.995001
20
32.315046
11
111.841381
21
29.855424
0
LINE
8
Layer 1
10
111.841381
20
29.855424
11
111.655259
21
29.035557
0
LINE
8
Layer 1
10
111.655259
20
29.035557
11
111.340121
21
28.411091
0
LINE
8
Layer 1
10
111.340121
20
28.411091
11
110.853861
21
27.923600
0
LINE
8
Layer 1
10
110.853861
20
27.923600
11
110.154374
21
27.514663
0
LINE
8
Layer 1
10
110.154374
20
27.514663
11
107.947291
21
26.698756
0
LINE
8
Layer 1
10
107.947291
20
26.698756
11
103.463737
21
25.075813
0
LINE
8
Layer 1
10
103.463737
20
25.075813
11
102.092878
21
24.385052
0
LINE
8
Layer 1
10
102.092878
20
24.385052
11
100.858156
21
23.579173
0
LINE
8
Layer 1
10
100.858156
20
23.579173
11
99.710649
21
22.617276
0
LINE
8
Layer 1
10
99.710649
20
22.617276
11
98.985139
21
21.605619
0
LINE
8
Layer 1
10
98.985139
20
21.605619
11
98.605592
21
20.391022
0
LINE
8
Layer 1
10
98.605592
20
20.391022
11
98.495973
21
18.820305
0
LINE
8
Layer 1
10
98.495973
20
18.820305
11
98.791788
21
16.458152
0
LINE
8
Layer 1
10
98.791788
20
16.458152
11
99.604197
21
14.160341
0
LINE
8
Layer 1
10
99.604197
20
14.160341
11
100.820647
21
12.165034
0
LINE
8
Layer 1
10
100.820647
20
12.165034
11
101.545215
21
11.355247
0
LINE
8
Layer 1
10
101.545215
20
11.355247
11
102.328585
21
10.710398
0
LINE
8
Layer 1
10
102.328585
20
10.710398
11
103.911485
21
9.890404
0
LINE
8
Layer 1
10
103.911485
20
9.890404
11
105.918584
21
9.135670
0
LINE
8
Layer 1
10
105.918584
20
9.135670
11
107.641975
21
8.676542
0
LINE
8
Layer 1
10
107.641975
20
8.676542
11
108.176059
21
8.629813
0
LINE
8
Layer 1
10
108.176059
20
8.629813
11
108.373751
21
8.743366
0
LINE
8
Layer 1
10
108.373751
20
8.743366
11
107.297488
21
10.371520
0
LINE
8
Layer 1
10
107.297488
20
10.371520
11
106.212250
21
11.858006
0
LINE
8
Layer 1
10
106.212250
20
11.858006
11
105.477645
21
13.124419
0
LINE
8
Layer 1
10
105.477645
20
13.124419
11
105.029838
21
14.302742
0
LINE
8
Layer 1
10
105.029838
20
14.302742
11
104.804995
21
15.524957
0
LINE
8
Layer 1
10
104.804995
20
15.524957
11
104.774514
21
16.649534
0
LINE
8
Layer 1
10
104.774514
20
16.649534
11
104.974553
21
17.376962
0
LINE
8
Layer 1
10
104.974553
20
17.376962
11
105.424106
21
17.739105
0
LINE
8
Layer 1
10
105.424106
20
17.739105
11
106.142172
21
17.767828
0
LINE
8
Layer 1
10
106.142172
20
17.767828
11
106.573646
21
17.643294
0
LINE
8
Layer 1
10
106.573646
20
17.643294
11
106.904261
21
17.323013
0
LINE
8
Layer 1
10
106.904261
20
17.323013
11
107.663065
21
15.498022
0
LINE
8
Layer 1
10
107.663065
20
15.498022
11
108.619550
21
13.768887
0
LINE
8
Layer 1
10
108.619550
20
13.768887
11
110.262286
21
11.480563
0
LINE
8
Layer 1
10
110.262286
20
11.480563
11
112.257901
21
9.194721
0
LINE
8
Layer 1
10
112.257901
20
9.194721
11
113.031898
21
8.573002
0
LINE
8
Layer 1
10
113.031898
20
8.573002
11
113.840957
21
8.126022
0
LINE
8
Layer 1
10
113.840957
20
8.126022
11
115.754017
21
7.359651
0
LINE
8
Layer 1
10
115.754017
20
7.359651
11
117.602762
21
6.887947
0
LINE
8
Layer 1
10
117.602762
20
6.887947
11
119.555192
21
6.680911
0
LINE
8
Layer 1
10
119.555192
20
6.680911
11
121.779307
21
6.708546
0
LINE
8
Layer 1
10
121.779307
20
6.708546
11
123.917956
21
6.981053
0
LINE
8
Layer 1
10
123.917956
20
6.981053
11
125.730418
21
7.654346
0
LINE
8
Layer 1
10
125.730418
20
7.654346
11
125.730418
21
7.654346
0
LINE
8
Layer 1
10
89.408322
20
17.071913
11
91.376387
21
17.640737
0
LINE
8
Layer 1
10
91.376387
20
17.640737
11
94.437151
21
18.250252
0
LINE
8
Layer 1
10
94.437151
20
18.250252
11
95.159110
21
18.544842
0
LINE
8
Layer 1
10
95.159110
20
18.544842
11
95.391529
21
18.847503
0
LINE
8
Layer 1
10
95.391529
20
18.847503
11
95.671666
21
19.886056
0
LINE
8
Layer 1
10
95.671666
20
19.886056
11
96.331187
21
21.542847
0
LINE
8
Layer 1
10
96.331187
20
21.542847
11
97.098754
21
23.189735
0
LINE
8
Layer 1
10
97.098754
20
23.189735
11
97.703030
21
24.198580
0
LINE
8
Layer 1
10
97.703030
20
24.198580
11
98.992651
21
25.227308
0
LINE
8
Layer 1
10
98.992651
20
25.227308
11
101.069406
21
26.545999
0
LINE
8
Layer 1
10
101.069406
20
26.545999
11
103.283987
21
27.769937
0
LINE
8
Layer 1
10
103.283987
20
27.769937
11
104.987084
21
28.514404
0
LINE
8
Layer 1
10
104.987084
20
28.514404
11
106.539307
21
28.989170
0
LINE
8
Layer 1
10
106.539307
20
28.989170
11
106.504133
21
31.799056
0
LINE
8
Layer 1
10
106.504133
20
31.799056
11
106.490279
21
37.290053
0
LINE
8
Layer 1
10
106.490279
20
37.290053
11
106.440296
21
42.309470
0
LINE
8
Layer 1
10
106.440296
20
42.309470
11
106.269823
21
43.389924
0
LINE
8
Layer 1
10
106.269823
20
43.389924
11
105.948539
21
44.204498
0
LINE
8
Layer 1
10
105.948539
20
44.204498
11
105.508189
21
44.960324
0
LINE
8
Layer 1
10
105.508189
20
44.960324
11
105.211375
21
45.192275
0
LINE
8
Layer 1
10
105.211375
20
45.192275
11
104.800141
21
45.476275
0
LINE
8
Layer 1
10
104.800141
20
45.476275
11
104.084707
21
46.357241
0
LINE
8
Layer 1
10
104.084707
20
46.357241
11
103.164153
21
47.462645
0
LINE
8
Layer 1
10
103.164153
20
47.462645
11
102.036104
21
48.539728
0
LINE
8
Layer 1
10
102.036104
20
48.539728
11
100.839859
21
49.468288
0
LINE
8
Layer 1
10
100.839859
20
49.468288
11
99.714716
21
50.128122
0
LINE
8
Layer 1
10
99.714716
20
50.128122
11
98.657791
21
50.803215
0
LINE
8
Layer 1
10
98.657791
20
50.803215
11
97.427864
21
51.613916
0
LINE
8
Layer 1
10
97.427864
20
51.613916
11
96.103925
21
52.247831
0
LINE
8
Layer 1
10
96.103925
20
52.247831
11
96.672948
21
50.696856
0
LINE
8
Layer 1
10
96.672948
20
50.696856
11
97.224834
21
49.223462
0
LINE
8
Layer 1
10
97.224834
20
49.223462
11
97.639285
21
47.578849
0
LINE
8
Layer 1
10
97.639285
20
47.578849
11
98.123719
21
43.436509
0
LINE
8
Layer 1
10
98.123719
20
43.436509
11
98.121524
21
41.066969
0
LINE
8
Layer 1
10
98.121524
20
41.066969
11
97.532190
21
39.062065
0
LINE
8
Layer 1
10
97.532190
20
39.062065
11
96.274207
21
36.258378
0
LINE
8
Layer 1
10
96.274207
20
36.258378
11
95.633351
21
35.270033
0
LINE
8
Layer 1
10
95.633351
20
35.270033
11
94.933622
21
34.512468
0
LINE
8
Layer 1
10
94.933622
20
34.512468
11
94.136797
21
33.952022
0
LINE
8
Layer 1
10
94.136797
20
33.952022
11
93.204653
21
33.555032
0
LINE
8
Layer 1
10
93.204653
20
33.555032
11
90.781516
21
33.116768
0
LINE
8
Layer 1
10
90.781516
20
33.116768
11
88.509471
21
33.014958
0
LINE
8
Layer 1
10
88.509471
20
33.014958
11
86.548183
21
33.097425
0
LINE
8
Layer 1
10
86.548183
20
33.097425
11
83.513742
21
33.336138
0
LINE
8
Layer 1
10
83.513742
20
33.336138
11
79.643331
21
33.476921
0
LINE
8
Layer 1
10
79.643331
20
33.476921
11
75.932850
21
33.498450
0
LINE
8
Layer 1
10
75.932850
20
33.498450
11
73.378195
21
33.379404
0
LINE
8
Layer 1
10
73.378195
20
33.379404
11
70.273751
21
32.746817
0
LINE
8
Layer 1
10
70.273751
20
32.746817
11
69.011423
21
32.124994
0
LINE
8
Layer 1
10
69.011423
20
32.124994
11
67.811848
21
31.289905
0
LINE
8
Layer 1
10
67.811848
20
31.289905
11
66.801552
21
30.343550
0
LINE
8
Layer 1
10
66.801552
20
30.343550
11
66.107062
21
29.387924
0
LINE
8
Layer 1
10
66.107062
20
29.387924
11
65.587763
21
28.062760
0
LINE
8
Layer 1
10
65.587763
20
28.062760
11
65.209330
21
26.423582
0
LINE
8
Layer 1
10
65.209330
20
26.423582
11
65.019750
21
24.750244
0
LINE
8
Layer 1
10
65.019750
20
24.750244
11
65.067011
21
23.322602
0
LINE
8
Layer 1
10
65.067011
20
23.322602
11
65.209179
21
22.676206
0
LINE
8
Layer 1
10
65.209179
20
22.676206
11
65.460040
21
22.167094
0
LINE
8
Layer 1
10
65.460040
20
22.167094
11
66.584994
21
21.131877
0
LINE
8
Layer 1
10
66.584994
20
21.131877
11
68.675696
21
19.791167
0
LINE
8
Layer 1
10
68.675696
20
19.791167
11
71.084897
21
18.655676
0
LINE
8
Layer 1
10
71.084897
20
18.655676
11
73.824391
21
17.720660
0
LINE
8
Layer 1
10
73.824391
20
17.720660
11
76.905973
21
16.981376
0
LINE
8
Layer 1
10
76.905973
20
16.981376
11
79.610638
21
16.763310
0
LINE
8
Layer 1
10
79.610638
20
16.763310
11
83.612224
21
16.713071
0
LINE
8
Layer 1
10
83.612224
20
16.713071
11
87.386272
21
16.819619
0
LINE
8
Layer 1
10
87.386272
20
16.819619
11
89.408322
21
17.071913
0
LINE
8
Layer 1
10
89.408322
20
17.071913
11
89.408322
21
17.071913
0
LINE
8
Layer 1
10
57.234461
20
20.982912
11
56.494362
21
22.701417
0
LINE
8
Layer 1
10
56.494362
20
22.701417
11
55.990624
21
24.862114
0
LINE
8
Layer 1
10
55.990624
20
24.862114
11
55.832332
21
26.791121
0
LINE
8
Layer 1
10
55.832332
20
26.791121
11
55.916818
21
27.458152
0
LINE
8
Layer 1
10
55.916818
20
27.458152
11
56.128573
21
27.814555
0
LINE
8
Layer 1
10
56.128573
20
27.814555
11
56.534849
21
28.607323
0
LINE
8
Layer 1
10
56.534849
20
28.607323
11
56.557049
21
28.854592
0
LINE
8
Layer 1
10
56.557049
20
28.854592
11
56.423547
21
28.848910
0
LINE
8
Layer 1
10
56.423547
20
28.848910
11
55.581135
21
28.010979
0
LINE
8
Layer 1
10
55.581135
20
28.010979
11
54.658587
21
26.748107
0
LINE
8
Layer 1
10
54.658587
20
26.748107
11
54.505542
21
26.155941
0
LINE
8
Layer 1
10
54.505542
20
26.155941
11
54.469307
21
25.380123
0
LINE
8
Layer 1
10
54.469307
20
25.380123
11
54.641600
21
24.162013
0
LINE
8
Layer 1
10
54.641600
20
24.162013
11
55.116649
21
22.895329
0
LINE
8
Layer 1
10
55.116649
20
22.895329
11
55.831702
21
21.709388
0
LINE
8
Layer 1
10
55.831702
20
21.709388
11
56.724011
21
20.733506
0
LINE
8
Layer 1
10
56.724011
20
20.733506
11
57.512299
21
20.252721
0
LINE
8
Layer 1
10
57.512299
20
20.252721
11
57.514005
21
20.470040
0
LINE
8
Layer 1
10
57.514005
20
20.470040
11
57.234461
21
20.982912
0
LINE
8
Layer 1
10
57.234461
20
20.982912
11
57.234461
21
20.982912
0
LINE
8
Layer 1
10
62.827970
20
20.709498
11
62.075994
21
22.944960
0
LINE
8
Layer 1
10
62.075994
20
22.944960
11
61.875357
21
24.597674
0
LINE
8
Layer 1
10
61.875357
20
24.597674
11
62.202277
21
26.436509
0
LINE
8
Layer 1
10
62.202277
20
26.436509
11
63.119686
21
29.141952
0
LINE
8
Layer 1
10
63.119686
20
29.141952
11
64.406007
21
31.437947
0
LINE
8
Layer 1
10
64.406007
20
31.437947
11
64.955668
21
32.218063
0
LINE
8
Layer 1
10
64.955668
20
32.218063
11
64.157487
21
31.878188
0
LINE
8
Layer 1
10
64.157487
20
31.878188
11
62.821653
21
31.169701
0
LINE
8
Layer 1
10
62.821653
20
31.169701
11
61.269637
21
30.165843
0
LINE
8
Layer 1
10
61.269637
20
30.165843
11
59.927192
21
29.161940
0
LINE
8
Layer 1
10
59.927192
20
29.161940
11
59.220069
21
28.453317
0
LINE
8
Layer 1
10
59.220069
20
28.453317
11
58.859438
21
27.056109
0
LINE
8
Layer 1
10
58.859438
20
27.056109
11
58.878151
21
25.241667
0
LINE
8
Layer 1
10
58.878151
20
25.241667
11
59.234660
21
23.413367
0
LINE
8
Layer 1
10
59.234660
20
23.413367
11
59.887414
21
21.974587
0
LINE
8
Layer 1
10
59.887414
20
21.974587
11
60.483741
21
21.359596
0
LINE
8
Layer 1
10
60.483741
20
21.359596
11
61.318388
21
20.752428
0
LINE
8
Layer 1
10
61.318388
20
20.752428
11
62.183676
21
20.284437
0
LINE
8
Layer 1
10
62.183676
20
20.284437
11
62.871923
21
20.086972
0
LINE
8
Layer 1
10
62.871923
20
20.086972
11
63.070499
21
20.210960
0
LINE
8
Layer 1
10
63.070499
20
20.210960
11
62.827970
21
20.709498
0
LINE
8
Layer 1
10
62.827970
20
20.709498
11
62.827970
21
20.709498
0
LINE
8
Layer 1
10
149.860418
20
21.576648
11
151.087534
21
24.469426
0
LINE
8
Layer 1
10
151.087534
20
24.469426
11
151.810740
21
25.879615
0
LINE
8
Layer 1
10
151.810740
20
25.879615
11
152.449610
21
26.840244
0
LINE
8
Layer 1
10
152.449610
20
26.840244
11
153.236469
21
27.637816
0
LINE
8
Layer 1
10
153.236469
20
27.637816
11
154.403645
21
28.558834
0
LINE
8
Layer 1
10
154.403645
20
28.558834
11
156.543412
21
29.982631
0
LINE
8
Layer 1
10
156.543412
20
29.982631
11
159.091136
21
31.115421
0
LINE
8
Layer 1
10
159.091136
20
31.115421
11
162.921807
21
32.271144
0
LINE
8
Layer 1
10
162.921807
20
32.271144
11
168.910418
21
33.763740
0
LINE
8
Layer 1
10
168.910418
20
33.763740
11
172.797775
21
34.733362
0
LINE
8
Layer 1
10
172.797775
20
34.733362
11
174.978343
21
35.463344
0
LINE
8
Layer 1
10
174.978343
20
35.463344
11
175.633251
21
35.832565
0
LINE
8
Layer 1
10
175.633251
20
35.832565
11
176.107064
21
36.254790
0
LINE
8
Layer 1
10
176.107064
20
36.254790
11
176.838875
21
37.408807
0
LINE
8
Layer 1
10
176.838875
20
37.408807
11
177.444785
21
38.929191
0
LINE
8
Layer 1
10
177.444785
20
38.929191
11
177.393956
21
40.757546
0
LINE
8
Layer 1
10
177.393956
20
40.757546
11
177.174035
21
42.052264
0
LINE
8
Layer 1
10
177.174035
20
42.052264
11
176.931010
21
42.497110
0
LINE
8
Layer 1
10
176.931010
20
42.497110
11
176.745115
21
42.575273
0
LINE
8
Layer 1
10
176.745115
20
42.575273
11
176.662554
21
42.988397
0
LINE
8
Layer 1
10
176.662554
20
42.988397
11
176.534496
21
43.609554
0
LINE
8
Layer 1
10
176.534496
20
43.609554
11
176.239221
21
44.187883
0
LINE
8
Layer 1
10
176.239221
20
44.187883
11
175.824862
21
45.208156
0
LINE
8
Layer 1
10
175.824862
20
45.208156
11
175.638331
21
45.778956
0
LINE
8
Layer 1
10
175.638331
20
45.778956
11
175.189862
21
46.487870
0
LINE
8
Layer 1
10
175.189862
20
46.487870
11
174.625418
21
47.372597
0
LINE
8
Layer 1
10
174.625418
20
47.372597
11
174.725483
21
47.596527
0
LINE
8
Layer 1
10
174.725483
20
47.596527
11
174.643353
21
47.801018
0
LINE
8
Layer 1
10
174.643353
20
47.801018
11
174.060973
21
48.007242
0
LINE
8
Layer 1
10
174.060973
20
48.007242
11
171.370701
21
48.230360
0
LINE
8
Layer 1
10
171.370701
20
48.230360
11
170.320298
21
48.437744
0
LINE
8
Layer 1
10
170.320298
20
48.437744
11
169.898195
21
48.643057
0
LINE
8
Layer 1
10
169.898195
20
48.643057
11
169.785914
21
48.796659
0
LINE
8
Layer 1
10
169.785914
20
48.796659
11
169.515959
21
48.774875
0
LINE
8
Layer 1
10
169.515959
20
48.774875
11
168.893860
21
48.871308
0
LINE
8
Layer 1
10
168.893860
20
48.871308
11
167.934931
21
49.309127
0
LINE
8
Layer 1
10
167.934931
20
49.309127
11
166.394827
21
49.990053
0
LINE
8
Layer 1
10
166.394827
20
49.990053
11
165.447655
21
50.554498
0
LINE
8
Layer 1
10
165.447655
20
50.554498
11
164.561924
21
51.118942
0
LINE
8
Layer 1
10
164.561924
20
51.118942
11
163.024257
21
51.972233
0
LINE
8
Layer 1
10
163.024257
20
51.972233
11
161.563358
21
53.109515
0
LINE
8
Layer 1
10
161.563358
20
53.109515
11
161.190145
21
53.352483
0
LINE
8
Layer 1
10
161.190145
20
53.352483
11
160.631797
21
53.348959
0
LINE
8
Layer 1
10
160.631797
20
53.348959
11
160.033755
21
53.127269
0
LINE
8
Layer 1
10
160.033755
20
53.127269
11
159.541456
21
52.715736
0
LINE
8
Layer 1
10
159.541456
20
52.715736
11
157.806319
21
51.287626
0
LINE
8
Layer 1
10
157.806319
20
51.287626
11
156.591110
21
50.520498
0
LINE
8
Layer 1
10
156.591110
20
50.520498
11
157.072299
21
49.761388
0
LINE
8
Layer 1
10
157.072299
20
49.761388
11
157.738611
21
48.839111
0
LINE
8
Layer 1
10
157.738611
20
48.839111
11
158.525299
21
48.009830
0
LINE
8
Layer 1
10
158.525299
20
48.009830
11
160.690583
21
46.416936
0
LINE
8
Layer 1
10
160.690583
20
46.416936
11
162.393039
21
45.542261
0
LINE
8
Layer 1
10
162.393039
20
45.542261
11
164.004377
21
45.344898
0
LINE
8
Layer 1
10
164.004377
20
45.344898
11
165.255790
21
45.449452
0
LINE
8
Layer 1
10
165.255790
20
45.449452
11
166.028373
21
45.707071
0
LINE
8
Layer 1
10
166.028373
20
45.707071
11
166.494405
21
45.929854
0
LINE
8
Layer 1
10
166.494405
20
45.929854
11
167.045149
21
45.710472
0
LINE
8
Layer 1
10
167.045149
20
45.710472
11
167.427669
21
45.412466
0
LINE
8
Layer 1
10
167.427669
20
45.412466
11
167.682992
21
45.035677
0
LINE
8
Layer 1
10
167.682992
20
45.035677
11
167.804987
21
44.523963
0
LINE
8
Layer 1
10
167.804987
20
44.523963
11
167.787520
21
43.821185
0
LINE
8
Layer 1
10
167.787520
20
43.821185
11
167.309677
21
41.617873
0
LINE
8
Layer 1
10
167.309677
20
41.617873
11
166.200407
21
37.976618
0
LINE
8
Layer 1
10
166.200407
20
37.976618
11
165.652638
21
36.688374
0
LINE
8
Layer 1
10
165.652638
20
36.688374
11
164.862243
21
35.552119
0
LINE
8
Layer 1
10
164.862243
20
35.552119
11
163.783659
21
34.514867
0
LINE
8
Layer 1
10
163.783659
20
34.514867
11
162.371323
21
33.523631
0
LINE
8
Layer 1
10
162.371323
20
33.523631
11
161.165815
21
32.980568
0
LINE
8
Layer 1
10
161.165815
20
32.980568
11
159.369804
21
32.565934
0
LINE
8
Layer 1
10
159.369804
20
32.565934
11
156.687660
21
32.230191
0
LINE
8
Layer 1
10
156.687660
20
32.230191
11
152.823751
21
31.923804
0
LINE
8
Layer 1
10
152.823751
20
31.923804
11
149.847027
21
31.637116
0
LINE
8
Layer 1
10
149.847027
20
31.637116
11
147.673990
21
31.186943
0
LINE
8
Layer 1
10
147.673990
20
31.186943
11
145.998271
21
30.481279
0
LINE
8
Layer 1
10
145.998271
20
30.481279
11
144.513503
21
29.428115
0
LINE
8
Layer 1
10
144.513503
20
29.428115
11
143.346315
21
28.241659
0
LINE
8
Layer 1
10
143.346315
20
28.241659
11
143.083594
21
27.690295
0
LINE
8
Layer 1
10
143.083594
20
27.690295
11
142.935020
21
27.014274
0
LINE
8
Layer 1
10
142.935020
20
27.014274
11
142.925947
21
25.217591
0
LINE
8
Layer 1
10
142.925947
20
25.217591
11
143.396628
21
24.408686
0
LINE
8
Layer 1
10
143.396628
20
24.408686
11
144.228254
21
23.537145
0
LINE
8
Layer 1
10
144.228254
20
23.537145
11
145.239151
21
22.765032
0
LINE
8
Layer 1
10
145.239151
20
22.765032
11
146.247646
21
22.254413
0
LINE
8
Layer 1
10
146.247646
20
22.254413
11
149.358542
21
21.262279
0
LINE
8
Layer 1
10
149.358542
20
21.262279
11
149.785113
21
21.284383
0
LINE
8
Layer 1
10
149.785113
20
21.284383
11
149.860418
21
21.576648
0
LINE
8
Layer 1
10
149.860418
20
21.576648
11
149.860418
21
21.576648
0
LINE
8
Layer 1
10
140.255312
20
28.823387
11
140.967829
21
29.890008
0
LINE
8
Layer 1
10
140.967829
20
29.890008
11
141.961166
21
31.085535
0
LINE
8
Layer 1
10
141.961166
20
31.085535
11
143.021525
21
32.172364
0
LINE
8
Layer 1
10
143.021525
20
32.172364
11
143.935109
21
32.912894
0
LINE
8
Layer 1
10
143.935109
20
32.912894
11
145.319764
21
33.600603
0
LINE
8
Layer 1
10
145.319764
20
33.600603
11
147.086467
21
34.091999
0
LINE
8
Layer 1
10
147.086467
20
34.091999
11
149.429095
21
34.426024
0
LINE
8
Layer 1
10
149.429095
20
34.426024
11
152.541529
21
34.641623
0
LINE
8
Layer 1
10
152.541529
20
34.641623
11
156.155938
21
34.837630
0
LINE
8
Layer 1
10
156.155938
20
34.837630
11
158.361347
21
35.065213
0
LINE
8
Layer 1
10
158.361347
20
35.065213
11
159.815927
21
35.431095
0
LINE
8
Layer 1
10
159.815927
20
35.431095
11
161.177848
21
36.041999
0
LINE
8
Layer 1
10
161.177848
20
36.041999
11
162.110952
21
36.684433
0
LINE
8
Layer 1
10
162.110952
20
36.684433
11
162.919348
21
37.652017
0
LINE
8
Layer 1
10
162.919348
20
37.652017
11
163.658781
21
39.029196
0
LINE
8
Layer 1
10
163.658781
20
39.029196
11
164.384996
21
40.900418
0
LINE
8
Layer 1
10
164.384996
20
40.900418
11
164.639347
21
41.686283
0
LINE
8
Layer 1
10
164.639347
20
41.686283
11
164.528935
21
42.101832
0
LINE
8
Layer 1
10
164.528935
20
42.101832
11
163.811099
21
42.338010
0
LINE
8
Layer 1
10
163.811099
20
42.338010
11
162.243177
21
42.585761
0
LINE
8
Layer 1
10
162.243177
20
42.585761
11
161.078487
21
42.846324
0
LINE
8
Layer 1
10
161.078487
20
42.846324
11
159.930142
21
43.259798
0
LINE
8
Layer 1
10
159.930142
20
43.259798
11
157.782675
21
44.473494
0
LINE
8
Layer 1
10
157.782675
20
44.473494
11
156.001161
21
46.082868
0
LINE
8
Layer 1
10
156.001161
20
46.082868
11
155.310256
21
46.990942
0
LINE
8
Layer 1
10
155.310256
20
46.990942
11
154.785983
21
47.943942
0
LINE
8
Layer 1
10
154.785983
20
47.943942
11
154.252291
21
48.988331
0
LINE
8
Layer 1
10
154.252291
20
48.988331
11
153.897615
21
49.418669
0
LINE
8
Layer 1
10
153.897615
20
49.418669
11
152.051250
21
48.869868
0
LINE
8
Layer 1
10
152.051250
20
48.869868
11
148.834269
21
48.087579
0
LINE
8
Layer 1
10
148.834269
20
48.087579
11
144.397114
21
47.356049
0
LINE
8
Layer 1
10
144.397114
20
47.356049
11
139.737088
21
46.814807
0
LINE
8
Layer 1
10
139.737088
20
46.814807
11
135.851494
21
46.603387
0
LINE
8
Layer 1
10
135.851494
20
46.603387
11
130.625006
21
46.900786
0
LINE
8
Layer 1
10
130.625006
20
46.900786
11
125.815815
21
47.596970
0
LINE
8
Layer 1
10
125.815815
20
47.596970
11
123.484739
21
48.001093
0
LINE
8
Layer 1
10
123.484739
20
48.001093
11
123.191409
21
47.873586
0
LINE
8
Layer 1
10
123.191409
20
47.873586
11
123.289105
21
47.520609
0
LINE
8
Layer 1
10
123.289105
20
47.520609
11
123.741897
21
45.474498
0
LINE
8
Layer 1
10
123.741897
20
45.474498
11
124.032282
21
43.849786
0
LINE
8
Layer 1
10
124.032282
20
43.849786
11
124.493836
21
42.247796
0
LINE
8
Layer 1
10
124.493836
20
42.247796
11
125.121834
21
40.676737
0
LINE
8
Layer 1
10
125.121834
20
40.676737
11
125.911550
21
39.144817
0
LINE
8
Layer 1
10
125.911550
20
39.144817
11
126.858260
21
37.660244
0
LINE
8
Layer 1
10
126.858260
20
37.660244
11
127.957238
21
36.231226
0
LINE
8
Layer 1
10
127.957238
20
36.231226
11
129.203759
21
34.865973
0
LINE
8
Layer 1
10
129.203759
20
34.865973
11
130.593098
21
33.572693
0
LINE
8
Layer 1
10
130.593098
20
33.572693
11
132.165000
21
32.030427
0
LINE
8
Layer 1
10
132.165000
20
32.030427
11
133.152777
21
31.245336
0
LINE
8
Layer 1
10
133.152777
20
31.245336
11
135.043751
21
29.800513
0
LINE
8
Layer 1
10
135.043751
20
29.800513
11
137.301529
21
27.975854
0
LINE
8
Layer 1
10
137.301529
20
27.975854
11
138.994862
21
26.567110
0
LINE
8
Layer 1
10
138.994862
20
26.567110
11
139.559307
21
25.938469
0
LINE
8
Layer 1
10
139.559307
20
25.938469
11
139.715875
21
27.028148
0
LINE
8
Layer 1
10
139.715875
20
27.028148
11
140.255312
21
28.823387
0
LINE
8
Layer 1
10
140.255312
20
28.823387
11
140.255312
21
28.823387
0
LINE
8
Layer 1
10
109.784862
20
31.211207
11
109.423453
21
35.685833
0
LINE
8
Layer 1
10
109.423453
20
35.685833
11
109.093911
21
37.645522
0
LINE
8
Layer 1
10
109.093911
20
37.645522
11
108.773784
21
38.623669
0
LINE
8
Layer 1
10
108.773784
20
38.623669
11
108.551446
21
38.773080
0
LINE
8
Layer 1
10
108.551446
20
38.773080
11
108.379894
21
38.720600
0
LINE
8
Layer 1
10
108.379894
20
38.720600
11
108.186817
21
37.980818
0
LINE
8
Layer 1
10
108.186817
20
37.980818
11
108.384447
21
33.757929
0
LINE
8
Layer 1
10
108.384447
20
33.757929
11
108.768310
21
30.585308
0
LINE
8
Layer 1
10
108.768310
20
30.585308
11
108.974170
21
30.070736
0
LINE
8
Layer 1
10
108.974170
20
30.070736
11
109.262799
21
29.952275
0
LINE
8
Layer 1
10
109.262799
20
29.952275
11
109.525742
21
30.003195
0
LINE
8
Layer 1
10
109.525742
20
30.003195
11
109.685049
21
30.192973
0
LINE
8
Layer 1
10
109.685049
20
30.192973
11
109.784862
21
31.211207
0
LINE
8
Layer 1
10
109.784862
20
31.211207
11
109.784862
21
31.211207
0
LINE
8
Layer 1
10
100.753751
20
76.091821
11
99.762245
21
76.643422
0
LINE
8
Layer 1
10
99.762245
20
76.643422
11
98.622219
21
77.448529
0
LINE
8
Layer 1
10
98.622219
20
77.448529
11
97.050859
21
78.900312
0
LINE
8
Layer 1
10
97.050859
20
78.900312
11
95.546232
21
80.504021
0
LINE
8
Layer 1
10
95.546232
20
80.504021
11
94.606404
21
81.764911
0
LINE
8
Layer 1
10
94.606404
20
81.764911
11
94.275551
21
82.245654
0
LINE
8
Layer 1
10
94.275551
20
82.245654
11
93.988142
21
82.445609
0
LINE
8
Layer 1
10
93.988142
20
82.445609
11
93.891734
21
82.304686
0
LINE
8
Layer 1
10
93.891734
20
82.304686
11
94.077709
21
81.834631
0
LINE
8
Layer 1
10
94.077709
20
81.834631
11
95.443080
21
79.623387
0
LINE
8
Layer 1
10
95.443080
20
79.623387
11
97.053041
21
77.566731
0
LINE
8
Layer 1
10
97.053041
20
77.566731
11
97.859822
21
76.816231
0
LINE
8
Layer 1
10
97.859822
20
76.816231
11
98.637084
21
76.283078
0
LINE
8
Layer 1
10
98.637084
20
76.283078
11
99.906745
21
75.973357
0
LINE
8
Layer 1
10
99.906745
20
75.973357
11
100.502269
21
75.968296
0
LINE
8
Layer 1
10
100.502269
20
75.968296
11
100.753751
21
76.091821
0
LINE
8
Layer 1
10
100.753751
20
76.091821
11
100.753751
21
76.091821
0
LINE
8
Layer 1
10
107.103751
20
78.182761
11
108.137053
21
78.516670
0
LINE
8
Layer 1
10
108.137053
20
78.516670
11
109.222394
21
79.050342
0
LINE
8
Layer 1
10
109.222394
20
79.050342
11
110.160258
21
79.670037
0
LINE
8
Layer 1
10
110.160258
20
79.670037
11
110.751126
21
80.262016
0
LINE
8
Layer 1
10
110.751126
20
80.262016
11
111.282982
21
81.412854
0
LINE
8
Layer 1
10
111.282982
20
81.412854
11
111.923437
21
83.268069
0
LINE
8
Layer 1
10
111.923437
20
83.268069
11
113.065701
21
87.615985
0
LINE
8
Layer 1
10
113.065701
20
87.615985
11
113.335367
21
89.802774
0
LINE
8
Layer 1
10
113.335367
20
89.802774
11
113.383844
21
92.295410
0
LINE
8
Layer 1
10
113.383844
20
92.295410
11
113.221057
21
94.671250
0
LINE
8
Layer 1
10
113.221057
20
94.671250
11
112.856927
21
96.507653
0
LINE
8
Layer 1
10
112.856927
20
96.507653
11
111.764790
21
99.570923
0
LINE
8
Layer 1
10
111.764790
20
99.570923
11
110.737539
21
101.642298
0
LINE
8
Layer 1
10
110.737539
20
101.642298
11
109.606287
21
102.989237
0
LINE
8
Layer 1
10
109.606287
20
102.989237
11
108.202149
21
103.879196
0
LINE
8
Layer 1
10
108.202149
20
103.879196
11
107.019740
21
104.337120
0
LINE
8
Layer 1
10
107.019740
20
104.337120
11
105.804537
21
104.610327
0
LINE
8
Layer 1
10
105.804537
20
104.610327
11
104.545850
21
104.697263
0
LINE
8
Layer 1
10
104.545850
20
104.697263
11
103.232987
21
104.596373
0
LINE
8
Layer 1
10
103.232987
20
104.596373
11
101.855259
21
104.306103
0
LINE
8
Layer 1
10
101.855259
20
104.306103
11
100.401974
21
103.824899
0
LINE
8
Layer 1
10
100.401974
20
103.824899
11
97.225973
21
102.283472
0
LINE
8
Layer 1
10
97.225973
20
102.283472
11
93.698195
21
100.301713
0
LINE
8
Layer 1
10
93.698195
20
100.301713
11
91.068163
21
98.734929
0
LINE
8
Layer 1
10
91.068163
20
98.734929
11
90.791771
21
98.309767
0
LINE
8
Layer 1
10
90.791771
20
98.309767
11
90.925057
21
97.876120
0
LINE
8
Layer 1
10
90.925057
20
97.876120
11
91.196848
21
97.520136
0
LINE
8
Layer 1
10
91.196848
20
97.520136
11
91.370113
21
97.615804
0
LINE
8
Layer 1
10
91.370113
20
97.615804
11
91.757719
21
97.865704
0
LINE
8
Layer 1
10
91.757719
20
97.865704
11
92.536380
21
97.967831
0
LINE
8
Layer 1
10
92.536380
20
97.967831
11
93.355942
21
98.046458
0
LINE
8
Layer 1
10
93.355942
20
98.046458
11
93.853418
21
98.235499
0
LINE
8
Layer 1
10
93.853418
20
98.235499
11
94.630101
21
98.625552
0
LINE
8
Layer 1
10
94.630101
20
98.625552
11
95.887937
21
98.961445
0
LINE
8
Layer 1
10
95.887937
20
98.961445
11
97.179766
21
99.151021
0
LINE
8
Layer 1
10
97.179766
20
99.151021
11
98.058427
21
99.102124
0
LINE
8
Layer 1
10
98.058427
20
99.102124
11
98.686775
21
98.780703
0
LINE
8
Layer 1
10
98.686775
20
98.780703
11
98.847069
21
98.443988
0
LINE
8
Layer 1
10
98.847069
20
98.443988
11
98.530934
21
98.052858
0
LINE
8
Layer 1
10
98.530934
20
98.052858
11
97.729994
21
97.568196
0
LINE
8
Layer 1
10
97.729994
20
97.568196
11
96.379307
21
96.865223
0
LINE
8
Layer 1
10
96.379307
20
96.865223
11
97.367084
21
96.847762
0
LINE
8
Layer 1
10
97.367084
20
96.847762
11
98.634066
21
96.624650
0
LINE
8
Layer 1
10
98.634066
20
96.624650
11
98.954173
21
96.389556
0
LINE
8
Layer 1
10
98.954173
20
96.389556
11
99.064999
21
96.091182
0
LINE
8
Layer 1
10
99.064999
20
96.091182
11
98.966276
21
95.743838
0
LINE
8
Layer 1
10
98.966276
20
95.743838
11
98.657737
21
95.361833
0
LINE
8
Layer 1
10
98.657737
20
95.361833
11
97.410135
21
94.551077
0
LINE
8
Layer 1
10
97.410135
20
94.551077
11
95.900965
21
93.815433
0
LINE
8
Layer 1
10
95.900965
20
93.815433
11
97.009746
21
93.638133
0
LINE
8
Layer 1
10
97.009746
20
93.638133
11
97.943728
21
93.357810
0
LINE
8
Layer 1
10
97.943728
20
93.357810
11
98.623680
21
92.903544
0
LINE
8
Layer 1
10
98.623680
20
92.903544
11
98.962815
21
92.360283
0
LINE
8
Layer 1
10
98.962815
20
92.360283
11
98.874349
21
91.812976
0
LINE
8
Layer 1
10
98.874349
20
91.812976
11
98.377495
21
91.512966
0
LINE
8
Layer 1
10
98.377495
20
91.512966
11
97.459537
21
91.377093
0
LINE
8
Layer 1
10
97.459537
20
91.377093
11
96.254808
21
91.411761
0
LINE
8
Layer 1
10
96.254808
20
91.411761
11
94.897640
21
91.623377
0
LINE
8
Layer 1
10
94.897640
20
91.623377
11
93.959497
21
91.676151
0
LINE
8
Layer 1
10
93.959497
20
91.676151
11
93.993591
21
91.504301
0
LINE
8
Layer 1
10
93.993591
20
91.504301
11
94.316285
21
91.232561
0
LINE
8
Layer 1
10
94.316285
20
91.232561
11
95.686946
21
90.486213
0
LINE
8
Layer 1
10
95.686946
20
90.486213
11
97.790418
21
89.630713
0
LINE
8
Layer 1
10
97.790418
20
89.630713
11
99.026619
21
89.135593
0
LINE
8
Layer 1
10
99.026619
20
89.135593
11
99.661298
21
88.706529
0
LINE
8
Layer 1
10
99.661298
20
88.706529
11
99.762258
21
88.263104
0
LINE
8
Layer 1
10
99.762258
20
88.263104
11
99.397301
21
87.724903
0
LINE
8
Layer 1
10
99.397301
20
87.724903
11
98.960057
21
87.124636
0
LINE
8
Layer 1
10
98.960057
20
87.124636
11
98.778195
21
86.606854
0
LINE
8
Layer 1
10
98.778195
20
86.606854
11
98.683398
21
86.152687
0
LINE
8
Layer 1
10
98.683398
20
86.152687
11
98.422856
21
85.985502
0
LINE
8
Layer 1
10
98.422856
20
85.985502
11
98.032344
21
86.107765
0
LINE
8
Layer 1
10
98.032344
20
86.107765
11
97.547636
21
86.521945
0
LINE
8
Layer 1
10
97.547636
20
86.521945
11
96.637060
21
87.207877
0
LINE
8
Layer 1
10
96.637060
20
87.207877
11
96.346850
21
87.210096
0
LINE
8
Layer 1
10
96.346850
20
87.210096
11
96.238195
21
86.961164
0
LINE
8
Layer 1
10
96.238195
20
86.961164
11
96.020188
21
86.681672
0
LINE
8
Layer 1
10
96.020188
20
86.681672
11
95.451758
21
86.737852
0
LINE
8
Layer 1
10
95.451758
20
86.737852
11
94.661292
21
87.091029
0
LINE
8
Layer 1
10
94.661292
20
87.091029
11
93.777178
21
87.702525
0
LINE
8
Layer 1
10
93.777178
20
87.702525
11
92.738763
21
88.425060
0
LINE
8
Layer 1
10
92.738763
20
88.425060
11
92.426980
21
88.504165
0
LINE
8
Layer 1
10
92.426980
20
88.504165
11
92.214706
21
88.412786
0
LINE
8
Layer 1
10
92.214706
20
88.412786
11
92.023678
21
88.013455
0
LINE
8
Layer 1
10
92.023678
20
88.013455
11
94.203589
21
86.360473
0
LINE
8
Layer 1
10
94.203589
20
86.360473
11
95.392835
21
85.304066
0
LINE
8
Layer 1
10
95.392835
20
85.304066
11
96.168947
21
84.276305
0
LINE
8
Layer 1
10
96.168947
20
84.276305
11
98.574524
21
81.542715
0
LINE
8
Layer 1
10
98.574524
20
81.542715
11
100.033751
21
80.022681
0
LINE
8
Layer 1
10
100.033751
20
80.022681
11
101.252085
21
79.012587
0
LINE
8
Layer 1
10
101.252085
20
79.012587
11
102.356589
21
78.497707
0
LINE
8
Layer 1
10
102.356589
20
78.497707
11
103.720191
21
78.073680
0
LINE
8
Layer 1
10
103.720191
20
78.073680
11
104.995157
21
77.828677
0
LINE
8
Layer 1
10
104.995157
20
77.828677
11
105.833751
21
77.850870
0
LINE
8
Layer 1
10
105.833751
20
77.850870
11
107.103751
21
78.182761
0
LINE
8
Layer 1
10
107.103751
20
78.182761
11
107.103751
21
78.182761
0
LINE
8
Layer 1
10
74.973948
20
80.328942
11
76.338862
21
80.752275
0
LINE
8
Layer 1
10
76.338862
20
80.752275
11
76.975424
21
81.121156
0
LINE
8
Layer 1
10
76.975424
20
81.121156
11
78.011963
21
82.008040
0
LINE
8
Layer 1
10
78.011963
20
82.008040
11
80.165764
21
84.030634
0
LINE
8
Layer 1
10
80.165764
20
84.030634
11
80.786286
21
84.673682
0
LINE
8
Layer 1
10
80.786286
20
84.673682
11
80.946012
21
85.054762
0
LINE
8
Layer 1
10
80.946012
20
85.054762
11
80.638334
21
85.197265
0
LINE
8
Layer 1
10
80.638334
20
85.197265
11
79.856640
21
85.124581
0
LINE
8
Layer 1
10
79.856640
20
85.124581
11
78.736513
21
84.814673
0
LINE
8
Layer 1
10
78.736513
20
84.814673
11
77.533234
21
84.250263
0
LINE
8
Layer 1
10
77.533234
20
84.250263
11
76.250192
21
83.433235
0
LINE
8
Layer 1
10
76.250192
20
83.433235
11
74.890777
21
82.365472
0
LINE
8
Layer 1
10
74.890777
20
82.365472
11
72.632999
21
80.525053
0
LINE
8
Layer 1
10
72.632999
20
80.525053
11
71.825973
21
79.923490
0
LINE
8
Layer 1
10
71.825973
20
79.923490
11
72.893372
21
79.914550
0
LINE
8
Layer 1
10
72.893372
20
79.914550
11
73.944842
21
80.032590
0
LINE
8
Layer 1
10
73.944842
20
80.032590
11
74.973948
21
80.328942
0
LINE
8
Layer 1
10
74.973948
20
80.328942
11
74.973948
21
80.328942
0
LINE
8
Layer 1
10
69.135427
20
82.074306
11
71.572291
21
83.336926
0
LINE
8
Layer 1
10
71.572291
20
83.336926
11
74.224862
21
85.347415
0
LINE
8
Layer 1
10
74.224862
20
85.347415
11
76.319812
21
86.880917
0
LINE
8
Layer 1
10
76.319812
20
86.880917
11
77.144761
21
87.308391
0
LINE
8
Layer 1
10
77.144761
20
87.308391
11
76.460923
21
87.842409
0
LINE
8
Layer 1
10
76.460923
20
87.842409
11
75.810171
21
88.183448
0
LINE
8
Layer 1
10
75.810171
20
88.183448
11
75.212640
21
88.214070
0
LINE
8
Layer 1
10
75.212640
20
88.214070
11
71.775831
21
87.381961
0
LINE
8
Layer 1
10
71.775831
20
87.381961
11
71.152780
21
87.403631
0
LINE
8
Layer 1
10
71.152780
20
87.403631
11
70.679590
21
87.761120
0
LINE
8
Layer 1
10
70.679590
20
87.761120
11
70.379001
21
88.424427
0
LINE
8
Layer 1
10
70.379001
20
88.424427
11
70.273751
21
89.363556
0
LINE
8
Layer 1
10
70.273751
20
89.363556
11
70.356654
21
90.285730
0
LINE
8
Layer 1
10
70.356654
20
90.285730
11
70.555973
21
90.771164
0
LINE
8
Layer 1
10
70.555973
20
90.771164
11
70.807893
21
90.997917
0
LINE
8
Layer 1
10
70.807893
20
90.997917
11
70.797583
21
91.183377
0
LINE
8
Layer 1
10
70.797583
20
91.183377
11
70.062084
21
91.346734
0
LINE
8
Layer 1
10
70.062084
20
91.346734
11
69.428699
21
91.475518
0
LINE
8
Layer 1
10
69.428699
20
91.475518
11
69.192738
21
91.993884
0
LINE
8
Layer 1
10
69.192738
20
91.993884
11
69.261184
21
92.577367
0
LINE
8
Layer 1
10
69.261184
20
92.577367
11
69.565249
21
93.140854
0
LINE
8
Layer 1
10
69.565249
20
93.140854
11
70.017165
21
93.569191
0
LINE
8
Layer 1
10
70.017165
20
93.569191
11
70.529159
21
93.747226
0
LINE
8
Layer 1
10
70.529159
20
93.747226
11
71.825973
21
94.155108
0
LINE
8
Layer 1
10
71.825973
20
94.155108
11
72.672640
21
94.550258
0
LINE
8
Layer 1
10
72.672640
20
94.550258
11
71.543751
21
94.414642
0
LINE
8
Layer 1
10
71.543751
20
94.414642
11
69.985253
21
94.429083
0
LINE
8
Layer 1
10
69.985253
20
94.429083
11
68.882415
21
94.815257
0
LINE
8
Layer 1
10
68.882415
20
94.815257
11
68.554165
21
95.113555
0
LINE
8
Layer 1
10
68.554165
20
95.113555
11
68.402585
21
95.463760
0
LINE
8
Layer 1
10
68.402585
20
95.463760
11
68.448593
21
95.852197
0
LINE
8
Layer 1
10
68.448593
20
95.852197
11
68.713107
21
96.265190
0
LINE
8
Layer 1
10
68.713107
20
96.265190
11
69.062161
21
96.574806
0
LINE
8
Layer 1
10
69.062161
20
96.574806
11
69.508832
21
96.732397
0
LINE
8
Layer 1
10
69.508832
20
96.732397
11
71.382354
21
96.704666
0
LINE
8
Layer 1
10
71.382354
20
96.704666
11
73.519307
21
96.555964
0
LINE
8
Layer 1
10
73.519307
20
96.555964
11
71.543751
21
97.533175
0
LINE
8
Layer 1
10
71.543751
20
97.533175
11
69.961984
21
98.226546
0
LINE
8
Layer 1
10
69.961984
20
98.226546
11
68.933195
21
98.521331
0
LINE
8
Layer 1
10
68.933195
20
98.521331
11
68.455568
21
98.659665
0
LINE
8
Layer 1
10
68.455568
20
98.659665
11
68.298195
21
99.057237
0
LINE
8
Layer 1
10
68.298195
20
99.057237
11
68.426120
21
99.340461
0
LINE
8
Layer 1
10
68.426120
20
99.340461
11
68.774082
21
99.561782
0
LINE
8
Layer 1
10
68.774082
20
99.561782
11
69.915245
21
99.802788
0
LINE
8
Layer 1
10
69.915245
20
99.802788
11
71.291940
21
99.748402
0
LINE
8
Layer 1
10
71.291940
20
99.748402
11
72.474421
21
99.366773
0
LINE
8
Layer 1
10
72.474421
20
99.366773
11
73.438167
21
98.927137
0
LINE
8
Layer 1
10
73.438167
20
98.927137
11
74.450275
21
98.657729
0
LINE
8
Layer 1
10
74.450275
20
98.657729
11
75.295238
21
98.596872
0
LINE
8
Layer 1
10
75.295238
20
98.596872
11
75.757552
21
98.782894
0
LINE
8
Layer 1
10
75.757552
20
98.782894
11
75.697122
21
99.065238
0
LINE
8
Layer 1
10
75.697122
20
99.065238
11
75.154332
21
99.408054
0
LINE
8
Layer 1
10
75.154332
20
99.408054
11
72.390418
21
100.385149
0
LINE
8
Layer 1
10
72.390418
20
100.385149
11
68.410351
21
101.733003
0
LINE
8
Layer 1
10
68.410351
20
101.733003
11
65.828201
21
102.539381
0
LINE
8
Layer 1
10
65.828201
20
102.539381
11
63.623833
21
103.071622
0
LINE
8
Layer 1
10
63.623833
20
103.071622
11
61.688495
21
103.408647
0
LINE
8
Layer 1
10
61.688495
20
103.408647
11
60.776471
21
102.353593
0
LINE
8
Layer 1
10
60.776471
20
102.353593
11
59.826790
21
100.953457
0
LINE
8
Layer 1
10
59.826790
20
100.953457
11
59.183427
21
99.255467
0
LINE
8
Layer 1
10
59.183427
20
99.255467
11
58.818128
21
97.153176
0
LINE
8
Layer 1
10
58.818128
20
97.153176
11
58.702640
21
94.540135
0
LINE
8
Layer 1
10
58.702640
20
94.540135
11
58.767222
21
92.269025
0
LINE
8
Layer 1
10
58.767222
20
92.269025
11
58.993164
21
90.347135
0
LINE
8
Layer 1
10
58.993164
20
90.347135
11
59.428762
21
88.499253
0
LINE
8
Layer 1
10
59.428762
20
88.499253
11
60.122311
21
86.450167
0
LINE
8
Layer 1
10
60.122311
20
86.450167
11
60.733618
21
85.024078
0
LINE
8
Layer 1
10
60.733618
20
85.024078
11
61.386369
21
84.018227
0
LINE
8
Layer 1
10
61.386369
20
84.018227
11
62.196709
21
83.295388
0
LINE
8
Layer 1
10
62.196709
20
83.295388
11
63.280781
21
82.718331
0
LINE
8
Layer 1
10
63.280781
20
82.718331
11
65.060150
21
82.036210
0
LINE
8
Layer 1
10
65.060150
20
82.036210
11
66.527707
21
81.712647
0
LINE
8
Layer 1
10
66.527707
20
81.712647
11
67.835463
21
81.730920
0
LINE
8
Layer 1
10
67.835463
20
81.730920
11
69.135427
21
82.074306
0
LINE
8
Layer 1
10
69.135427
20
82.074306
11
69.135427
21
82.074306
0
LINE
8
Layer 1
10
116.594599
20
88.301720
11
117.470997
21
89.789518
0
LINE
8
Layer 1
10
117.470997
20
89.789518
11
118.010747
21
90.952954
0
LINE
8
Layer 1
10
118.010747
20
90.952954
11
118.307788
21
92.045258
0
LINE
8
Layer 1
10
118.307788
20
92.045258
11
118.456058
21
93.319665
0
LINE
8
Layer 1
10
118.456058
20
93.319665
11
118.496091
21
94.648620
0
LINE
8
Layer 1
10
118.496091
20
94.648620
11
118.315226
21
95.450910
0
LINE
8
Layer 1
10
118.315226
20
95.450910
11
117.821023
21
95.897561
0
LINE
8
Layer 1
10
117.821023
20
95.897561
11
116.921040
21
96.159597
0
LINE
8
Layer 1
10
116.921040
20
96.159597
11
116.067679
21
96.330268
0
LINE
8
Layer 1
10
116.067679
20
96.330268
11
116.072322
21
92.986270
0
LINE
8
Layer 1
10
116.072322
20
92.986270
11
115.869441
21
88.442831
0
LINE
8
Layer 1
10
115.869441
20
88.442831
11
115.799957
21
87.243387
0
LINE
8
Layer 1
10
115.799957
20
87.243387
11
116.594599
21
88.301720
0
LINE
8
Layer 1
10
116.594599
20
88.301720
11
116.594599
21
88.301720
0
LINE
8
Layer 1
10
88.130061
20
88.387913
11
89.612443
21
89.154776
0
LINE
8
Layer 1
10
89.612443
20
89.154776
11
90.349487
21
89.776118
0
LINE
8
Layer 1
10
90.349487
20
89.776118
11
90.581233
21
90.613332
0
LINE
8
Layer 1
10
90.581233
20
90.613332
11
90.547721
21
92.027810
0
LINE
8
Layer 1
10
90.547721
20
92.027810
11
90.304229
21
94.022711
0
LINE
8
Layer 1
10
90.304229
20
94.022711
11
90.008410
21
94.725520
0
LINE
8
Layer 1
10
90.008410
20
94.725520
11
89.516167
21
95.502648
0
LINE
8
Layer 1
10
89.516167
20
95.502648
11
88.357548
21
96.766403
0
LINE
8
Layer 1
10
88.357548
20
96.766403
11
86.854888
21
97.753741
0
LINE
8
Layer 1
10
86.854888
20
97.753741
11
85.082541
21
98.426961
0
LINE
8
Layer 1
10
85.082541
20
98.426961
11
83.114862
21
98.748362
0
LINE
8
Layer 1
10
83.114862
20
98.748362
11
80.864022
21
98.702729
0
LINE
8
Layer 1
10
80.864022
20
98.702729
11
79.078479
21
98.241916
0
LINE
8
Layer 1
10
79.078479
20
98.241916
11
78.359848
21
97.855668
0
LINE
8
Layer 1
10
78.359848
20
97.855668
11
77.757128
21
97.365446
0
LINE
8
Layer 1
10
77.757128
20
97.365446
11
77.270180
21
96.771193
0
LINE
8
Layer 1
10
77.270180
20
96.771193
11
76.898867
21
96.072847
0
LINE
8
Layer 1
10
76.898867
20
96.072847
11
76.580025
21
94.983781
0
LINE
8
Layer 1
10
76.580025
20
94.983781
11
76.513381
21
93.882691
0
LINE
8
Layer 1
10
76.513381
20
93.882691
11
76.686545
21
92.794428
0
LINE
8
Layer 1
10
76.686545
20
92.794428
11
77.087133
21
91.743842
0
LINE
8
Layer 1
10
77.087133
20
91.743842
11
77.702757
21
90.755780
0
LINE
8
Layer 1
10
77.702757
20
90.755780
11
78.521029
21
89.855094
0
LINE
8
Layer 1
10
78.521029
20
89.855094
11
79.529564
21
89.066633
0
LINE
8
Layer 1
10
79.529564
20
89.066633
11
80.715973
21
88.415247
0
LINE
8
Layer 1
10
80.715973
20
88.415247
11
82.644706
21
87.751373
0
LINE
8
Layer 1
10
82.644706
20
87.751373
11
84.523735
21
87.525525
0
LINE
8
Layer 1
10
84.523735
20
87.525525
11
86.352404
21
87.737704
0
LINE
8
Layer 1
10
86.352404
20
87.737704
11
88.130061
21
88.387913
0
LINE
8
Layer 1
10
88.130061
20
88.387913
11
88.130061
21
88.387913
0
LINE
8
Layer 1
10
74.277779
20
90.258398
11
73.736852
21
90.236119
0
LINE
8
Layer 1
10
73.736852
20
90.236119
11
73.775328
21
90.122242
0
LINE
8
Layer 1
10
73.775328
20
90.122242
11
74.107269
21
90.087890
0
LINE
8
Layer 1
10
74.107269
20
90.087890
11
74.400241
21
90.144438
0
LINE
8
Layer 1
10
74.400241
20
90.144438
11
74.277779
21
90.258398
0
LINE
8
Layer 1
10
74.277779
20
90.258398
11
74.277779
21
90.258398
0
LINE
8
Layer 1
10
89.121465
20
100.924366
11
90.552605
21
101.734495
0
LINE
8
Layer 1
10
90.552605
20
101.734495
11
91.269768
21
102.359275
0
LINE
8
Layer 1
10
91.269768
20
102.359275
11
91.385761
21
102.965362
0
LINE
8
Layer 1
10
91.385761
20
102.965362
11
91.013393
21
103.719413
0
LINE
8
Layer 1
10
91.013393
20
103.719413
11
90.348510
21
105.071625
0
LINE
8
Layer 1
10
90.348510
20
105.071625
11
89.641957
21
107.022211
0
LINE
8
Layer 1
10
89.641957
20
107.022211
11
89.027934
21
109.156099
0
LINE
8
Layer 1
10
89.027934
20
109.156099
11
88.640638
21
111.058218
0
LINE
8
Layer 1
10
88.640638
20
111.058218
11
88.424413
21
113.144701
0
LINE
8
Layer 1
10
88.424413
20
113.144701
11
88.368199
21
115.178471
0
LINE
8
Layer 1
10
88.368199
20
115.178471
11
88.472553
21
117.206463
0
LINE
8
Layer 1
10
88.472553
20
117.206463
11
88.738030
21
119.275609
0
LINE
8
Layer 1
10
88.738030
20
119.275609
11
89.233111
21
121.690802
0
LINE
8
Layer 1
10
89.233111
20
121.690802
11
90.048328
21
124.073387
0
LINE
8
Layer 1
10
90.048328
20
124.073387
11
91.588828
21
127.404813
0
LINE
8
Layer 1
10
91.588828
20
127.404813
11
93.494424
21
130.605320
0
LINE
8
Layer 1
10
93.494424
20
130.605320
11
95.389257
21
133.110607
0
LINE
8
Layer 1
10
95.389257
20
133.110607
11
96.215181
21
133.926200
0
LINE
8
Layer 1
10
96.215181
20
133.926200
11
96.897467
21
134.356376
0
LINE
8
Layer 1
10
96.897467
20
134.356376
11
99.014133
21
135.584190
0
LINE
8
Layer 1
10
99.014133
20
135.584190
11
100.101522
21
136.292509
0
LINE
8
Layer 1
10
100.101522
20
136.292509
11
101.316601
21
136.890166
0
LINE
8
Layer 1
10
101.316601
20
136.890166
11
105.485901
21
138.328538
0
LINE
8
Layer 1
10
105.485901
20
138.328538
11
109.674921
21
139.776062
0
LINE
8
Layer 1
10
109.674921
20
139.776062
11
112.097298
21
140.924122
0
LINE
8
Layer 1
10
112.097298
20
140.924122
11
113.774361
21
141.792277
0
LINE
8
Layer 1
10
113.774361
20
141.792277
11
115.158277
21
142.600322
0
LINE
8
Layer 1
10
115.158277
20
142.600322
11
116.840418
21
143.907990
0
LINE
8
Layer 1
10
116.840418
20
143.907990
11
118.037904
21
144.900353
0
LINE
8
Layer 1
10
118.037904
20
144.900353
11
119.221103
21
146.127472
0
LINE
8
Layer 1
10
119.221103
20
146.127472
11
120.278813
21
147.462222
0
LINE
8
Layer 1
10
120.278813
20
147.462222
11
121.099837
21
148.777475
0
LINE
8
Layer 1
10
121.099837
20
148.777475
11
121.634788
21
150.242026
0
LINE
8
Layer 1
10
121.634788
20
150.242026
11
121.771647
21
152.335746
0
LINE
8
Layer 1
10
121.771647
20
152.335746
11
121.709700
21
153.935704
0
LINE
8
Layer 1
10
121.709700
20
153.935704
11
121.388839
21
154.998273
0
LINE
8
Layer 1
10
121.388839
20
154.998273
11
120.626297
21
155.845657
0
LINE
8
Layer 1
10
120.626297
20
155.845657
11
119.239307
21
156.800065
0
LINE
8
Layer 1
10
119.239307
20
156.800065
11
117.319968
21
157.904613
0
LINE
8
Layer 1
10
117.319968
20
157.904613
11
115.467219
21
158.495904
0
LINE
8
Layer 1
10
115.467219
20
158.495904
11
112.854681
21
158.725939
0
LINE
8
Layer 1
10
112.854681
20
158.725939
11
108.655973
21
158.746721
0
LINE
8
Layer 1
10
108.655973
20
158.746721
11
102.993132
21
158.606550
0
LINE
8
Layer 1
10
102.993132
20
158.606550
11
101.377631
21
158.414319
0
LINE
8
Layer 1
10
101.377631
20
158.414319
11
99.907084
21
158.090749
0
LINE
8
Layer 1
10
99.907084
20
158.090749
11
96.379307
21
157.200702
0
LINE
8
Layer 1
10
96.379307
20
157.200702
11
91.784805
21
155.823920
0
LINE
8
Layer 1
10
91.784805
20
155.823920
11
87.498998
21
154.206620
0
LINE
8
Layer 1
10
87.498998
20
154.206620
11
84.243751
21
152.784395
0
LINE
8
Layer 1
10
84.243751
20
152.784395
11
80.998195
21
151.214850
0
LINE
8
Layer 1
10
80.998195
20
151.214850
11
77.319561
21
149.328990
0
LINE
8
Layer 1
10
77.319561
20
149.328990
11
75.380006
21
148.093910
0
LINE
8
Layer 1
10
75.380006
20
148.093910
11
74.951091
21
147.772589
0
LINE
8
Layer 1
10
74.951091
20
147.772589
11
74.450104
21
147.638942
0
LINE
8
Layer 1
10
74.450104
20
147.638942
11
74.170345
21
147.671361
0
LINE
8
Layer 1
10
74.170345
20
147.671361
11
74.030407
21
147.801827
0
LINE
8
Layer 1
10
74.030407
20
147.801827
11
74.092257
21
148.556164
0
LINE
8
Layer 1
10
74.092257
20
148.556164
11
74.326346
21
149.745418
0
LINE
8
Layer 1
10
74.326346
20
149.745418
11
73.747721
21
150.001028
0
LINE
8
Layer 1
10
73.747721
20
150.001028
11
72.300908
21
150.233583
0
LINE
8
Layer 1
10
72.300908
20
150.233583
11
70.777501
21
150.497418
0
LINE
8
Layer 1
10
70.777501
20
150.497418
11
69.606290
21
150.936695
0
LINE
8
Layer 1
10
69.606290
20
150.936695
11
68.774837
21
151.558000
0
LINE
8
Layer 1
10
68.774837
20
151.558000
11
68.270701
21
152.367923
0
LINE
8
Layer 1
10
68.270701
20
152.367923
11
68.029398
21
152.820187
0
LINE
8
Layer 1
10
68.029398
20
152.820187
11
67.829120
21
152.908384
0
LINE
8
Layer 1
10
67.829120
20
152.908384
11
67.898294
21
152.297437
0
LINE
8
Layer 1
10
67.898294
20
152.297437
11
68.291357
21
151.042752
0
LINE
8
Layer 1
10
68.291357
20
151.042752
11
69.435788
21
148.344498
0
LINE
8
Layer 1
10
69.435788
20
148.344498
11
70.983441
21
145.419452
0
LINE
8
Layer 1
10
70.983441
20
145.419452
11
71.861775
21
143.451401
0
LINE
8
Layer 1
10
71.861775
20
143.451401
11
72.106539
21
142.342399
0
LINE
8
Layer 1
10
72.106539
20
142.342399
11
72.002505
21
142.079432
0
LINE
8
Layer 1
10
72.002505
20
142.079432
11
71.753484
21
141.994498
0
LINE
8
Layer 1
10
71.753484
20
141.994498
11
71.301267
21
142.340976
0
LINE
8
Layer 1
10
71.301267
20
142.340976
11
70.533236
21
143.200662
0
LINE
8
Layer 1
10
70.533236
20
143.200662
11
68.944326
21
145.381164
0
LINE
8
Layer 1
10
68.944326
20
145.381164
11
67.547777
21
147.856731
0
LINE
8
Layer 1
10
67.547777
20
147.856731
11
66.390798
21
150.281729
0
LINE
8
Layer 1
10
66.390798
20
150.281729
11
65.428003
21
152.761167
0
LINE
8
Layer 1
10
65.428003
20
152.761167
11
64.614007
21
155.400053
0
LINE
8
Layer 1
10
64.614007
20
155.400053
11
64.186056
21
157.765615
0
LINE
8
Layer 1
10
64.186056
20
157.765615
11
64.139837
21
160.484099
0
LINE
8
Layer 1
10
64.139837
20
160.484099
11
64.484055
21
163.729727
0
LINE
8
Layer 1
10
64.484055
20
163.729727
11
65.227414
21
167.676720
0
LINE
8
Layer 1
10
65.227414
20
167.676720
11
65.762649
21
170.142795
0
LINE
8
Layer 1
10
65.762649
20
170.142795
11
66.742476
21
173.432356
0
LINE
8
Layer 1
10
66.742476
20
173.432356
11
67.874097
21
176.425612
0
LINE
8
Layer 1
10
67.874097
20
176.425612
11
68.871231
21
178.542278
0
LINE
8
Layer 1
10
68.871231
20
178.542278
11
69.768585
21
180.049036
0
LINE
8
Layer 1
10
69.768585
20
180.049036
11
71.022944
21
181.690097
0
LINE
8
Layer 1
10
71.022944
20
181.690097
11
72.106761
21
183.080147
0
LINE
8
Layer 1
10
72.106761
20
183.080147
11
72.510036
21
184.082679
0
LINE
8
Layer 1
10
72.510036
20
184.082679
11
72.460934
21
184.495909
0
LINE
8
Layer 1
10
72.460934
20
184.495909
11
72.247051
21
184.880999
0
LINE
8
Layer 1
10
72.247051
20
184.880999
11
71.332084
21
185.658411
0
LINE
8
Layer 1
10
71.332084
20
185.658411
11
70.459849
21
186.391631
0
LINE
8
Layer 1
10
70.459849
20
186.391631
11
70.063737
21
187.110626
0
LINE
8
Layer 1
10
70.063737
20
187.110626
11
70.141091
21
187.827364
0
LINE
8
Layer 1
10
70.141091
20
187.827364
11
70.689256
21
188.553814
0
LINE
8
Layer 1
10
70.689256
20
188.553814
11
71.412653
21
189.233410
0
LINE
8
Layer 1
10
71.412653
20
189.233410
11
72.183758
21
188.326328
0
LINE
8
Layer 1
10
72.183758
20
188.326328
11
73.194942
21
187.452321
0
LINE
8
Layer 1
10
73.194942
20
187.452321
11
74.719761
21
186.411273
0
LINE
8
Layer 1
10
74.719761
20
186.411273
11
76.224925
21
185.539796
0
LINE
8
Layer 1
10
76.224925
20
185.539796
11
77.177146
21
185.174502
0
LINE
8
Layer 1
10
77.177146
20
185.174502
11
77.777053
21
184.930518
0
LINE
8
Layer 1
10
77.777053
20
184.930518
11
78.713364
21
184.285663
0
LINE
8
Layer 1
10
78.713364
20
184.285663
11
80.912380
21
182.315906
0
LINE
8
Layer 1
10
80.912380
20
182.315906
11
83.085522
21
179.822817
0
LINE
8
Layer 1
10
83.085522
20
179.822817
11
84.888925
21
177.238104
0
LINE
8
Layer 1
10
84.888925
20
177.238104
11
86.369823
21
174.484996
0
LINE
8
Layer 1
10
86.369823
20
174.484996
11
87.575452
21
171.486723
0
LINE
8
Layer 1
10
87.575452
20
171.486723
11
88.049746
21
169.347368
0
LINE
8
Layer 1
10
88.049746
20
169.347368
11
88.176777
21
165.786348
0
LINE
8
Layer 1
10
88.176777
20
165.786348
11
88.108346
21
162.631670
0
LINE
8
Layer 1
10
88.108346
20
162.631670
11
87.842084
21
161.426014
0
LINE
8
Layer 1
10
87.842084
20
161.426014
11
87.466970
21
160.966307
0
LINE
8
Layer 1
10
87.466970
20
160.966307
11
87.534822
21
160.834280
0
LINE
8
Layer 1
10
87.534822
20
160.834280
11
88.648390
21
161.514671
0
LINE
8
Layer 1
10
88.648390
20
161.514671
11
91.715960
21
163.922350
0
LINE
8
Layer 1
10
91.715960
20
163.922350
11
93.742508
21
165.286042
0
LINE
8
Layer 1
10
93.742508
20
165.286042
11
94.928357
21
165.717707
0
LINE
8
Layer 1
10
94.928357
20
165.717707
11
95.268623
21
165.619016
0
LINE
8
Layer 1
10
95.268623
20
165.619016
11
95.473836
21
165.329303
0
LINE
8
Layer 1
10
95.473836
20
165.329303
11
95.272754
21
164.874662
0
LINE
8
Layer 1
10
95.272754
20
164.874662
11
94.465456
21
164.060997
0
LINE
8
Layer 1
10
94.465456
20
164.060997
11
91.063950
21
161.384976
0
LINE
8
Layer 1
10
91.063950
20
161.384976
11
89.041529
21
159.719597
0
LINE
8
Layer 1
10
89.041529
20
159.719597
11
88.725885
21
159.308714
0
LINE
8
Layer 1
10
88.725885
20
159.308714
11
89.605973
21
159.781488
0
LINE
8
Layer 1
10
89.605973
20
159.781488
11
91.532975
21
160.987867
0
LINE
8
Layer 1
10
91.532975
20
160.987867
11
94.201184
21
162.431268
0
LINE
8
Layer 1
10
94.201184
20
162.431268
11
95.440079
21
162.922419
0
LINE
8
Layer 1
10
95.440079
20
162.922419
11
96.134374
21
163.044796
0
LINE
8
Layer 1
10
96.134374
20
163.044796
11
96.488773
21
162.749589
0
LINE
8
Layer 1
10
96.488773
20
162.749589
11
96.440497
21
162.323933
0
LINE
8
Layer 1
10
96.440497
20
162.323933
11
96.010895
21
161.809813
0
LINE
8
Layer 1
10
96.010895
20
161.809813
11
95.221318
21
161.249216
0
LINE
8
Layer 1
10
95.221318
20
161.249216
11
92.556129
21
159.516769
0
LINE
8
Layer 1
10
92.556129
20
159.516769
11
91.750995
21
158.890931
0
LINE
8
Layer 1
10
91.750995
20
158.890931
11
91.603556
21
158.645609
0
LINE
8
Layer 1
10
91.603556
20
158.645609
11
94.001542
21
159.364519
0
LINE
8
Layer 1
10
94.001542
20
159.364519
11
97.416697
21
160.376380
0
LINE
8
Layer 1
10
97.416697
20
160.376380
11
101.132217
21
161.218637
0
LINE
8
Layer 1
10
101.132217
20
161.218637
11
104.670131
21
161.797634
0
LINE
8
Layer 1
10
104.670131
20
161.797634
11
107.552467
21
162.019717
0
LINE
8
Layer 1
10
107.552467
20
162.019717
11
109.976739
21
162.032275
0
LINE
8
Layer 1
10
109.976739
20
162.032275
11
110.306860
21
163.090609
0
LINE
8
Layer 1
10
110.306860
20
163.090609
11
110.985908
21
166.118635
0
LINE
8
Layer 1
10
110.985908
20
166.118635
11
111.354035
21
169.603646
0
LINE
8
Layer 1
10
111.354035
20
169.603646
11
111.385107
21
173.089337
0
LINE
8
Layer 1
10
111.385107
20
173.089337
11
111.052994
21
176.119403
0
LINE
8
Layer 1
10
111.052994
20
176.119403
11
110.365283
21
179.106723
0
LINE
8
Layer 1
10
110.365283
20
179.106723
11
109.659002
21
181.223392
0
LINE
8
Layer 1
10
109.659002
20
181.223392
11
108.848926
21
183.480220
0
LINE
8
Layer 1
10
108.848926
20
183.480220
11
107.867371
21
185.646744
0
LINE
8
Layer 1
10
107.867371
20
185.646744
11
107.577006
21
186.454958
0
LINE
8
Layer 1
10
107.577006
20
186.454958
11
107.786449
21
186.981404
0
LINE
8
Layer 1
10
107.786449
20
186.981404
11
108.007978
21
187.516739
0
LINE
8
Layer 1
10
108.007978
20
187.516739
11
107.838971
21
188.315164
0
LINE
8
Layer 1
10
107.838971
20
188.315164
11
107.582904
21
189.666384
0
LINE
8
Layer 1
10
107.582904
20
189.666384
11
107.531490
21
191.373002
0
LINE
8
Layer 1
10
107.531490
20
191.373002
11
107.673790
21
193.030111
0
LINE
8
Layer 1
10
107.673790
20
193.030111
11
107.998864
21
194.232806
0
LINE
8
Layer 1
10
107.998864
20
194.232806
11
108.705914
21
195.321951
0
LINE
8
Layer 1
10
108.705914
20
195.321951
11
109.005238
21
195.483122
0
LINE
8
Layer 1
10
109.005238
20
195.483122
11
109.271510
21
195.385899
0
LINE
8
Layer 1
10
109.271510
20
195.385899
11
109.714139
21
194.407891
0
LINE
8
Layer 1
10
109.714139
20
194.407891
11
110.052287
21
192.371168
0
LINE
8
Layer 1
10
110.052287
20
192.371168
11
110.376819
21
190.384042
0
LINE
8
Layer 1
10
110.376819
20
190.384042
11
110.905697
21
188.290047
0
LINE
8
Layer 1
10
110.905697
20
188.290047
11
111.627822
21
186.114389
0
LINE
8
Layer 1
10
111.627822
20
186.114389
11
112.532095
21
183.882273
0
LINE
8
Layer 1
10
112.532095
20
183.882273
11
114.842692
21
179.349480
0
LINE
8
Layer 1
10
114.842692
20
179.349480
11
117.748696
21
174.893306
0
LINE
8
Layer 1
10
117.748696
20
174.893306
11
119.222738
21
173.054878
0
LINE
8
Layer 1
10
119.222738
20
173.054878
11
120.798970
21
171.447917
0
LINE
8
Layer 1
10
120.798970
20
171.447917
11
122.491375
21
170.064574
0
LINE
8
Layer 1
10
122.491375
20
170.064574
11
124.313940
21
168.896996
0
LINE
8
Layer 1
10
124.313940
20
168.896996
11
126.280650
21
167.937333
0
LINE
8
Layer 1
10
126.280650
20
167.937333
11
128.405490
21
167.177733
0
LINE
8
Layer 1
10
128.405490
20
167.177733
11
130.702444
21
166.610346
0
LINE
8
Layer 1
10
130.702444
20
166.610346
11
133.185498
21
166.227320
0
LINE
8
Layer 1
10
133.185498
20
166.227320
11
135.144968
21
166.065616
0
LINE
8
Layer 1
10
135.144968
20
166.065616
11
136.789675
21
166.119515
0
LINE
8
Layer 1
10
136.789675
20
166.119515
11
138.507968
21
166.431236
0
LINE
8
Layer 1
10
138.507968
20
166.431236
11
140.688195
21
167.043001
0
LINE
8
Layer 1
10
140.688195
20
167.043001
11
142.666787
21
167.836727
0
LINE
8
Layer 1
10
142.666787
20
167.836727
11
143.314646
21
168.334729
0
LINE
8
Layer 1
10
143.314646
20
168.334729
11
143.768971
21
168.966816
0
LINE
8
Layer 1
10
143.768971
20
168.966816
11
144.055330
21
169.782980
0
LINE
8
Layer 1
10
144.055330
20
169.782980
11
144.199291
21
170.833215
0
LINE
8
Layer 1
10
144.199291
20
170.833215
11
144.162295
21
173.835870
0
LINE
8
Layer 1
10
144.162295
20
173.835870
11
143.739536
21
178.343045
0
LINE
8
Layer 1
10
143.739536
20
178.343045
11
142.611320
21
184.737184
0
LINE
8
Layer 1
10
142.611320
20
184.737184
11
142.320081
21
187.266747
0
LINE
8
Layer 1
10
142.320081
20
187.266747
11
142.187447
21
190.438079
0
LINE
8
Layer 1
10
142.187447
20
190.438079
11
142.227366
21
193.337737
0
LINE
8
Layer 1
10
142.227366
20
193.337737
11
142.453789
21
195.052278
0
LINE
8
Layer 1
10
142.453789
20
195.052278
11
142.540364
21
196.159376
0
LINE
8
Layer 1
10
142.540364
20
196.159376
11
142.390427
21
197.913910
0
LINE
8
Layer 1
10
142.390427
20
197.913910
11
142.081999
21
199.711295
0
LINE
8
Layer 1
10
142.081999
20
199.711295
11
141.693098
21
200.946946
0
LINE
8
Layer 1
10
141.693098
20
200.946946
11
141.363315
21
201.281479
0
LINE
8
Layer 1
10
141.363315
20
201.281479
11
140.754653
21
201.621799
0
LINE
8
Layer 1
10
140.754653
20
201.621799
11
138.881232
21
202.270755
0
LINE
8
Layer 1
10
138.881232
20
202.270755
11
136.433907
21
202.795712
0
LINE
8
Layer 1
10
136.433907
20
202.795712
11
133.773751
21
203.098571
0
LINE
8
Layer 1
10
133.773751
20
203.098571
11
127.564862
21
203.798722
0
LINE
8
Layer 1
10
127.564862
20
203.798722
11
121.624615
21
204.653051
0
LINE
8
Layer 1
10
121.624615
20
204.653051
11
118.612911
21
204.850155
0
LINE
8
Layer 1
10
118.612911
20
204.850155
11
115.026629
21
204.863622
0
LINE
8
Layer 1
10
115.026629
20
204.863622
11
111.849957
21
204.713358
0
LINE
8
Layer 1
10
111.849957
20
204.713358
11
110.067084
21
204.419273
0
LINE
8
Layer 1
10
110.067084
20
204.419273
11
108.676705
21
203.630929
0
LINE
8
Layer 1
10
108.676705
20
203.630929
11
107.337319
21
202.602691
0
LINE
8
Layer 1
10
107.337319
20
202.602691
11
106.026889
21
201.315301
0
LINE
8
Layer 1
10
106.026889
20
201.315301
11
104.723376
21
199.749500
0
LINE
8
Layer 1
10
104.723376
20
199.749500
11
102.412527
21
197.019918
0
LINE
8
Layer 1
10
102.412527
20
197.019918
11
101.370741
21
196.113121
0
LINE
8
Layer 1
10
101.370741
20
196.113121
11
100.166881
21
195.278270
0
LINE
8
Layer 1
10
100.166881
20
195.278270
11
98.831820
21
194.476559
0
LINE
8
Layer 1
10
98.831820
20
194.476559
11
97.925002
21
194.084714
0
LINE
8
Layer 1
10
97.925002
20
194.084714
11
97.293007
21
194.061335
0
LINE
8
Layer 1
10
97.293007
20
194.061335
11
96.782416
21
194.365024
0
LINE
8
Layer 1
10
96.782416
20
194.365024
11
96.356052
21
194.905533
0
LINE
8
Layer 1
10
96.356052
20
194.905533
11
96.292049
21
195.454738
0
LINE
8
Layer 1
10
96.292049
20
195.454738
11
96.597684
21
196.047027
0
LINE
8
Layer 1
10
96.597684
20
196.047027
11
97.280239
21
196.716791
0
LINE
8
Layer 1
10
97.280239
20
196.716791
11
98.322282
21
197.575731
0
LINE
8
Layer 1
10
98.322282
20
197.575731
11
97.289304
21
198.007336
0
LINE
8
Layer 1
10
97.289304
20
198.007336
11
96.090664
21
198.438944
0
LINE
8
Layer 1
10
96.090664
20
198.438944
11
92.851529
21
199.814493
0
LINE
8
Layer 1
10
92.851529
20
199.814493
11
90.875973
21
200.508678
0
LINE
8
Layer 1
10
90.875973
20
200.508678
11
86.743208
21
201.494151
0
LINE
8
Layer 1
10
86.743208
20
201.494151
11
82.515149
21
201.997535
0
LINE
8
Layer 1
10
82.515149
20
201.997535
11
78.234169
21
202.016230
0
LINE
8
Layer 1
10
78.234169
20
202.016230
11
73.942640
21
201.547636
0
LINE
8
Layer 1
10
73.942640
20
201.547636
11
70.092061
21
200.777207
0
LINE
8
Layer 1
10
70.092061
20
200.777207
11
69.213030
21
200.371265
0
LINE
8
Layer 1
10
69.213030
20
200.371265
11
68.481979
21
199.772907
0
LINE
8
Layer 1
10
68.481979
20
199.772907
11
65.899307
21
197.592278
0
LINE
8
Layer 1
10
65.899307
20
197.592278
11
62.867431
21
195.767416
0
LINE
8
Layer 1
10
62.867431
20
195.767416
11
59.647913
21
193.329154
0
LINE
8
Layer 1
10
59.647913
20
193.329154
11
56.689530
21
190.649284
0
LINE
8
Layer 1
10
56.689530
20
190.649284
11
54.441059
21
188.099600
0
LINE
8
Layer 1
10
54.441059
20
188.099600
11
53.068714
21
186.451001
0
LINE
8
Layer 1
10
53.068714
20
186.451001
11
51.973944
21
184.861175
0
LINE
8
Layer 1
10
51.973944
20
184.861175
11
49.878708
21
181.223392
0
LINE
8
Layer 1
10
49.878708
20
181.223392
11
48.422588
21
177.852479
0
LINE
8
Layer 1
10
48.422588
20
177.852479
11
47.668572
21
175.751566
0
LINE
8
Layer 1
10
47.668572
20
175.751566
11
49.846673
21
178.082335
0
LINE
8
Layer 1
10
49.846673
20
178.082335
11
53.467011
21
181.543017
0
LINE
8
Layer 1
10
53.467011
20
181.543017
11
57.373410
21
184.572674
0
LINE
8
Layer 1
10
57.373410
20
184.572674
11
58.435140
21
185.469891
0
LINE
8
Layer 1
10
58.435140
20
185.469891
11
58.886400
21
186.304974
0
LINE
8
Layer 1
10
58.886400
20
186.304974
11
59.186608
21
187.049028
0
LINE
8
Layer 1
10
59.186608
20
187.049028
11
59.682143
21
187.706726
0
LINE
8
Layer 1
10
59.682143
20
187.706726
11
60.338992
21
188.140729
0
LINE
8
Layer 1
10
60.338992
20
188.140729
11
61.080754
21
187.954836
0
LINE
8
Layer 1
10
61.080754
20
187.954836
11
61.646038
21
187.557903
0
LINE
8
Layer 1
10
61.646038
20
187.557903
11
61.660704
21
187.025623
0
LINE
8
Layer 1
10
61.660704
20
187.025623
11
61.208639
21
184.942660
0
LINE
8
Layer 1
10
61.208639
20
184.942660
11
61.084816
21
182.436043
0
LINE
8
Layer 1
10
61.084816
20
182.436043
11
61.292406
21
179.291991
0
LINE
8
Layer 1
10
61.292406
20
179.291991
11
61.834576
21
175.296723
0
LINE
8
Layer 1
10
61.834576
20
175.296723
11
62.053810
21
172.840507
0
LINE
8
Layer 1
10
62.053810
20
172.840507
11
62.173462
21
169.511164
0
LINE
8
Layer 1
10
62.173462
20
169.511164
11
62.101164
21
165.892741
0
LINE
8
Layer 1
10
62.101164
20
165.892741
11
61.905286
21
164.756198
0
LINE
8
Layer 1
10
61.905286
20
164.756198
11
61.552229
21
163.584498
0
LINE
8
Layer 1
10
61.552229
20
163.584498
11
60.568343
21
161.089758
0
LINE
8
Layer 1
10
60.568343
20
161.089758
11
59.449478
21
159.106697
0
LINE
8
Layer 1
10
59.449478
20
159.106697
11
58.098463
21
157.493842
0
LINE
8
Layer 1
10
58.098463
20
157.493842
11
56.418127
21
156.109721
0
LINE
8
Layer 1
10
56.418127
20
156.109721
11
54.613605
21
154.959107
0
LINE
8
Layer 1
10
54.613605
20
154.959107
11
52.699129
21
153.956245
0
LINE
8
Layer 1
10
52.699129
20
153.956245
11
50.710558
21
153.118049
0
LINE
8
Layer 1
10
50.710558
20
153.118049
11
48.683751
21
152.461434
0
LINE
8
Layer 1
10
48.683751
20
152.461434
11
45.559269
21
151.573721
0
LINE
8
Layer 1
10
45.559269
20
151.573721
11
42.878158
21
151.287994
0
LINE
8
Layer 1
10
42.878158
20
151.287994
11
40.535662
21
151.060638
0
LINE
8
Layer 1
10
40.535662
20
151.060638
11
40.197575
21
150.813563
0
LINE
8
Layer 1
10
40.197575
20
150.813563
11
40.717732
21
150.387806
0
LINE
8
Layer 1
10
40.717732
20
150.387806
11
41.505933
21
149.447627
0
LINE
8
Layer 1
10
41.505933
20
149.447627
11
42.223495
21
147.837033
0
LINE
8
Layer 1
10
42.223495
20
147.837033
11
42.781135
21
145.810666
0
LINE
8
Layer 1
10
42.781135
20
145.810666
11
43.089568
21
143.623171
0
LINE
8
Layer 1
10
43.089568
20
143.623171
11
43.258418
21
141.230536
0
LINE
8
Layer 1
10
43.258418
20
141.230536
11
41.492895
21
138.357531
0
LINE
8
Layer 1
10
41.492895
20
138.357531
11
39.727370
21
135.484526
0
LINE
8
Layer 1
10
39.727370
20
135.484526
11
37.573337
21
134.475849
0
LINE
8
Layer 1
10
37.573337
20
134.475849
11
34.061915
21
132.986011
0
LINE
8
Layer 1
10
34.061915
20
132.986011
11
30.833071
21
132.271104
0
LINE
8
Layer 1
10
30.833071
20
132.271104
11
27.072484
21
131.863466
0
LINE
8
Layer 1
10
27.072484
20
131.863466
11
23.310695
21
131.891881
0
LINE
8
Layer 1
10
23.310695
20
131.891881
11
19.588319
21
132.353686
0
LINE
8
Layer 1
10
19.588319
20
132.353686
11
15.945973
21
133.246224
0
LINE
8
Layer 1
10
15.945973
20
133.246224
11
13.331940
21
133.963447
0
LINE
8
Layer 1
10
13.331940
20
133.963447
11
13.539850
21
130.336346
0
LINE
8
Layer 1
10
13.539850
20
130.336346
11
14.072274
21
125.871359
0
LINE
8
Layer 1
10
14.072274
20
125.871359
11
14.939338
21
122.882265
0
LINE
8
Layer 1
10
14.939338
20
122.882265
11
15.767501
21
121.034525
0
LINE
8
Layer 1
10
15.767501
20
121.034525
11
16.087084
21
120.396147
0
LINE
8
Layer 1
10
16.087084
20
120.396147
11
16.533679
21
119.677494
0
LINE
8
Layer 1
10
16.533679
20
119.677494
11
17.607409
21
118.397336
0
LINE
8
Layer 1
10
17.607409
20
118.397336
11
19.328102
21
116.857516
0
LINE
8
Layer 1
10
19.328102
20
116.857516
11
21.471019
21
115.581573
0
LINE
8
Layer 1
10
21.471019
20
115.581573
11
24.053716
21
114.560977
0
LINE
8
Layer 1
10
24.053716
20
114.560977
11
27.093750
21
113.787197
0
LINE
8
Layer 1
10
27.093750
20
113.787197
11
31.504993
21
113.049031
0
LINE
8
Layer 1
10
31.504993
20
113.049031
11
34.103578
21
112.785804
0
LINE
8
Layer 1
10
34.103578
20
112.785804
11
34.075603
21
113.016328
0
LINE
8
Layer 1
10
34.075603
20
113.016328
11
33.790558
21
113.448165
0
LINE
8
Layer 1
10
33.790558
20
113.448165
11
32.624391
21
114.739246
0
LINE
8
Layer 1
10
32.624391
20
114.739246
11
30.955348
21
116.305982
0
LINE
8
Layer 1
10
30.955348
20
116.305982
11
29.133701
21
117.795308
0
LINE
8
Layer 1
10
29.133701
20
117.795308
11
27.218405
21
119.305046
0
LINE
8
Layer 1
10
27.218405
20
119.305046
11
26.339951
21
120.146231
0
LINE
8
Layer 1
10
26.339951
20
120.146231
11
26.333347
21
120.733604
0
LINE
8
Layer 1
10
26.333347
20
120.733604
11
26.624654
21
121.380627
0
LINE
8
Layer 1
10
26.624654
20
121.380627
11
27.103692
21
121.917914
0
LINE
8
Layer 1
10
27.103692
20
121.917914
11
27.660280
21
122.176074
0
LINE
8
Layer 1
10
27.660280
20
122.176074
11
28.136265
21
122.090505
0
LINE
8
Layer 1
10
28.136265
20
122.090505
11
28.818885
21
121.690688
0
LINE
8
Layer 1
10
28.818885
20
121.690688
11
31.244650
21
119.636074
0
LINE
8
Layer 1
10
31.244650
20
119.636074
11
34.705533
21
116.263107
0
LINE
8
Layer 1
10
34.705533
20
116.263107
11
35.756388
21
115.182492
0
LINE
8
Layer 1
10
35.756388
20
115.182492
11
37.274806
21
113.947092
0
LINE
8
Layer 1
10
37.274806
20
113.947092
11
38.934606
21
112.801292
0
LINE
8
Layer 1
10
38.934606
20
112.801292
11
40.409608
21
111.989472
0
LINE
8
Layer 1
10
40.409608
20
111.989472
11
42.425717
21
111.265873
0
LINE
8
Layer 1
10
42.425717
20
111.265873
11
45.054399
21
110.507312
0
LINE
8
Layer 1
10
45.054399
20
110.507312
11
46.865169
21
110.081592
0
LINE
8
Layer 1
10
46.865169
20
110.081592
11
48.478266
21
109.844400
0
LINE
8
Layer 1
10
48.478266
20
109.844400
11
53.481529
21
109.711896
0
LINE
8
Layer 1
10
53.481529
20
109.711896
11
58.179259
21
109.806351
0
LINE
8
Layer 1
10
58.179259
20
109.806351
11
60.960418
21
110.207727
0
LINE
8
Layer 1
10
60.960418
20
110.207727
11
65.027781
21
111.389598
0
LINE
8
Layer 1
10
65.027781
20
111.389598
11
69.358105
21
112.934317
0
LINE
8
Layer 1
10
69.358105
20
112.934317
11
72.803694
21
114.397874
0
LINE
8
Layer 1
10
72.803694
20
114.397874
11
73.836058
21
114.960465
0
LINE
8
Layer 1
10
73.836058
20
114.960465
11
74.216853
21
115.336261
0
LINE
8
Layer 1
10
74.216853
20
115.336261
11
74.657749
21
115.760958
0
LINE
8
Layer 1
10
74.657749
20
115.760958
11
75.706529
21
116.369205
0
LINE
8
Layer 1
10
75.706529
20
116.369205
11
77.689788
21
117.495277
0
LINE
8
Layer 1
10
77.689788
20
117.495277
11
79.371476
21
118.744570
0
LINE
8
Layer 1
10
79.371476
20
118.744570
11
80.750391
21
120.116052
0
LINE
8
Layer 1
10
80.750391
20
120.116052
11
81.825327
21
121.608692
0
LINE
8
Layer 1
10
81.825327
20
121.608692
11
82.935106
21
123.657431
0
LINE
8
Layer 1
10
82.935106
20
123.657431
11
83.758060
21
125.588430
0
LINE
8
Layer 1
10
83.758060
20
125.588430
11
84.299288
21
127.415734
0
LINE
8
Layer 1
10
84.299288
20
127.415734
11
84.563887
21
129.153387
0
LINE
8
Layer 1
10
84.563887
20
129.153387
11
84.950989
21
131.834498
0
LINE
8
Layer 1
10
84.950989
20
131.834498
11
85.367774
21
136.238821
0
LINE
8
Layer 1
10
85.367774
20
136.238821
11
85.546404
21
139.937586
0
LINE
8
Layer 1
10
85.546404
20
139.937586
11
83.907300
21
140.092170
0
LINE
8
Layer 1
10
83.907300
20
140.092170
11
82.355894
21
140.372195
0
LINE
8
Layer 1
10
82.355894
20
140.372195
11
80.927640
21
140.828372
0
LINE
8
Layer 1
10
80.927640
20
140.828372
11
79.819824
21
141.454195
0
LINE
8
Layer 1
10
79.819824
20
141.454195
11
79.632469
21
141.788814
0
LINE
8
Layer 1
10
79.632469
20
141.788814
11
79.587084
21
142.246206
0
LINE
8
Layer 1
10
79.587084
20
142.246206
11
79.769736
21
143.020697
0
LINE
8
Layer 1
10
79.769736
20
143.020697
11
80.330700
21
143.667347
0
LINE
8
Layer 1
10
80.330700
20
143.667347
11
80.913154
21
144.070582
0
LINE
8
Layer 1
10
80.913154
20
144.070582
11
81.404147
21
144.216310
0
LINE
8
Layer 1
10
81.404147
20
144.216310
11
81.955423
21
144.110316
0
LINE
8
Layer 1
10
81.955423
20
144.110316
11
82.718724
21
143.758387
0
LINE
8
Layer 1
10
82.718724
20
143.758387
11
83.345969
21
143.513461
0
LINE
8
Layer 1
10
83.345969
20
143.513461
11
84.178090
21
143.370282
0
LINE
8
Layer 1
10
84.178090
20
143.370282
11
87.207084
21
143.315069
0
LINE
8
Layer 1
10
87.207084
20
143.315069
11
90.071640
21
143.435202
0
LINE
8
Layer 1
10
90.071640
20
143.435202
11
92.004862
21
143.653022
0
LINE
8
Layer 1
10
92.004862
20
143.653022
11
95.059949
21
144.348002
0
LINE
8
Layer 1
10
95.059949
20
144.348002
11
96.947135
21
145.003223
0
LINE
8
Layer 1
10
96.947135
20
145.003223
11
99.006668
21
146.076447
0
LINE
8
Layer 1
10
99.006668
20
146.076447
11
101.711595
21
147.463225
0
LINE
8
Layer 1
10
101.711595
20
147.463225
11
102.463997
21
147.616020
0
LINE
8
Layer 1
10
102.463997
20
147.616020
11
102.661619
21
147.547282
0
LINE
8
Layer 1
10
102.661619
20
147.547282
11
102.729307
21
147.377983
0
LINE
8
Layer 1
10
102.729307
20
147.377983
11
102.468228
21
146.486113
0
LINE
8
Layer 1
10
102.468228
20
146.486113
11
101.739117
21
145.461707
0
LINE
8
Layer 1
10
101.739117
20
145.461707
11
100.623155
21
144.396700
0
LINE
8
Layer 1
10
100.623155
20
144.396700
11
99.201529
21
143.383028
0
LINE
8
Layer 1
10
99.201529
20
143.383028
11
97.677634
21
142.486471
0
LINE
8
Layer 1
10
97.677634
20
142.486471
11
96.344863
21
141.925592
0
LINE
8
Layer 1
10
96.344863
20
141.925592
11
94.580778
21
141.502651
0
LINE
8
Layer 1
10
94.580778
20
141.502651
11
91.762941
21
141.019911
0
LINE
8
Layer 1
10
91.762941
20
141.019911
11
90.038304
21
140.678739
0
LINE
8
Layer 1
10
90.038304
20
140.678739
11
89.203894
21
140.397910
0
LINE
8
Layer 1
10
89.203894
20
140.397910
11
88.651384
21
138.543251
0
LINE
8
Layer 1
10
88.651384
20
138.543251
11
88.200205
21
135.362275
0
LINE
8
Layer 1
10
88.200205
20
135.362275
11
87.768359
21
132.116720
0
LINE
8
Layer 1
10
87.768359
20
132.116720
11
86.785105
21
127.715313
0
LINE
8
Layer 1
10
86.785105
20
127.715313
11
85.856368
21
124.533230
0
LINE
8
Layer 1
10
85.856368
20
124.533230
11
84.801162
21
122.054024
0
LINE
8
Layer 1
10
84.801162
20
122.054024
11
83.438503
21
119.761246
0
LINE
8
Layer 1
10
83.438503
20
119.761246
11
82.197158
21
118.133596
0
LINE
8
Layer 1
10
82.197158
20
118.133596
11
80.663673
21
116.465693
0
LINE
8
Layer 1
10
80.663673
20
116.465693
11
79.078498
21
114.999199
0
LINE
8
Layer 1
10
79.078498
20
114.999199
11
77.682084
21
113.975777
0
LINE
8
Layer 1
10
77.682084
20
113.975777
11
76.764862
21
113.209931
0
LINE
8
Layer 1
10
76.764862
20
113.209931
11
77.938568
21
110.030115
0
LINE
8
Layer 1
10
77.938568
20
110.030115
11
79.516941
21
106.293387
0
LINE
8
Layer 1
10
79.516941
20
106.293387
11
80.335489
21
105.026253
0
LINE
8
Layer 1
10
80.335489
20
105.026253
11
81.435865
21
103.749368
0
LINE
8
Layer 1
10
81.435865
20
103.749368
11
82.635364
21
102.651392
0
LINE
8
Layer 1
10
82.635364
20
102.651392
11
83.751285
21
101.920983
0
LINE
8
Layer 1
10
83.751285
20
101.920983
11
86.078195
21
100.784239
0
LINE
8
Layer 1
10
86.078195
20
100.784239
11
86.901504
21
100.409350
0
LINE
8
Layer 1
10
86.901504
20
100.409350
11
87.525864
21
100.300499
0
LINE
8
Layer 1
10
87.525864
20
100.300499
11
88.187207
21
100.468550
0
LINE
8
Layer 1
10
88.187207
20
100.468550
11
89.121465
21
100.924366
0
LINE
8
Layer 1
10
89.121465
20
100.924366
11
89.121465
21
100.924366
0
LINE
8
Layer 1
10
51.866825
20
126.472275
11
51.435668
21
127.377960
0
LINE
8
Layer 1
10
51.435668
20
127.377960
11
51.444435
21
128.955351
0
LINE
8
Layer 1
10
51.444435
20
128.955351
11
51.677063
21
130.415496
0
LINE
8
Layer 1
10
51.677063
20
130.415496
11
52.082754
21
131.283685
0
LINE
8
Layer 1
10
52.082754
20
131.283685
11
52.500079
21
131.606792
0
LINE
8
Layer 1
10
52.500079
20
131.606792
11
53.007114
21
131.781647
0
LINE
8
Layer 1
10
53.007114
20
131.781647
11
54.164948
21
131.720159
0
LINE
8
Layer 1
10
54.164948
20
131.720159
11
55.305522
21
131.166344
0
LINE
8
Layer 1
10
55.305522
20
131.166344
11
56.178103
21
130.187325
0
LINE
8
Layer 1
10
56.178103
20
130.187325
11
56.457426
21
129.315948
0
LINE
8
Layer 1
10
56.457426
20
129.315948
11
56.245780
21
128.030213
0
LINE
8
Layer 1
10
56.245780
20
128.030213
11
55.847743
21
126.930317
0
LINE
8
Layer 1
10
55.847743
20
126.930317
11
55.281880
21
126.194926
0
LINE
8
Layer 1
10
55.281880
20
126.194926
11
54.516455
21
125.797025
0
LINE
8
Layer 1
10
54.516455
20
125.797025
11
53.519736
21
125.709601
0
LINE
8
Layer 1
10
53.519736
20
125.709601
11
52.551191
21
125.916587
0
LINE
8
Layer 1
10
52.551191
20
125.916587
11
51.866825
21
126.472275
0
LINE
8
Layer 1
10
51.866825
20
126.472275
11
51.866825
21
126.472275
0
LINE
8
Layer 1
10
54.840609
20
128.322993
11
54.917347
21
129.148654
0
LINE
8
Layer 1
10
54.917347
20
129.148654
11
54.820866
21
129.723595
0
LINE
8
Layer 1
10
54.820866
20
129.723595
11
54.531825
21
130.095306
0
LINE
8
Layer 1
10
54.531825
20
130.095306
11
54.030883
21
130.311282
0
LINE
8
Layer 1
10
54.030883
20
130.311282
11
53.442731
21
130.391056
0
LINE
8
Layer 1
10
53.442731
20
130.391056
11
53.086357
21
130.211436
0
LINE
8
Layer 1
10
53.086357
20
130.211436
11
52.897811
21
129.690166
0
LINE
8
Layer 1
10
52.897811
20
129.690166
11
52.813139
21
128.744991
0
LINE
8
Layer 1
10
52.813139
20
128.744991
11
52.748070
21
127.318942
0
LINE
8
Layer 1
10
52.748070
20
127.318942
11
53.712872
21
127.318942
0
LINE
8
Layer 1
10
53.712872
20
127.318942
11
54.242192
21
127.346027
0
LINE
8
Layer 1
10
54.242192
20
127.346027
11
54.553171
21
127.474839
0
LINE
8
Layer 1
10
54.553171
20
127.474839
11
54.725935
21
127.776715
0
LINE
8
Layer 1
10
54.725935
20
127.776715
11
54.840609
21
128.322993
0
LINE
8
Layer 1
10
54.840609
20
128.322993
11
54.840609
21
128.322993
0
LINE
8
Layer 1
10
44.309307
20
126.472275
11
43.880661
21
127.194633
0
LINE
8
Layer 1
10
43.880661
20
127.194633
11
43.744862
21
128.257526
0
LINE
8
Layer 1
10
43.744862
20
128.257526
11
43.898888
21
129.327901
0
LINE
8
Layer 1
10
43.898888
20
129.327901
11
44.391936
21
130.091290
0
LINE
8
Layer 1
10
44.391936
20
130.091290
11
45.270459
21
130.590453
0
LINE
8
Layer 1
10
45.270459
20
130.590453
11
46.580910
21
130.868152
0
LINE
8
Layer 1
10
46.580910
20
130.868152
11
47.960394
21
130.917648
0
LINE
8
Layer 1
10
47.960394
20
130.917648
11
48.266901
21
130.724024
0
LINE
8
Layer 1
10
48.266901
20
130.724024
11
48.517477
21
130.329291
0
LINE
8
Layer 1
10
48.517477
20
130.329291
11
48.792597
21
129.373506
0
LINE
8
Layer 1
10
48.792597
20
129.373506
11
48.739387
21
128.307255
0
LINE
8
Layer 1
10
48.739387
20
128.307255
11
48.391886
21
127.306152
0
LINE
8
Layer 1
10
48.391886
20
127.306152
11
47.784134
21
126.545814
0
LINE
8
Layer 1
10
47.784134
20
126.545814
11
46.918990
21
126.078651
0
LINE
8
Layer 1
10
46.918990
20
126.078651
11
45.955675
21
125.908646
0
LINE
8
Layer 1
10
45.955675
20
125.908646
11
45.037882
21
126.038840
0
LINE
8
Layer 1
10
45.037882
20
126.038840
11
44.309307
21
126.472275
0
LINE
8
Layer 1
10
44.309307
20
126.472275
11
44.309307
21
126.472275
0
LINE
8
Layer 1
10
46.970259
20
127.762435
11
47.283475
21
128.278565
0
LINE
8
Layer 1
10
47.283475
20
128.278565
11
47.413751
21
128.896700
0
LINE
8
Layer 1
10
47.413751
20
128.896700
11
47.281294
21
129.440557
0
LINE
8
Layer 1
10
47.281294
20
129.440557
11
46.637640
21
129.417414
0
LINE
8
Layer 1
10
46.637640
20
129.417414
11
45.373406
21
129.005640
0
LINE
8
Layer 1
10
45.373406
20
129.005640
11
45.191208
21
128.690603
0
LINE
8
Layer 1
10
45.191208
20
128.690603
11
45.155973
21
128.174465
0
LINE
8
Layer 1
10
45.155973
20
128.174465
11
45.283054
21
127.477566
0
LINE
8
Layer 1
10
45.283054
20
127.477566
11
45.841370
21
127.318942
0
LINE
8
Layer 1
10
45.841370
20
127.318942
11
46.455708
21
127.449218
0
LINE
8
Layer 1
10
46.455708
20
127.449218
11
46.970259
21
127.762435
0
LINE
8
Layer 1
10
46.970259
20
127.762435
11
46.970259
21
127.762435
0
LINE
8
Layer 1
10
54.707073
20
132.892831
11
53.913524
21
134.019947
0
LINE
8
Layer 1
10
53.913524
20
134.019947
11
53.416532
21
135.116239
0
LINE
8
Layer 1
10
53.416532
20
135.116239
11
53.246610
21
136.087127
0
LINE
8
Layer 1
10
53.246610
20
136.087127
11
53.434271
21
136.838032
0
LINE
8
Layer 1
10
53.434271
20
136.838032
11
54.098277
21
137.356361
0
LINE
8
Layer 1
10
54.098277
20
137.356361
11
55.275915
21
137.918642
0
LINE
8
Layer 1
10
55.275915
20
137.918642
11
56.564548
21
138.360880
0
LINE
8
Layer 1
10
56.564548
20
138.360880
11
57.561542
21
138.519081
0
LINE
8
Layer 1
10
57.561542
20
138.519081
11
58.094170
21
138.460663
0
LINE
8
Layer 1
10
58.094170
20
138.460663
11
58.416702
21
138.306359
0
LINE
8
Layer 1
10
58.416702
20
138.306359
11
58.756739
21
137.407613
0
LINE
8
Layer 1
10
58.756739
20
137.407613
11
58.759353
21
136.323979
0
LINE
8
Layer 1
10
58.759353
20
136.323979
11
58.471988
21
134.994198
0
LINE
8
Layer 1
10
58.471988
20
134.994198
11
57.985847
21
133.724743
0
LINE
8
Layer 1
10
57.985847
20
133.724743
11
57.392133
21
132.822086
0
LINE
8
Layer 1
10
57.392133
20
132.822086
11
56.799526
21
132.502539
0
LINE
8
Layer 1
10
56.799526
20
132.502539
11
56.023502
21
132.411265
0
LINE
8
Layer 1
10
56.023502
20
132.411265
11
55.260529
21
132.543088
0
LINE
8
Layer 1
10
55.260529
20
132.543088
11
54.707073
21
132.892831
0
LINE
8
Layer 1
10
54.707073
20
132.892831
11
54.707073
21
132.892831
0
LINE
8
Layer 1
10
57.016907
20
135.009498
11
57.567553
21
136.561720
0
LINE
8
Layer 1
10
57.567553
20
136.561720
11
57.402529
21
136.833803
0
LINE
8
Layer 1
10
57.402529
20
136.833803
11
56.949244
21
136.895876
0
LINE
8
Layer 1
10
56.949244
20
136.895876
11
56.290360
21
136.753879
0
LINE
8
Layer 1
10
56.290360
20
136.753879
11
55.508536
21
136.413754
0
LINE
8
Layer 1
10
55.508536
20
136.413754
11
54.772942
21
135.880942
0
LINE
8
Layer 1
10
54.772942
20
135.880942
11
54.740274
21
135.603969
0
LINE
8
Layer 1
10
54.740274
20
135.603969
11
54.874561
21
135.213003
0
LINE
8
Layer 1
10
54.874561
20
135.213003
11
55.430555
21
134.183912
0
LINE
8
Layer 1
10
55.430555
20
134.183912
11
55.953590
21
133.808803
0
LINE
8
Layer 1
10
55.953590
20
133.808803
11
56.472697
21
134.084917
0
LINE
8
Layer 1
10
56.472697
20
134.084917
11
57.016907
21
135.009498
0
LINE
8
Layer 1
10
57.016907
20
135.009498
11
57.016907
21
135.009498
0
LINE
8
Layer 1
10
46.990418
20
133.289277
11
46.209806
21
133.949509
0
LINE
8
Layer 1
10
46.209806
20
133.949509
11
45.778928
21
134.842345
0
LINE
8
Layer 1
10
45.778928
20
134.842345
11
45.716626
21
135.893510
0
LINE
8
Layer 1
10
45.716626
20
135.893510
11
46.041745
21
137.028730
0
LINE
8
Layer 1
10
46.041745
20
137.028730
11
46.468215
21
137.575575
0
LINE
8
Layer 1
10
46.468215
20
137.575575
11
47.154916
21
138.085045
0
LINE
8
Layer 1
10
47.154916
20
138.085045
11
47.942061
21
138.461133
0
LINE
8
Layer 1
10
47.942061
20
138.461133
11
48.669863
21
138.607831
0
LINE
8
Layer 1
10
48.669863
20
138.607831
11
49.318823
21
138.477115
0
LINE
8
Layer 1
10
49.318823
20
138.477115
11
50.009903
21
138.133090
0
LINE
8
Layer 1
10
50.009903
20
138.133090
11
50.629040
21
137.647941
0
LINE
8
Layer 1
10
50.629040
20
137.647941
11
51.062173
21
137.093853
0
LINE
8
Layer 1
10
51.062173
20
137.093853
11
51.303435
21
136.343005
0
LINE
8
Layer 1
10
51.303435
20
136.343005
11
51.070327
21
135.473657
0
LINE
8
Layer 1
10
51.070327
20
135.473657
11
50.279659
21
134.139680
0
LINE
8
Layer 1
10
50.279659
20
134.139680
11
49.268149
21
133.294567
0
LINE
8
Layer 1
10
49.268149
20
133.294567
11
48.137751
21
132.992904
0
LINE
8
Layer 1
10
48.137751
20
132.992904
11
47.559829
21
133.062925
0
LINE
8
Layer 1
10
47.559829
20
133.062925
11
46.990418
21
133.289277
0
LINE
8
Layer 1
10
46.990418
20
133.289277
11
46.990418
21
133.289277
0
LINE
8
Layer 1
10
49.155418
20
134.841573
11
49.528966
21
135.365252
0
LINE
8
Layer 1
10
49.528966
20
135.365252
11
49.652930
21
135.957725
0
LINE
8
Layer 1
10
49.652930
20
135.957725
11
49.527461
21
136.504248
0
LINE
8
Layer 1
10
49.527461
20
136.504248
11
49.152711
21
136.890080
0
LINE
8
Layer 1
10
49.152711
20
136.890080
11
48.533012
21
137.073988
0
LINE
8
Layer 1
10
48.533012
20
137.073988
11
47.970414
21
136.972722
0
LINE
8
Layer 1
10
47.970414
20
136.972722
11
47.526737
21
136.614508
0
LINE
8
Layer 1
10
47.526737
20
136.614508
11
47.263798
21
136.027572
0
LINE
8
Layer 1
10
47.263798
20
136.027572
11
47.275168
21
135.097669
0
LINE
8
Layer 1
10
47.275168
20
135.097669
11
47.689280
21
134.530439
0
LINE
8
Layer 1
10
47.689280
20
134.530439
11
48.363556
21
134.415276
0
LINE
8
Layer 1
10
48.363556
20
134.415276
11
49.155418
21
134.841573
0
LINE
8
Layer 1
10
49.155418
20
134.841573
11
49.155418
21
134.841573
0
LINE
8
Layer 1
10
32.306627
20
135.243412
11
33.411695
21
135.441698
0
LINE
8
Layer 1
10
33.411695
20
135.441698
11
34.335985
21
135.747861
0
LINE
8
Layer 1
10
34.335985
20
135.747861
11
36.593701
21
137.094688
0
LINE
8
Layer 1
10
36.593701
20
137.094688
11
38.342044
21
138.411932
0
LINE
8
Layer 1
10
38.342044
20
138.411932
11
39.506586
21
139.638957
0
LINE
8
Layer 1
10
39.506586
20
139.638957
11
40.191548
21
140.916917
0
LINE
8
Layer 1
10
40.191548
20
140.916917
11
40.501149
21
142.386967
0
LINE
8
Layer 1
10
40.501149
20
142.386967
11
40.517247
21
143.756119
0
LINE
8
Layer 1
10
40.517247
20
143.756119
11
40.249931
21
145.013063
0
LINE
8
Layer 1
10
40.249931
20
145.013063
11
39.653937
21
146.290693
0
LINE
8
Layer 1
10
39.653937
20
146.290693
11
38.683997
21
147.721907
0
LINE
8
Layer 1
10
38.683997
20
147.721907
11
37.305085
21
149.248550
0
LINE
8
Layer 1
10
37.305085
20
149.248550
11
37.052575
21
149.243187
0
LINE
8
Layer 1
10
37.052575
20
149.243187
11
37.135949
21
148.697275
0
LINE
8
Layer 1
10
37.135949
20
148.697275
11
37.346884
21
146.717608
0
LINE
8
Layer 1
10
37.346884
20
146.717608
11
37.146951
21
144.107688
0
LINE
8
Layer 1
10
37.146951
20
144.107688
11
36.640078
21
141.617424
0
LINE
8
Layer 1
10
36.640078
20
141.617424
11
36.304014
21
140.651507
0
LINE
8
Layer 1
10
36.304014
20
140.651507
11
35.930188
21
139.996720
0
LINE
8
Layer 1
10
35.930188
20
139.996720
11
35.560418
21
139.334731
0
LINE
8
Layer 1
10
35.560418
20
139.334731
11
35.406087
21
138.912479
0
LINE
8
Layer 1
10
35.406087
20
138.912479
11
34.993248
21
138.389994
0
LINE
8
Layer 1
10
34.993248
20
138.389994
11
33.692975
21
137.263976
0
LINE
8
Layer 1
10
33.692975
20
137.263976
11
32.261457
21
136.395989
0
LINE
8
Layer 1
10
32.261457
20
136.395989
11
31.684560
21
136.196041
0
LINE
8
Layer 1
10
31.684560
20
136.196041
11
31.300547
21
136.225342
0
LINE
8
Layer 1
10
31.300547
20
136.225342
11
31.006883
21
136.692233
0
LINE
8
Layer 1
10
31.006883
20
136.692233
11
31.066864
21
137.398479
0
LINE
8
Layer 1
10
31.066864
20
137.398479
11
31.439257
21
138.200262
0
LINE
8
Layer 1
10
31.439257
20
138.200262
11
32.082827
21
138.953765
0
LINE
8
Layer 1
10
32.082827
20
138.953765
11
33.620162
21
140.356833
0
LINE
8
Layer 1
10
33.620162
20
140.356833
11
34.152261
21
141.158310
0
LINE
8
Layer 1
10
34.152261
20
141.158310
11
34.504675
21
142.294329
0
LINE
8
Layer 1
10
34.504675
20
142.294329
11
34.682697
21
143.657063
0
LINE
8
Layer 1
10
34.682697
20
143.657063
11
34.691618
21
145.138687
0
LINE
8
Layer 1
10
34.691618
20
145.138687
11
34.536731
21
146.631373
0
LINE
8
Layer 1
10
34.536731
20
146.631373
11
34.223325
21
148.027297
0
LINE
8
Layer 1
10
34.223325
20
148.027297
11
33.756694
21
149.218631
0
LINE
8
Layer 1
10
33.756694
20
149.218631
11
33.142129
21
150.097549
0
LINE
8
Layer 1
10
33.142129
20
150.097549
11
32.422640
21
151.434854
0
LINE
8
Layer 1
10
32.422640
20
151.434854
11
32.189368
21
151.979909
0
LINE
8
Layer 1
10
32.189368
20
151.979909
11
31.879322
21
152.290508
0
LINE
8
Layer 1
10
31.879322
20
152.290508
11
30.359333
21
152.579928
0
LINE
8
Layer 1
10
30.359333
20
152.579928
11
27.765272
21
152.590008
0
LINE
8
Layer 1
10
27.765272
20
152.590008
11
24.325792
21
152.291380
0
LINE
8
Layer 1
10
24.325792
20
152.291380
11
20.859927
21
151.780105
0
LINE
8
Layer 1
10
20.859927
20
151.780105
11
18.186713
21
151.152245
0
LINE
8
Layer 1
10
18.186713
20
151.152245
11
16.281548
21
150.449007
0
LINE
8
Layer 1
10
16.281548
20
150.449007
11
14.587383
21
149.656791
0
LINE
8
Layer 1
10
14.587383
20
149.656791
11
13.117480
21
148.787129
0
LINE
8
Layer 1
10
13.117480
20
148.787129
11
11.885097
21
147.851553
0
LINE
8
Layer 1
10
11.885097
20
147.851553
11
10.903495
21
146.861595
0
LINE
8
Layer 1
10
10.903495
20
146.861595
11
10.185934
21
145.828789
0
LINE
8
Layer 1
10
10.185934
20
145.828789
11
9.745673
21
144.764666
0
LINE
8
Layer 1
10
9.745673
20
144.764666
11
9.595973
21
143.680759
0
LINE
8
Layer 1
10
9.595973
20
143.680759
11
9.782498
21
142.061619
0
LINE
8
Layer 1
10
9.782498
20
142.061619
11
10.318214
21
140.596856
0
LINE
8
Layer 1
10
10.318214
20
140.596856
11
11.167332
21
139.356383
0
LINE
8
Layer 1
10
11.167332
20
139.356383
11
12.294062
21
138.410115
0
LINE
8
Layer 1
10
12.294062
20
138.410115
11
15.195425
21
136.854427
0
LINE
8
Layer 1
10
15.195425
20
136.854427
11
17.498195
21
135.942939
0
LINE
8
Layer 1
10
17.498195
20
135.942939
11
19.215387
21
135.470844
0
LINE
8
Layer 1
10
19.215387
20
135.470844
11
21.450457
21
135.022433
0
LINE
8
Layer 1
10
21.450457
20
135.022433
11
24.773492
21
134.828176
0
LINE
8
Layer 1
10
24.773492
20
134.828176
11
28.590284
21
134.898395
0
LINE
8
Layer 1
10
28.590284
20
134.898395
11
32.306627
21
135.243412
0
LINE
8
Layer 1
10
32.306627
20
135.243412
11
32.306627
21
135.243412
0
LINE
8
Layer 1
10
75.071529
20
153.236349
11
74.873824
21
153.669241
0
LINE
8
Layer 1
10
74.873824
20
153.669241
11
74.172425
21
155.480168
0
LINE
8
Layer 1
10
74.172425
20
155.480168
11
73.833966
21
157.054378
0
LINE
8
Layer 1
10
73.833966
20
157.054378
11
73.683088
21
158.819457
0
LINE
8
Layer 1
10
73.683088
20
158.819457
11
73.729426
21
160.461405
0
LINE
8
Layer 1
10
73.729426
20
160.461405
11
73.982614
21
161.666219
0
LINE
8
Layer 1
10
73.982614
20
161.666219
11
75.125061
21
164.171152
0
LINE
8
Layer 1
10
75.125061
20
164.171152
11
75.553603
21
164.765206
0
LINE
8
Layer 1
10
75.553603
20
164.765206
11
75.992855
21
165.101157
0
LINE
8
Layer 1
10
75.992855
20
165.101157
11
76.703015
21
165.280572
0
LINE
8
Layer 1
10
76.703015
20
165.280572
11
77.505217
21
165.041773
0
LINE
8
Layer 1
10
77.505217
20
165.041773
11
78.492813
21
164.335464
0
LINE
8
Layer 1
10
78.492813
20
164.335464
11
79.759152
21
163.112351
0
LINE
8
Layer 1
10
79.759152
20
163.112351
11
80.815319
21
161.815151
0
LINE
8
Layer 1
10
80.815319
20
161.815151
11
81.478263
21
160.484495
0
LINE
8
Layer 1
10
81.478263
20
160.484495
11
81.789560
21
159.000261
0
LINE
8
Layer 1
10
81.789560
20
159.000261
11
81.790786
21
157.242324
0
LINE
8
Layer 1
10
81.790786
20
157.242324
11
81.761700
21
156.040880
0
LINE
8
Layer 1
10
81.761700
20
156.040880
11
81.864570
21
155.541164
0
LINE
8
Layer 1
10
81.864570
20
155.541164
11
82.412190
21
155.931105
0
LINE
8
Layer 1
10
82.412190
20
155.931105
11
83.248671
21
156.882757
0
LINE
8
Layer 1
10
83.248671
20
156.882757
11
84.113562
21
158.068864
0
LINE
8
Layer 1
10
84.113562
20
158.068864
11
84.746409
21
159.162169
0
LINE
8
Layer 1
10
84.746409
20
159.162169
11
85.062175
21
159.985759
0
LINE
8
Layer 1
10
85.062175
20
159.985759
11
85.246885
21
160.940732
0
LINE
8
Layer 1
10
85.246885
20
160.940732
11
85.361661
21
164.431164
0
LINE
8
Layer 1
10
85.361661
20
164.431164
11
85.256469
21
167.952515
0
LINE
8
Layer 1
10
85.256469
20
167.952515
11
84.849595
21
170.357834
0
LINE
8
Layer 1
10
84.849595
20
170.357834
11
84.295425
21
172.092561
0
LINE
8
Layer 1
10
84.295425
20
172.092561
11
83.580699
21
173.803181
0
LINE
8
Layer 1
10
83.580699
20
173.803181
11
82.784258
21
175.321246
0
LINE
8
Layer 1
10
82.784258
20
175.321246
11
81.984943
21
176.478305
0
LINE
8
Layer 1
10
81.984943
20
176.478305
11
81.280418
21
177.540025
0
LINE
8
Layer 1
10
81.280418
20
177.540025
11
80.785713
21
178.217969
0
LINE
8
Layer 1
10
80.785713
20
178.217969
11
79.597859
21
179.385674
0
LINE
8
Layer 1
10
79.597859
20
179.385674
11
76.920273
21
181.553948
0
LINE
8
Layer 1
10
76.920273
20
181.553948
11
75.871936
21
182.117771
0
LINE
8
Layer 1
10
75.871936
20
182.117771
11
75.152611
21
182.352281
0
LINE
8
Layer 1
10
75.152611
20
182.352281
11
74.422475
21
181.956517
0
LINE
8
Layer 1
10
74.422475
20
181.956517
11
73.353272
21
181.046930
0
LINE
8
Layer 1
10
73.353272
20
181.046930
11
72.387357
21
180.040079
0
LINE
8
Layer 1
10
72.387357
20
180.040079
11
71.967084
21
179.352521
0
LINE
8
Layer 1
10
71.967084
20
179.352521
11
71.731951
21
178.918574
0
LINE
8
Layer 1
10
71.731951
20
178.918574
11
71.163318
21
178.201969
0
LINE
8
Layer 1
10
71.163318
20
178.201969
11
70.327819
21
176.644105
0
LINE
8
Layer 1
10
70.327819
20
176.644105
11
68.746861
21
172.823220
0
LINE
8
Layer 1
10
68.746861
20
172.823220
11
68.043959
21
170.183101
0
LINE
8
Layer 1
10
68.043959
20
170.183101
11
67.450473
21
167.164812
0
LINE
8
Layer 1
10
67.450473
20
167.164812
11
67.040237
21
164.207885
0
LINE
8
Layer 1
10
67.040237
20
164.207885
11
66.887084
21
161.751854
0
LINE
8
Layer 1
10
66.887084
20
161.751854
11
67.013630
21
159.746674
0
LINE
8
Layer 1
10
67.013630
20
159.746674
11
67.266585
21
159.200780
0
LINE
8
Layer 1
10
67.266585
20
159.200780
11
67.730237
21
158.649371
0
LINE
8
Layer 1
10
67.730237
20
158.649371
11
68.415905
21
157.667236
0
LINE
8
Layer 1
10
68.415905
20
157.667236
11
68.880423
21
156.573412
0
LINE
8
Layer 1
10
68.880423
20
156.573412
11
69.277186
21
155.273369
0
LINE
8
Layer 1
10
69.277186
20
155.273369
11
69.722028
21
154.438627
0
LINE
8
Layer 1
10
69.722028
20
154.438627
11
70.342984
21
153.904776
0
LINE
8
Layer 1
10
70.342984
20
153.904776
11
71.268088
21
153.507406
0
LINE
8
Layer 1
10
71.268088
20
153.507406
11
72.485119
21
153.195180
0
LINE
8
Layer 1
10
72.485119
20
153.195180
11
73.723358
21
153.031770
0
LINE
8
Layer 1
10
73.723358
20
153.031770
11
74.684822
21
153.038415
0
LINE
8
Layer 1
10
74.684822
20
153.038415
11
75.071529
21
153.236349
0
LINE
8
Layer 1
10
75.071529
20
153.236349
11
75.071529
21
153.236349
0
LINE
8
Layer 1
10
47.258529
20
155.008439
11
48.091917
21
155.258942
0
LINE
8
Layer 1
10
48.091917
20
155.258942
11
48.345938
21
155.297509
0
LINE
8
Layer 1
10
48.345938
20
155.297509
11
48.368517
21
155.450243
0
LINE
8
Layer 1
10
48.368517
20
155.450243
11
47.620713
21
156.320394
0
LINE
8
Layer 1
10
47.620713
20
156.320394
11
46.771746
21
157.400740
0
LINE
8
Layer 1
10
46.771746
20
157.400740
11
46.186098
21
158.507616
0
LINE
8
Layer 1
10
46.186098
20
158.507616
11
45.787965
21
159.633387
0
LINE
8
Layer 1
10
45.787965
20
159.633387
11
45.581006
21
158.571503
0
LINE
8
Layer 1
10
45.581006
20
158.571503
11
45.492122
21
157.363073
0
LINE
8
Layer 1
10
45.492122
20
157.363073
11
45.569051
21
155.948854
0
LINE
8
Layer 1
10
45.569051
20
155.948854
11
45.828942
21
154.658962
0
LINE
8
Layer 1
10
45.828942
20
154.658962
11
46.038298
21
154.514422
0
LINE
8
Layer 1
10
46.038298
20
154.514422
11
46.377236
21
154.573012
0
LINE
8
Layer 1
10
46.377236
20
154.573012
11
47.258529
21
155.008439
0
LINE
8
Layer 1
10
47.258529
20
155.008439
11
47.258529
21
155.008439
0
LINE
8
Layer 1
10
78.791441
20
156.599498
11
78.980993
21
157.854153
0
LINE
8
Layer 1
10
78.980993
20
157.854153
11
78.953160
21
159.028950
0
LINE
8
Layer 1
10
78.953160
20
159.028950
11
78.730489
21
159.936466
0
LINE
8
Layer 1
10
78.730489
20
159.936466
11
78.335528
21
160.389276
0
LINE
8
Layer 1
10
78.335528
20
160.389276
11
78.065699
21
160.055818
0
LINE
8
Layer 1
10
78.065699
20
160.055818
11
77.736700
21
159.153963
0
LINE
8
Layer 1
10
77.736700
20
159.153963
11
77.334751
21
157.079095
0
LINE
8
Layer 1
10
77.334751
20
157.079095
11
77.667458
21
155.789068
0
LINE
8
Layer 1
10
77.667458
20
155.789068
11
77.957417
21
155.218063
0
LINE
8
Layer 1
10
77.957417
20
155.218063
11
78.211796
21
154.978921
0
LINE
8
Layer 1
10
78.211796
20
154.978921
11
78.791441
21
156.599498
0
LINE
8
Layer 1
10
78.791441
20
156.599498
11
78.791441
21
156.599498
0
LINE
8
Layer 1
10
51.348248
20
159.492275
11
51.245600
21
161.773774
0
LINE
8
Layer 1
10
51.245600
20
161.773774
11
51.537334
21
163.418413
0
LINE
8
Layer 1
10
51.537334
20
163.418413
11
51.855992
21
164.069446
0
LINE
8
Layer 1
10
51.855992
20
164.069446
11
52.303123
21
164.642307
0
LINE
8
Layer 1
10
52.303123
20
164.642307
11
53.622640
21
165.661569
0
LINE
8
Layer 1
10
53.622640
20
165.661569
11
54.654018
21
166.146776
0
LINE
8
Layer 1
10
54.654018
20
166.146776
11
55.570992
21
166.240698
0
LINE
8
Layer 1
10
55.570992
20
166.240698
11
56.445676
21
165.934801
0
LINE
8
Layer 1
10
56.445676
20
165.934801
11
57.350186
21
165.220554
0
LINE
8
Layer 1
10
57.350186
20
165.220554
11
58.106037
21
164.374956
0
LINE
8
Layer 1
10
58.106037
20
164.374956
11
58.420418
21
163.809443
0
LINE
8
Layer 1
10
58.420418
20
163.809443
11
58.509104
21
163.431426
0
LINE
8
Layer 1
10
58.509104
20
163.431426
11
58.716338
21
163.477909
0
LINE
8
Layer 1
10
58.716338
20
163.477909
11
58.953881
21
163.863229
0
LINE
8
Layer 1
10
58.953881
20
163.863229
11
59.133494
21
164.501720
0
LINE
8
Layer 1
10
59.133494
20
164.501720
11
59.587638
21
166.139616
0
LINE
8
Layer 1
10
59.587638
20
166.139616
11
59.762997
21
167.541851
0
LINE
8
Layer 1
10
59.762997
20
167.541851
11
59.727679
21
170.074124
0
LINE
8
Layer 1
10
59.727679
20
170.074124
11
59.513571
21
173.034253
0
LINE
8
Layer 1
10
59.513571
20
173.034253
11
59.152561
21
175.720056
0
LINE
8
Layer 1
10
59.152561
20
175.720056
11
58.441415
21
179.901286
0
LINE
8
Layer 1
10
58.441415
20
179.901286
11
58.079386
21
181.658500
0
LINE
8
Layer 1
10
58.079386
20
181.658500
11
56.798980
21
181.146162
0
LINE
8
Layer 1
10
56.798980
20
181.146162
11
54.946924
21
179.819292
0
LINE
8
Layer 1
10
54.946924
20
179.819292
11
52.832482
21
177.841905
0
LINE
8
Layer 1
10
52.832482
20
177.841905
11
50.906631
21
175.676429
0
LINE
8
Layer 1
10
50.906631
20
175.676429
11
49.620351
21
173.785293
0
LINE
8
Layer 1
10
49.620351
20
173.785293
11
48.777883
21
171.769554
0
LINE
8
Layer 1
10
48.777883
20
171.769554
11
48.205334
21
169.611423
0
LINE
8
Layer 1
10
48.205334
20
169.611423
11
47.899466
21
167.390443
0
LINE
8
Layer 1
10
47.899466
20
167.390443
11
47.857047
21
165.186161
0
LINE
8
Layer 1
10
47.857047
20
165.186161
11
48.074840
21
163.078119
0
LINE
8
Layer 1
10
48.074840
20
163.078119
11
48.549612
21
161.145863
0
LINE
8
Layer 1
10
48.549612
20
161.145863
11
49.278126
21
159.468936
0
LINE
8
Layer 1
10
49.278126
20
159.468936
11
50.257148
21
158.126884
0
LINE
8
Layer 1
10
50.257148
20
158.126884
11
51.507624
21
157.004187
0
LINE
8
Layer 1
10
51.507624
20
157.004187
11
51.348248
21
159.492275
0
LINE
8
Layer 1
10
51.348248
20
159.492275
11
51.348248
21
159.492275
0
LINE
8
Layer 1
10
55.625207
20
158.283125
11
56.177153
21
158.738322
0
LINE
8
Layer 1
10
56.177153
20
158.738322
11
56.414066
21
159.318453
0
LINE
8
Layer 1
10
56.414066
20
159.318453
11
56.346485
21
160.108821
0
LINE
8
Layer 1
10
56.346485
20
160.108821
11
55.984950
21
161.194730
0
LINE
8
Layer 1
10
55.984950
20
161.194730
11
55.525038
21
162.344162
0
LINE
8
Layer 1
10
55.525038
20
162.344162
11
54.833277
21
161.694328
0
LINE
8
Layer 1
10
54.833277
20
161.694328
11
54.435089
21
161.226516
0
LINE
8
Layer 1
10
54.435089
20
161.226516
11
54.262764
21
160.638570
0
LINE
8
Layer 1
10
54.262764
20
160.638570
11
54.508581
21
158.151720
0
LINE
8
Layer 1
10
54.508581
20
158.151720
11
54.575179
21
157.899049
0
LINE
8
Layer 1
10
54.575179
20
157.899049
11
54.726242
21
157.829990
0
LINE
8
Layer 1
10
54.726242
20
157.829990
11
55.625207
21
158.283125
0
LINE
8
Layer 1
10
55.625207
20
158.283125
11
55.625207
21
158.283125
0
LINE
8
Layer 1
10
91.015086
20
158.360155
11
91.013564
21
158.511747
0
LINE
8
Layer 1
10
91.013564
20
158.511747
11
90.749521
21
158.471071
0
LINE
8
Layer 1
10
90.749521
20
158.471071
11
90.327726
21
158.205761
0
LINE
8
Layer 1
10
90.327726
20
158.205761
11
90.577094
21
158.081164
0
LINE
8
Layer 1
10
90.577094
20
158.081164
11
91.015086
21
158.360155
0
LINE
8
Layer 1
10
91.015086
20
158.360155
11
91.015086
21
158.360155
0
LINE
8
Layer 1
10
156.449883
20
175.763880
11
156.642427
21
175.963514
0
LINE
8
Layer 1
10
156.642427
20
175.963514
11
156.610348
21
176.318330
0
LINE
8
Layer 1
10
156.610348
20
176.318330
11
155.708375
21
177.984491
0
LINE
8
Layer 1
10
155.708375
20
177.984491
11
154.692820
21
179.487444
0
LINE
8
Layer 1
10
154.692820
20
179.487444
11
153.522193
21
180.881217
0
LINE
8
Layer 1
10
153.522193
20
180.881217
11
152.159056
21
182.205978
0
LINE
8
Layer 1
10
152.159056
20
182.205978
11
150.565973
21
183.501892
0
LINE
8
Layer 1
10
150.565973
20
183.501892
11
147.337832
21
185.498499
0
LINE
8
Layer 1
10
147.337832
20
185.498499
11
145.841433
21
186.248415
0
LINE
8
Layer 1
10
145.841433
20
186.248415
11
145.120140
21
186.454966
0
LINE
8
Layer 1
10
145.120140
20
186.454966
11
145.289832
21
185.112040
0
LINE
8
Layer 1
10
145.289832
20
185.112040
11
146.966864
21
177.272278
0
LINE
8
Layer 1
10
146.966864
20
177.272278
11
147.193347
21
176.002278
0
LINE
8
Layer 1
10
147.193347
20
176.002278
11
149.302992
21
175.664701
0
LINE
8
Layer 1
10
149.302992
20
175.664701
11
151.280139
21
175.468930
0
LINE
8
Layer 1
10
151.280139
20
175.468930
11
153.459504
21
175.424771
0
LINE
8
Layer 1
10
153.459504
20
175.424771
11
155.347336
21
175.525371
0
LINE
8
Layer 1
10
155.347336
20
175.525371
11
156.449883
21
175.763880
0
LINE
8
Layer 1
10
156.449883
20
175.763880
11
156.449883
21
175.763880
0
LINE
8
Layer 1
10
38.523751
20
183.962529
11
39.865846
21
184.539585
0
LINE
8
Layer 1
10
39.865846
20
184.539585
11
41.310674
21
185.350748
0
LINE
8
Layer 1
10
41.310674
20
185.350748
11
42.672686
21
186.280906
0
LINE
8
Layer 1
10
42.672686
20
186.280906
11
43.766331
21
187.214946
0
LINE
8
Layer 1
10
43.766331
20
187.214946
11
45.119366
21
188.854883
0
LINE
8
Layer 1
10
45.119366
20
188.854883
11
46.489979
21
190.939795
0
LINE
8
Layer 1
10
46.489979
20
190.939795
11
47.551735
21
192.923634
0
LINE
8
Layer 1
10
47.551735
20
192.923634
11
47.978195
21
194.260351
0
LINE
8
Layer 1
10
47.978195
20
194.260351
11
48.332738
21
195.034038
0
LINE
8
Layer 1
10
48.332738
20
195.034038
11
49.224774
21
196.061242
0
LINE
8
Layer 1
10
49.224774
20
196.061242
11
50.471349
21
197.255674
0
LINE
8
Layer 1
10
50.471349
20
197.255674
11
49.841585
21
197.847308
0
LINE
8
Layer 1
10
49.841585
20
197.847308
11
48.944900
21
198.438944
0
LINE
8
Layer 1
10
48.944900
20
198.438944
11
48.481463
21
198.663770
0
LINE
8
Layer 1
10
48.481463
20
198.663770
11
47.878128
21
199.190621
0
LINE
8
Layer 1
10
47.878128
20
199.190621
11
47.354836
21
199.798061
0
LINE
8
Layer 1
10
47.354836
20
199.798061
11
47.131529
21
200.264651
0
LINE
8
Layer 1
10
47.131529
20
200.264651
11
47.243274
21
200.638086
0
LINE
8
Layer 1
10
47.243274
20
200.638086
11
47.548010
21
201.057295
0
LINE
8
Layer 1
10
47.548010
20
201.057295
11
48.553449
21
201.831397
0
LINE
8
Layer 1
10
48.553449
20
201.831397
11
49.204673
21
201.995700
0
LINE
8
Layer 1
10
49.204673
20
201.995700
11
50.021455
21
201.914427
0
LINE
8
Layer 1
10
50.021455
20
201.914427
11
50.957082
21
201.613966
0
LINE
8
Layer 1
10
50.957082
20
201.613966
11
51.964838
21
201.120708
0
LINE
8
Layer 1
10
51.964838
20
201.120708
11
54.009880
21
199.661353
0
LINE
8
Layer 1
10
54.009880
20
199.661353
11
55.782868
21
197.747475
0
LINE
8
Layer 1
10
55.782868
20
197.747475
11
57.009307
21
195.735922
0
LINE
8
Layer 1
10
57.009307
20
195.735922
11
57.386756
21
195.090358
0
LINE
8
Layer 1
10
57.386756
20
195.090358
11
57.828787
21
194.999871
0
LINE
8
Layer 1
10
57.828787
20
194.999871
11
58.445090
21
195.510494
0
LINE
8
Layer 1
10
58.445090
20
195.510494
11
60.660702
21
197.413656
0
LINE
8
Layer 1
10
60.660702
20
197.413656
11
62.724307
21
198.804306
0
LINE
8
Layer 1
10
62.724307
20
198.804306
11
63.065517
21
198.969645
0
LINE
8
Layer 1
10
63.065517
20
198.969645
11
63.174766
21
199.145729
0
LINE
8
Layer 1
10
63.174766
20
199.145729
11
62.578272
21
199.581497
0
LINE
8
Layer 1
10
62.578272
20
199.581497
11
60.696600
21
200.214333
0
LINE
8
Layer 1
10
60.696600
20
200.214333
11
57.291529
21
201.146960
0
LINE
8
Layer 1
10
57.291529
20
201.146960
11
55.332308
21
201.711721
0
LINE
8
Layer 1
10
55.332308
20
201.711721
11
53.834550
21
202.291894
0
LINE
8
Layer 1
10
53.834550
20
202.291894
11
52.515981
21
203.018446
0
LINE
8
Layer 1
10
52.515981
20
203.018446
11
51.094330
21
204.022347
0
LINE
8
Layer 1
10
51.094330
20
204.022347
11
49.103729
21
205.232608
0
LINE
8
Layer 1
10
49.103729
20
205.232608
11
48.188960
21
205.552288
0
LINE
8
Layer 1
10
48.188960
20
205.552288
11
47.325116
21
205.681782
0
LINE
8
Layer 1
10
47.325116
20
205.681782
11
46.510128
21
205.621174
0
LINE
8
Layer 1
10
46.510128
20
205.621174
11
45.741925
21
205.370550
0
LINE
8
Layer 1
10
45.741925
20
205.370550
11
45.018437
21
204.929994
0
LINE
8
Layer 1
10
45.018437
20
204.929994
11
44.337594
21
204.299591
0
LINE
8
Layer 1
10
44.337594
20
204.299591
11
39.191602
21
199.047260
0
LINE
8
Layer 1
10
39.191602
20
199.047260
11
35.569048
21
195.316731
0
LINE
8
Layer 1
10
35.569048
20
195.316731
11
33.395796
21
192.708925
0
LINE
8
Layer 1
10
33.395796
20
192.708925
11
32.711751
21
191.626982
0
LINE
8
Layer 1
10
32.711751
20
191.626982
11
32.220944
21
190.586848
0
LINE
8
Layer 1
10
32.220944
20
190.586848
11
31.593590
21
188.313510
0
LINE
8
Layer 1
10
31.593590
20
188.313510
11
31.408369
21
186.802078
0
LINE
8
Layer 1
10
31.408369
20
186.802078
11
31.519888
21
186.339313
0
LINE
8
Layer 1
10
31.519888
20
186.339313
11
31.783178
21
185.869666
0
LINE
8
Layer 1
10
31.783178
20
185.869666
11
32.518239
21
185.078699
0
LINE
8
Layer 1
10
32.518239
20
185.078699
11
33.561508
21
184.281982
0
LINE
8
Layer 1
10
33.561508
20
184.281982
11
34.672170
21
183.733311
0
LINE
8
Layer 1
10
34.672170
20
183.733311
11
35.820224
21
183.500347
0
LINE
8
Layer 1
10
35.820224
20
183.500347
11
37.079481
21
183.578337
0
LINE
8
Layer 1
10
37.079481
20
183.578337
11
38.523751
21
183.962529
0
LINE
8
Layer 1
10
38.523751
20
183.962529
11
38.523751
21
183.962529
 0 
ENDSEC
 0 
EOF
